<mxfile host="app.diagrams.net" modified="2023-05-23T20:26:16.737Z" agent="Mozilla/5.0 (Macintosh; Intel Mac OS X 10_15_7) AppleWebKit/537.36 (KHTML, like Gecko) Chrome/113.0.0.0 Safari/537.36" etag="e0zCCsW5kBg82hB1Uq50" version="21.3.2" type="github">
  <diagram name="第 1 页" id="mDLx6ytxJzl79SXASMjT">
    <mxGraphModel dx="2261" dy="1965" grid="1" gridSize="10" guides="1" tooltips="1" connect="1" arrows="1" fold="1" page="1" pageScale="1" pageWidth="827" pageHeight="1169" math="0" shadow="0">
      <root>
        <mxCell id="0" />
        <mxCell id="1" parent="0" />
        <mxCell id="WtjZ9ceoHeIxMGEVFJwQ-241" style="edgeStyle=orthogonalEdgeStyle;rounded=0;orthogonalLoop=1;jettySize=auto;html=1;entryX=0;entryY=0.5;entryDx=0;entryDy=0;" edge="1" parent="1" source="WtjZ9ceoHeIxMGEVFJwQ-13" target="WtjZ9ceoHeIxMGEVFJwQ-23">
          <mxGeometry relative="1" as="geometry" />
        </mxCell>
        <mxCell id="WtjZ9ceoHeIxMGEVFJwQ-242" style="edgeStyle=orthogonalEdgeStyle;rounded=0;orthogonalLoop=1;jettySize=auto;html=1;entryX=0;entryY=0.5;entryDx=0;entryDy=0;" edge="1" parent="1" source="WtjZ9ceoHeIxMGEVFJwQ-13" target="WtjZ9ceoHeIxMGEVFJwQ-29">
          <mxGeometry relative="1" as="geometry" />
        </mxCell>
        <mxCell id="WtjZ9ceoHeIxMGEVFJwQ-243" style="edgeStyle=orthogonalEdgeStyle;rounded=0;orthogonalLoop=1;jettySize=auto;html=1;entryX=0;entryY=0.5;entryDx=0;entryDy=0;" edge="1" parent="1" source="WtjZ9ceoHeIxMGEVFJwQ-13" target="WtjZ9ceoHeIxMGEVFJwQ-49">
          <mxGeometry relative="1" as="geometry" />
        </mxCell>
        <mxCell id="WtjZ9ceoHeIxMGEVFJwQ-244" style="edgeStyle=orthogonalEdgeStyle;rounded=0;orthogonalLoop=1;jettySize=auto;html=1;entryX=0;entryY=0.5;entryDx=0;entryDy=0;" edge="1" parent="1" source="WtjZ9ceoHeIxMGEVFJwQ-13" target="WtjZ9ceoHeIxMGEVFJwQ-35">
          <mxGeometry relative="1" as="geometry" />
        </mxCell>
        <mxCell id="WtjZ9ceoHeIxMGEVFJwQ-245" style="edgeStyle=orthogonalEdgeStyle;rounded=0;orthogonalLoop=1;jettySize=auto;html=1;entryX=0;entryY=0.5;entryDx=0;entryDy=0;" edge="1" parent="1" source="WtjZ9ceoHeIxMGEVFJwQ-13" target="WtjZ9ceoHeIxMGEVFJwQ-41">
          <mxGeometry relative="1" as="geometry" />
        </mxCell>
        <mxCell id="WtjZ9ceoHeIxMGEVFJwQ-13" value="B端业务" style="rounded=0;whiteSpace=wrap;html=1;" vertex="1" parent="1">
          <mxGeometry x="-130" y="834.5" width="120" height="60" as="geometry" />
        </mxCell>
        <mxCell id="WtjZ9ceoHeIxMGEVFJwQ-22" value="" style="group" vertex="1" connectable="0" parent="1">
          <mxGeometry x="250" y="10" width="110" height="60" as="geometry" />
        </mxCell>
        <mxCell id="WtjZ9ceoHeIxMGEVFJwQ-23" value="" style="rounded=0;whiteSpace=wrap;html=1;" vertex="1" parent="WtjZ9ceoHeIxMGEVFJwQ-22">
          <mxGeometry y="30" width="30" height="30" as="geometry" />
        </mxCell>
        <mxCell id="WtjZ9ceoHeIxMGEVFJwQ-24" value="" style="rounded=0;whiteSpace=wrap;html=1;" vertex="1" parent="WtjZ9ceoHeIxMGEVFJwQ-22">
          <mxGeometry x="30" y="30" width="30" height="30" as="geometry" />
        </mxCell>
        <mxCell id="WtjZ9ceoHeIxMGEVFJwQ-25" value="" style="rounded=0;whiteSpace=wrap;html=1;" vertex="1" parent="WtjZ9ceoHeIxMGEVFJwQ-22">
          <mxGeometry x="80" y="30" width="30" height="30" as="geometry" />
        </mxCell>
        <mxCell id="WtjZ9ceoHeIxMGEVFJwQ-192" style="edgeStyle=orthogonalEdgeStyle;rounded=0;orthogonalLoop=1;jettySize=auto;html=1;" edge="1" parent="WtjZ9ceoHeIxMGEVFJwQ-22">
          <mxGeometry relative="1" as="geometry">
            <mxPoint x="190" y="45" as="targetPoint" />
            <mxPoint x="110" y="45" as="sourcePoint" />
          </mxGeometry>
        </mxCell>
        <mxCell id="WtjZ9ceoHeIxMGEVFJwQ-26" value="&lt;b&gt;&lt;font style=&quot;font-size: 15px;&quot;&gt;...&lt;/font&gt;&lt;/b&gt;" style="text;strokeColor=none;align=center;fillColor=none;html=1;verticalAlign=middle;whiteSpace=wrap;rounded=0;" vertex="1" parent="WtjZ9ceoHeIxMGEVFJwQ-22">
          <mxGeometry x="40" y="30" width="60" height="30" as="geometry" />
        </mxCell>
        <mxCell id="WtjZ9ceoHeIxMGEVFJwQ-27" value="&lt;b&gt;稿件变更&lt;/b&gt;" style="text;strokeColor=none;align=center;fillColor=none;html=1;verticalAlign=middle;whiteSpace=wrap;rounded=0;" vertex="1" parent="WtjZ9ceoHeIxMGEVFJwQ-22">
          <mxGeometry x="30" width="60" height="30" as="geometry" />
        </mxCell>
        <mxCell id="WtjZ9ceoHeIxMGEVFJwQ-28" value="" style="group" vertex="1" connectable="0" parent="1">
          <mxGeometry x="250" y="610" width="110" height="60" as="geometry" />
        </mxCell>
        <mxCell id="WtjZ9ceoHeIxMGEVFJwQ-29" value="" style="rounded=0;whiteSpace=wrap;html=1;" vertex="1" parent="WtjZ9ceoHeIxMGEVFJwQ-28">
          <mxGeometry y="30" width="30" height="30" as="geometry" />
        </mxCell>
        <mxCell id="WtjZ9ceoHeIxMGEVFJwQ-30" value="" style="rounded=0;whiteSpace=wrap;html=1;" vertex="1" parent="WtjZ9ceoHeIxMGEVFJwQ-28">
          <mxGeometry x="30" y="30" width="30" height="30" as="geometry" />
        </mxCell>
        <mxCell id="WtjZ9ceoHeIxMGEVFJwQ-31" value="" style="rounded=0;whiteSpace=wrap;html=1;" vertex="1" parent="WtjZ9ceoHeIxMGEVFJwQ-28">
          <mxGeometry x="80" y="30" width="30" height="30" as="geometry" />
        </mxCell>
        <mxCell id="WtjZ9ceoHeIxMGEVFJwQ-222" style="edgeStyle=orthogonalEdgeStyle;rounded=0;orthogonalLoop=1;jettySize=auto;html=1;" edge="1" parent="WtjZ9ceoHeIxMGEVFJwQ-28">
          <mxGeometry relative="1" as="geometry">
            <mxPoint x="190" y="45" as="targetPoint" />
            <mxPoint x="110" y="45" as="sourcePoint" />
          </mxGeometry>
        </mxCell>
        <mxCell id="WtjZ9ceoHeIxMGEVFJwQ-32" value="&lt;b&gt;&lt;font style=&quot;font-size: 15px;&quot;&gt;...&lt;/font&gt;&lt;/b&gt;" style="text;strokeColor=none;align=center;fillColor=none;html=1;verticalAlign=middle;whiteSpace=wrap;rounded=0;" vertex="1" parent="WtjZ9ceoHeIxMGEVFJwQ-28">
          <mxGeometry x="40" y="30" width="60" height="30" as="geometry" />
        </mxCell>
        <mxCell id="WtjZ9ceoHeIxMGEVFJwQ-33" value="&lt;b&gt;合集变更&lt;/b&gt;" style="text;strokeColor=none;align=center;fillColor=none;html=1;verticalAlign=middle;whiteSpace=wrap;rounded=0;" vertex="1" parent="WtjZ9ceoHeIxMGEVFJwQ-28">
          <mxGeometry x="30" width="60" height="30" as="geometry" />
        </mxCell>
        <mxCell id="WtjZ9ceoHeIxMGEVFJwQ-34" value="" style="group" vertex="1" connectable="0" parent="1">
          <mxGeometry x="250" y="980" width="110" height="60" as="geometry" />
        </mxCell>
        <mxCell id="WtjZ9ceoHeIxMGEVFJwQ-35" value="" style="rounded=0;whiteSpace=wrap;html=1;" vertex="1" parent="WtjZ9ceoHeIxMGEVFJwQ-34">
          <mxGeometry y="30" width="30" height="30" as="geometry" />
        </mxCell>
        <mxCell id="WtjZ9ceoHeIxMGEVFJwQ-36" value="" style="rounded=0;whiteSpace=wrap;html=1;" vertex="1" parent="WtjZ9ceoHeIxMGEVFJwQ-34">
          <mxGeometry x="30" y="30" width="30" height="30" as="geometry" />
        </mxCell>
        <mxCell id="WtjZ9ceoHeIxMGEVFJwQ-231" style="edgeStyle=orthogonalEdgeStyle;rounded=0;orthogonalLoop=1;jettySize=auto;html=1;" edge="1" parent="WtjZ9ceoHeIxMGEVFJwQ-34" source="WtjZ9ceoHeIxMGEVFJwQ-37">
          <mxGeometry relative="1" as="geometry">
            <mxPoint x="180" y="45" as="targetPoint" />
          </mxGeometry>
        </mxCell>
        <mxCell id="WtjZ9ceoHeIxMGEVFJwQ-37" value="" style="rounded=0;whiteSpace=wrap;html=1;" vertex="1" parent="WtjZ9ceoHeIxMGEVFJwQ-34">
          <mxGeometry x="80" y="30" width="30" height="30" as="geometry" />
        </mxCell>
        <mxCell id="WtjZ9ceoHeIxMGEVFJwQ-38" value="&lt;b&gt;&lt;font style=&quot;font-size: 15px;&quot;&gt;...&lt;/font&gt;&lt;/b&gt;" style="text;strokeColor=none;align=center;fillColor=none;html=1;verticalAlign=middle;whiteSpace=wrap;rounded=0;" vertex="1" parent="WtjZ9ceoHeIxMGEVFJwQ-34">
          <mxGeometry x="40" y="30" width="60" height="30" as="geometry" />
        </mxCell>
        <mxCell id="WtjZ9ceoHeIxMGEVFJwQ-39" value="&lt;b&gt;互动视频变更&lt;/b&gt;" style="text;strokeColor=none;align=center;fillColor=none;html=1;verticalAlign=middle;whiteSpace=wrap;rounded=0;" vertex="1" parent="WtjZ9ceoHeIxMGEVFJwQ-34">
          <mxGeometry x="15" width="80" height="30" as="geometry" />
        </mxCell>
        <mxCell id="WtjZ9ceoHeIxMGEVFJwQ-40" value="" style="group" vertex="1" connectable="0" parent="1">
          <mxGeometry x="250" y="1220" width="110" height="60" as="geometry" />
        </mxCell>
        <mxCell id="WtjZ9ceoHeIxMGEVFJwQ-41" value="" style="rounded=0;whiteSpace=wrap;html=1;" vertex="1" parent="WtjZ9ceoHeIxMGEVFJwQ-40">
          <mxGeometry y="30" width="30" height="30" as="geometry" />
        </mxCell>
        <mxCell id="WtjZ9ceoHeIxMGEVFJwQ-42" value="" style="rounded=0;whiteSpace=wrap;html=1;" vertex="1" parent="WtjZ9ceoHeIxMGEVFJwQ-40">
          <mxGeometry x="30" y="30" width="30" height="30" as="geometry" />
        </mxCell>
        <mxCell id="WtjZ9ceoHeIxMGEVFJwQ-228" style="edgeStyle=orthogonalEdgeStyle;rounded=0;orthogonalLoop=1;jettySize=auto;html=1;" edge="1" parent="WtjZ9ceoHeIxMGEVFJwQ-40" source="WtjZ9ceoHeIxMGEVFJwQ-43">
          <mxGeometry relative="1" as="geometry">
            <mxPoint x="180" y="45" as="targetPoint" />
          </mxGeometry>
        </mxCell>
        <mxCell id="WtjZ9ceoHeIxMGEVFJwQ-43" value="" style="rounded=0;whiteSpace=wrap;html=1;" vertex="1" parent="WtjZ9ceoHeIxMGEVFJwQ-40">
          <mxGeometry x="80" y="30" width="30" height="30" as="geometry" />
        </mxCell>
        <mxCell id="WtjZ9ceoHeIxMGEVFJwQ-44" value="&lt;b&gt;&lt;font style=&quot;font-size: 15px;&quot;&gt;...&lt;/font&gt;&lt;/b&gt;" style="text;strokeColor=none;align=center;fillColor=none;html=1;verticalAlign=middle;whiteSpace=wrap;rounded=0;" vertex="1" parent="WtjZ9ceoHeIxMGEVFJwQ-40">
          <mxGeometry x="40" y="30" width="60" height="30" as="geometry" />
        </mxCell>
        <mxCell id="WtjZ9ceoHeIxMGEVFJwQ-45" value="&lt;b&gt;稿件禁止项&lt;/b&gt;" style="text;strokeColor=none;align=center;fillColor=none;html=1;verticalAlign=middle;whiteSpace=wrap;rounded=0;" vertex="1" parent="WtjZ9ceoHeIxMGEVFJwQ-40">
          <mxGeometry x="15" width="80" height="30" as="geometry" />
        </mxCell>
        <mxCell id="WtjZ9ceoHeIxMGEVFJwQ-47" value="" style="group" vertex="1" connectable="0" parent="1">
          <mxGeometry x="315" y="1530" width="640" height="610" as="geometry" />
        </mxCell>
        <mxCell id="WtjZ9ceoHeIxMGEVFJwQ-2" value="" style="rounded=0;whiteSpace=wrap;html=1;dashed=1;dashPattern=8 8;strokeWidth=2;strokeColor=#FF0000;" vertex="1" parent="WtjZ9ceoHeIxMGEVFJwQ-47">
          <mxGeometry y="40" width="640" height="570" as="geometry" />
        </mxCell>
        <mxCell id="WtjZ9ceoHeIxMGEVFJwQ-1" value="&lt;font style=&quot;font-size: 15px;&quot;&gt;每5分钟拉取全量分区信息更新至本地缓存&lt;/font&gt;" style="ellipse;whiteSpace=wrap;html=1;" vertex="1" parent="WtjZ9ceoHeIxMGEVFJwQ-47">
          <mxGeometry x="140" y="65" width="300" height="100" as="geometry" />
        </mxCell>
        <mxCell id="WtjZ9ceoHeIxMGEVFJwQ-3" value="&lt;font style=&quot;font-size: 15px;&quot;&gt;每分钟拉取B端原生分区表更新C端冗余表&lt;/font&gt;" style="ellipse;whiteSpace=wrap;html=1;" vertex="1" parent="WtjZ9ceoHeIxMGEVFJwQ-47">
          <mxGeometry x="150" y="270" width="300" height="100" as="geometry" />
        </mxCell>
        <mxCell id="WtjZ9ceoHeIxMGEVFJwQ-4" value="&lt;font style=&quot;font-size: 15px;&quot;&gt;&lt;b&gt;异步定时任务&lt;/b&gt;&lt;/font&gt;" style="text;strokeColor=none;align=center;fillColor=none;html=1;verticalAlign=middle;whiteSpace=wrap;rounded=0;fontColor=#FF0000;" vertex="1" parent="WtjZ9ceoHeIxMGEVFJwQ-47">
          <mxGeometry x="262" width="116" height="30" as="geometry" />
        </mxCell>
        <mxCell id="WtjZ9ceoHeIxMGEVFJwQ-5" value="&lt;font style=&quot;font-size: 15px;&quot;&gt;检查视频过审消息是否堆积&lt;/font&gt;" style="ellipse;whiteSpace=wrap;html=1;" vertex="1" parent="WtjZ9ceoHeIxMGEVFJwQ-47">
          <mxGeometry x="150" y="480" width="300" height="100" as="geometry" />
        </mxCell>
        <mxCell id="WtjZ9ceoHeIxMGEVFJwQ-48" value="" style="group" vertex="1" connectable="0" parent="1">
          <mxGeometry x="250" y="820" width="110" height="60" as="geometry" />
        </mxCell>
        <mxCell id="WtjZ9ceoHeIxMGEVFJwQ-49" value="" style="rounded=0;whiteSpace=wrap;html=1;" vertex="1" parent="WtjZ9ceoHeIxMGEVFJwQ-48">
          <mxGeometry y="30" width="30" height="30" as="geometry" />
        </mxCell>
        <mxCell id="WtjZ9ceoHeIxMGEVFJwQ-50" value="" style="rounded=0;whiteSpace=wrap;html=1;" vertex="1" parent="WtjZ9ceoHeIxMGEVFJwQ-48">
          <mxGeometry x="30" y="30" width="30" height="30" as="geometry" />
        </mxCell>
        <mxCell id="WtjZ9ceoHeIxMGEVFJwQ-51" value="" style="rounded=0;whiteSpace=wrap;html=1;" vertex="1" parent="WtjZ9ceoHeIxMGEVFJwQ-48">
          <mxGeometry x="80" y="30" width="30" height="30" as="geometry" />
        </mxCell>
        <mxCell id="WtjZ9ceoHeIxMGEVFJwQ-224" style="edgeStyle=orthogonalEdgeStyle;rounded=0;orthogonalLoop=1;jettySize=auto;html=1;" edge="1" parent="WtjZ9ceoHeIxMGEVFJwQ-48">
          <mxGeometry relative="1" as="geometry">
            <mxPoint x="210" y="45" as="targetPoint" />
            <mxPoint x="110" y="45" as="sourcePoint" />
          </mxGeometry>
        </mxCell>
        <mxCell id="WtjZ9ceoHeIxMGEVFJwQ-52" value="&lt;b&gt;&lt;font style=&quot;font-size: 15px;&quot;&gt;...&lt;/font&gt;&lt;/b&gt;" style="text;strokeColor=none;align=center;fillColor=none;html=1;verticalAlign=middle;whiteSpace=wrap;rounded=0;" vertex="1" parent="WtjZ9ceoHeIxMGEVFJwQ-48">
          <mxGeometry x="40" y="30" width="60" height="30" as="geometry" />
        </mxCell>
        <mxCell id="WtjZ9ceoHeIxMGEVFJwQ-53" value="&lt;b&gt;稿件缓存变更&lt;/b&gt;" style="text;strokeColor=none;align=center;fillColor=none;html=1;verticalAlign=middle;whiteSpace=wrap;rounded=0;" vertex="1" parent="WtjZ9ceoHeIxMGEVFJwQ-48">
          <mxGeometry x="15" width="80" height="30" as="geometry" />
        </mxCell>
        <mxCell id="WtjZ9ceoHeIxMGEVFJwQ-184" style="edgeStyle=orthogonalEdgeStyle;rounded=0;orthogonalLoop=1;jettySize=auto;html=1;entryX=0;entryY=0.5;entryDx=0;entryDy=0;" edge="1" parent="1" source="WtjZ9ceoHeIxMGEVFJwQ-54" target="WtjZ9ceoHeIxMGEVFJwQ-180">
          <mxGeometry relative="1" as="geometry" />
        </mxCell>
        <mxCell id="WtjZ9ceoHeIxMGEVFJwQ-185" style="edgeStyle=orthogonalEdgeStyle;rounded=0;orthogonalLoop=1;jettySize=auto;html=1;entryX=0;entryY=0.5;entryDx=0;entryDy=0;" edge="1" parent="1" source="WtjZ9ceoHeIxMGEVFJwQ-54" target="WtjZ9ceoHeIxMGEVFJwQ-177">
          <mxGeometry relative="1" as="geometry" />
        </mxCell>
        <mxCell id="WtjZ9ceoHeIxMGEVFJwQ-186" style="edgeStyle=orthogonalEdgeStyle;rounded=0;orthogonalLoop=1;jettySize=auto;html=1;entryX=0;entryY=0.5;entryDx=0;entryDy=0;" edge="1" parent="1" source="WtjZ9ceoHeIxMGEVFJwQ-54" target="WtjZ9ceoHeIxMGEVFJwQ-174">
          <mxGeometry relative="1" as="geometry" />
        </mxCell>
        <mxCell id="WtjZ9ceoHeIxMGEVFJwQ-187" style="edgeStyle=orthogonalEdgeStyle;rounded=0;orthogonalLoop=1;jettySize=auto;html=1;entryX=0;entryY=0.5;entryDx=0;entryDy=0;" edge="1" parent="1" source="WtjZ9ceoHeIxMGEVFJwQ-54" target="WtjZ9ceoHeIxMGEVFJwQ-171">
          <mxGeometry relative="1" as="geometry" />
        </mxCell>
        <mxCell id="WtjZ9ceoHeIxMGEVFJwQ-188" style="edgeStyle=orthogonalEdgeStyle;rounded=0;orthogonalLoop=1;jettySize=auto;html=1;" edge="1" parent="1" source="WtjZ9ceoHeIxMGEVFJwQ-54" target="WtjZ9ceoHeIxMGEVFJwQ-167">
          <mxGeometry relative="1" as="geometry" />
        </mxCell>
        <mxCell id="WtjZ9ceoHeIxMGEVFJwQ-189" style="edgeStyle=orthogonalEdgeStyle;rounded=0;orthogonalLoop=1;jettySize=auto;html=1;entryX=0;entryY=0.5;entryDx=0;entryDy=0;" edge="1" parent="1" source="WtjZ9ceoHeIxMGEVFJwQ-54" target="WtjZ9ceoHeIxMGEVFJwQ-142">
          <mxGeometry relative="1" as="geometry">
            <Array as="points">
              <mxPoint x="850" y="56" />
              <mxPoint x="850" y="517" />
            </Array>
          </mxGeometry>
        </mxCell>
        <mxCell id="WtjZ9ceoHeIxMGEVFJwQ-218" style="edgeStyle=orthogonalEdgeStyle;rounded=0;orthogonalLoop=1;jettySize=auto;html=1;entryX=0;entryY=0.5;entryDx=0;entryDy=0;" edge="1" parent="1" source="WtjZ9ceoHeIxMGEVFJwQ-54" target="WtjZ9ceoHeIxMGEVFJwQ-62">
          <mxGeometry relative="1" as="geometry">
            <Array as="points">
              <mxPoint x="850" y="56" />
              <mxPoint x="850" y="240" />
            </Array>
          </mxGeometry>
        </mxCell>
        <mxCell id="WtjZ9ceoHeIxMGEVFJwQ-219" style="edgeStyle=orthogonalEdgeStyle;rounded=0;orthogonalLoop=1;jettySize=auto;html=1;entryX=0;entryY=0.5;entryDx=0;entryDy=0;" edge="1" parent="1" source="WtjZ9ceoHeIxMGEVFJwQ-54" target="WtjZ9ceoHeIxMGEVFJwQ-207">
          <mxGeometry relative="1" as="geometry">
            <Array as="points">
              <mxPoint x="850" y="56" />
              <mxPoint x="850" y="370" />
            </Array>
          </mxGeometry>
        </mxCell>
        <mxCell id="WtjZ9ceoHeIxMGEVFJwQ-54" value="" style="shape=image;imageAspect=0;aspect=fixed;verticalLabelPosition=bottom;verticalAlign=top;image=data:image/png,iVBORw0KGgoAAAANSUhEUgAAAS4AAACYCAYAAABapASfAAABYGlDQ1BJQ0MgUHJvZmlsZQAAKJFtkD1LA0EQht/Tk4BJkYAERJHrVEgkuaSxPKP4QYojKn50l0tMlEuyXE7EzspfIHa24h/QFFrY2CtCFCstRCxVuEbDOptTk6izDPPwMrM7+wJdAYMxSwZQKjt2ZnpCWV5ZVXxPkDEAP8YwZJhVpul6mlrwXTvDrUMS9Toq7jp5vbp97t99mQtp0fhFuP63vyN6c/mqSfWDUjWZ7QBSjFjfcpjgHeI+m5Yi3hNc8PhIcNbjs2bPQiZFfEkcNItGjvieOJJt0wttXLI2za8dxPaBfHlxnmqYchCTmEKajgIdKpKIYxwz5NH/M8nmTAoVMGzDxjoKKMKhaY0UBgt54lmUYZKjEWIVMcqE8Pq3hy0t9wgkSvTUSEvbCAKnLhA6bmnDD/SdA+BcZ4Zt/DgruXJ1LaF67K8BPfucvy0BvlGgccP5e43zxiHQfUez7icvomTI3Dj1JAAAADhlWElmTU0AKgAAAAgAAYdpAAQAAAABAAAAGgAAAAAAAqACAAQAAAABAAABLqADAAQAAAABAAAAmAAAAAABj01rAAA9V0lEQVR4Ae2dB3xUxfbHT3ojPSGQBFLoRZooTelFbICIWFBB4SnPgl3/D/Xh89nwWXlPxYK9gHREFKUjvRcpUgIhIYWQBunlP7+zmc3NZluSTbK7mfP57N67M3Pnzj139+yZc2e+4xIdHV1OSpQGlAaUBhxIA64O1FbVVKUBpQGlAdaAMlzqi2C3GnB1IfLyFG9KlAYMNNDkDVdUVBSNHz/eQC1VP1599dU0bNiwqonqU71pAAZr//chdOanMFrwWmC9nUdV7LgasLnhCuoznsKGTWt0jUybNo2WL19Ovr6++rbcfPPNnNaqVSt9Wu/evemee+7Rfza2M3bsWLrjjjuMZTlEmk9MN4q687UGbWtdvgfjh3pRSIArXfdIFo15MqtB261O5hgasLnh8o5sT96tujT61a9atYrbMGTIEH1b+vXrR4WFhZSYmKhPW7NmDT377LP6z8644x4QTl6RHRr00uryPYiPdqeSUqLDp0oatM3qZI6jAXdbNdWvfT9qfv1j5OrhxVXGPTaft4nzHiEqK6VWU/9HKYtepvzEw5we0G0EhQy8m858MIWC+txC/l2HkourO7kHNqfirBRK/v4fVJKbwWX92l5N4aMfJTcffyoruESpP71Nead2c56pt3PnzlFBQQH179+fVq5cycXatGlDx48f1x8yf/58cnFxoeLiYrrrrrv06V5eXvTGG29QXFwc5+Xl5VFRUZE+H93GBx54gLy9vfkc//vf/2jDhg2c37NnT3rmmWfIz8+Pj/3uu+9o0aJFnDd79mxKTU2lt956iz/PmTOH/vzzT/rwww/pb3/7Gw0YMIBcXV0pMDCQsrKy2KCeP39ef15TO56h0dT8pqfIKzyWi1w+uZNSFr9Crp4+FPP3z8nFzUPo1o3kPclY+ynlHPiNywb3vZVw74ozz5Nfh/6chmM9Q6KoWedBdO6rJzkt5NpJ5C2MX/L8F/izq3czajH2OfKO7sx1F2cmU+JnD5OvuFemvgclOWl8rKU3L09LJVR+U9eAzTyu/IT9lPzDTCpIPkrF2am8j8+llzKoRLzKCi8LA1UZSwq6aiwVX0yicmHU3PyCyCM4koounmOj5OYbRKFD7uN74xEYQS1umUlFqSfFj+ZFKhTbiJufseq+HT16lNq2bctlmzdvzoZm7dq1+mNhnDZv3kzNmjXTp2FnzJgxbLSWLl3K+UFBQfp8dDNnzJhBSUlJbNySk5Pp0Ucf5XwYwZkzZ1JZWRnBmCHv3nvvJTHkhPNDQkIoNDRUX1dwcDAhDYJz4HNaWhp98sknbPgefvhhfVlzO6FD7yc3Lz82MknC4Bee1xnnsqICcR+ep6ydS4jKy/X35NLxrfrqoHuvFm3ZAF34fS5lrJsn/mjKyK1ZCMFTk+LuLz6LPxUpkRNmsSHL3Pw9n7co/QyRMI7mvgfyWHNbTw8XGnaVJ2XllpkrpvKauAZs5nGVFeVRYcoJKs3LJhcPb97X6jZ7z0rCv7aLmzu5Cs/JQ3gJGeKfXSspS16j8pIi8m7Zjpp1GshZgb1v4m3emQPkFRHPHptPTHfCK//Mfu3h1fbRDezRowcbixEjRojfbjmtX79eX27Pnj2kjXfJjL59+7IB+fzzzzkJXUwpt99+O+8eOnSI2rVrRzCO8fHx7C1lZmaSp6cn4bhff/2Vtm3bRl9//TWNGjWKPvvsM1mF2S0MHzzFjh07EuJv1oibXzCRCGiXlxazYS8492fFYeV8HzzDY8S1l1W7J9q68ScDr0uKT2x3uVtt6+rpTV7iHmXtWEKZ237k/JSlr/O2nIrMfg+qVaZJmPO0P40Z5EWlops4+aUcTY7aVRqoqgGbeVxVq63+KWfvz6Jb5spdwqDeY6i8uJAun9ihL1hWlM9GCwkwgG6+gWzk4InBK2smujPNOgwgvzZXCY/iL9EN8tYfa2oH3hSMFbp2V111FXfTSvGrsCDwkOBRSYEXJCUiIoLrhFHp06cPde/encv6+PhQZGQkF4NBhGRnZ1NJSQnB27NG0B2F0YIcO3aMUCcMoSW58PvHwnC5Uav75lD84wsosNeNlg6pkg/da41WlUwjH3BPIHkndxnJrX3SO9/l0Ztf5xFGRD9+V+VDldrXqI50Vg3YzOPSK0gYChgoQ0G3Jf/sAf5RoXuSe2RjlSKIxyAOAyPlERJNKF9eWqKPc537RnQPhddQE4GRQncNwxlat25NMmBvqY709HQKD6/sJqE7l5+fz4fBq4I89NBD3CXkDxVvMGKQDh06EGJTiIG5u7tzvArpiKVpn3IiDqYVGCk3NzfhcZRye1FeG1vTltXuw8M68+F93N0Ov+5h8VR3qohhrdb/EcASGLsnso7yYp2xlJ+xLRNpLu66eCU+e4iYl5TibJ0h947uJDzgQzK56tbE96BqoaqfTiWV0pz5edS+tRtdP8Cywa56tPrUlDRQ3cLU8erzxY8IX3LPsNbi11K1+sxtiwjdFnhTWdsXVztT8DV3chwFgfqCJF13J/fQWjZoYSKO4+rlywHn4L4TxNa6f+Tt27dzlw4G5Oeff652TmMJu3btYu8JXtXw4cPJ399fXwxdQMSynnzySQoICOD4GIZeoAy6jfDwJk6cyF4WYmEQeH4QeFHommLsGB4GwEgZCgwiyqB7mpCQYJht9HNAz9GsU3hNBUlH2PhrjXx+4kFYLhFsH8i6NFqJQWJ+wj72an3EE2IE4L1atNOXwAOSktwLFHjlTeTTuivf58DeN7OHLAuZ+x7IMqa259LKxEMK0fdVojRgQgM297gu/bmBu4OtprzPP5aznzyo74YgJoVuSVl+rkhLrtIkeFcI2OMpF/YR9IXgh3hx07cUIoxa4JW6LhC6mdn7dMMdqlRi5AO8rFtuuYU9Jm33DwF1GCUpGPMFmTJlCiEoP3LkSHrxxRc5TXbf8AFGDU8pr7/+err22ms5H93BH3/8kYdazJs3j+677z769NNPOe+PP/6ggweF4RACw4mnnHiKCE8KLxg6KfC0MHwD7cL+N998I7PMboOE0Qgf8SAH4BHnurj5O9ahPKhEeEjQfcSNTxKJV8b6Lzg+JfONbQuSjlFRRiJF3vEq14sHLlo5/+NLFHn7v8VLF6dEbDJn3y/6Iua+B/pCJnYuZpeRu7DpUeGulJReMy/bRJUq2ck04NKQk6xdxZOvuEe/5SdXWbt0hgL6DBs+TTyS709nP5oqujstxdNFYdQMu4XCe8NjfzydlMMk6vtexMbGcpAewyEMBcMW8MQyNzeXu4XafHhSGHqBIRnGjkW9ht4UhlDgQcLdd9/NTzRPnTpVrSuqPYfhvluzYH6yWJRxzjCrTp/dA5rzk2F04Y2J/rzG7pmxA6xICwtype1fBBOeMG7eV0x3zMy24ihVpClpwOYelynlwWMK6Hm9iJ3AW6r8Z9aWx4/D5A9PGLKiC2e1xet939C4aE+IIQ/aMWHaPHhLpvJQzly9OPbEiRPa6qzaL72UKQyMLv5m1QFWFrI09qo+znshq4zajcug6IjqXWkrm62KObkGGsxwIdibe2gNZe9eWRk0rlBu3qk94kfXtKd2IBYnA/9O/p2z6vLKRA/6bIpxL8+qClQhp9ZAg3YVnVqT6uKUBpQGGkwDVR/7Ndhp1YmUBpQGlAZqrwGbGS45raX2TVFHKg0oDSgNWKcBmxku606nSikNKA0oDdRdA8pw1V2HqgalAaWBBtaAMlwNrHBnOx3G32E2RGNL2+bB9NWUGwlbU9Ii0I9Gd403ld1g6T1bRVCv1hF8vo4tQmlAGx09pMEaUIMTBfp40YhOsYStpxifiH3oUYo1epdlbbl1aMM1ePBgJppi1PuyZcto7ty5NHr0aJvoB3MKMfodg0WdWVwEPw2zHDDwtzYSPvJBnilRm2NtecyJtEz6+dBJ+veYgeTjYXyUzxWR4TTtmh62PG2t6npgYA+aPqgXH3vn1Z1pxjDrKCC1OpnmoG5R4fTauEGaFMu78WFB9PCQK6md+EMI8vXi/X5xlfNWrdG75bPUvITxO1zzehrlCMwZhLzyioDmiZHsmGoDIN/q1at5ykxdGoW5jaA6AOrnzIKJ7fCYAAasjSR9+5yAO+bW5lCbH/PDziOUX1RCbcKD6VByerX6N504R4eTL1RLbyoJ4f5+1CEi1OaXa0nvNj+hqNChDZdUCOYgYnoNRp0///zzNHToUPrtt9+otjRSgPwk4G/WrFk89ebw4cP6uYvmCKiyTfaydXH3pJYCxMikUrFfcumiIEncz1Oqoie/Sx5BOk8rSsxJLBezAfIEaij1Jx2h1RQdFfTZ4H4TeG4prjNzy3zSTuGKfegLMTfyINNQ8eeSuXWB4HYtZJUARhh1xysCUihIt2JSeHlZCeXsX03ZmilgddHdsv1/VTu8dUgAvTl+CKfnCcM25UsdEVcWvH9ANxraMYaaCfRqfnEJ/XP5JjqWepGz0bWc3O8K8hZeXMblfHrl5y10Mj2L4oQnAu9ly8kkGty+NWXnF9J/1+2m3WdTZLUEz2pIhxj6dvthWnHA+tkQt/bqQP3io+h89iXqX9GNxHlRt6n24KSf33sDfbBhD+1M0HHVvp96M728cgudvpBFn0++gTzcXMlNTF6fP20Mt/HTzfvptyMJvD+pTxe6uXs78hKTRJPFeaGDtNzqU924sJE3Y3o3UsxmSQ7dVdRqAQgZTHyG7N27lwkOtaWRgowq8cqY6Azj9fHHgnklxBwBlQvY2Vtw/9vIu/UVdF5gsxM/f5QuHd3MukEz01b8h1KW6CZJg+kFmGDGxq/1V2CKjooCuQfXijr/zdRTN/+q/+Ig2Pq170sgql4WRg4ASTHjnusNH/434d35M+m2OOu8mH/aitwF5qg+JSX7Ms1ctpF+OniSYzXac7WPCOEf7PfCW3vo+9VsZEorJr63DGxGDw7syUZs9q/byVUY4X/drJtYjx84uqRdIsNo9q/bqFBMtL+3X1dt1RTWzJfLID6klQW7jhK8FMhK0aZvhGHTSpCvN8fqOou6527aR/O2HKAy0SZz7cHxwaIr56/hXvt6epCPpzsVCGP8vLj+JXuP86R+6AKvrad0oIORneNowpUdhX5OCEP3B8ey0D2EnM3MoR93H6WzF3Mop6CI9/cmVp1wzwUb+M0pPC5gkvHPDtICvKULFy5Q586da00jxVxBCQ/EvqQ74N6YI6CCBGFv4kKV/01FFxIpY+1n+iZiXqir8MAghekJJgmphnRUlAeOGy9QIYxJ7uH1YorXWspL2CsAkP0FMbUtAyC9W3WlnD0/E+gR8O7iHvvB2OE2TSvC/E8RA4sLNd/tTxcehtYzgicFeXXVVv7xe3u40aNDe1NkUDN9+z4WhmX3mRQK8fOhqdd016djZ/2xs3RReGn7EnX8Mpm59tgZuUvbT1elpOgzxM7MpRvZ65Jpd1zVmXeNtSc565IsVm0L/giuPyYkUBhA3b620BjhacHTzM0volbBAXRceJv94iPJUxjnjEv5VQyroZHV1tOQ+05huOAVIZgOfA04VitWrKgzjdTUTdASUGUZdFVBK7VHydq1jHzbXEmRE19mPE2uMBhpK9+xuqk1paPKiguSjvKunPjt5hOg56kV6Jn4gnorJt03puBHulnEvqYJo4PXX2kXRXdwK2XmFVC4vy//oOGxQI6cz+BthIgV4YeuTUM3Et0wrfxx8hzhVRtB/egqasVce8wZLm0dxvZD/LzZHx7QVhN0T88kP+GxFWG5JTsUpzBcW7du5RgX+FZY/7BLly4EiimktjRSycny8PCoctvkRGhjBNQqBe3kA9YASPx8Bgffg8VqSliwBJ6QntePv2MhWGHJmBijoxorVz2tomJNRlmhwDILQ4XFOS7/tU2sTeDFL02RRtl9c/V2evv3nTSoXSt+aoZuEzwpGC90B93Eg59SEf+LDdN5bEhHzAsivyfGGo5uaKzw8v48f4HOZeYaK2IyTRpLbQFz7UE5dHH9vHTfV8T1qku56O5WT0UXEF3Rpxauq55ppymV/Qg7bWBNmvX9998zs/3vf/97nWmk4GwBnXzjjTeyNyefYJojoNakrQ1VFkuP4akhqKWXT+zk04IkKwWLnACTHdBjVAXH38g3Wxa2wTZfkG0DelwnFjvpRs1HPWyDGutWRZvwIOod04IN084z56lEGChfEReCyCA3YlfBIu6EoDm6nYlWGiEYwIcG9+Lgfd1aqTvaUnuSRLuGdGjNcby7+1aNt6GGg0npHFIZKAy01juExxkp4nlDxYMEpDcXnuYtPdvbosn1Vofxv9l6O51tKzb2b/fTTz/RrbfeykH0utBI0VI8mcS4sB9++IHOnDlDjzzyiFkCqm2vzja1+cb1ogCx/qFwDbhCxJwua5YnQ2LWjsUU3H8i+XcZwqsoYU1LSxL/1GI9BhrkWryw+AnWZGSpOJ9hPRlrPmWqKrquAEIiRlZeUmxYrME+twhoRs+M6qM/H56kfb7lIH8+mpLBT90QA8IL37e3hGcG70t+96r7lfqq9GUqU+q2Z649qBlP9h4afCUPxMWTRBZNA3Ft+8+l0ZMjrubXF1sPcsD+ux2HxVPSQB5PJseU4fjFIphvr2IzrA0mWWNIgr1JbWik1lyDOQKqNcc3ZBnw+XmhXYFiNkUybcj24FwYP4Zl7OJmfMdPO3ldxnpuxJT+3WiYGPYwad6KKmdyF11BBNwviEB0XlF1I4puIbwQdPfQpWpsMdceXAu8w/RL1g9lkNeDYDw8L+jhUqHxhy6ybGNvnd5wNbaC1fmragBLpwV0H8nrP/rGX8mZCf+9p2ohG3/C6HQMvOweHU6/Hz3D461sfApVXQNrwKG7ig2sK3U6G2gg7/RusQpUJLmLlbIvrPlEjCur/yEkeEKHp36v/7KNtpkZfmCDy1NVNJAGlMfVQIpWp1EaUBqwnQac6qmi7dSialIaUBqwZw0ow2XPd0e1TWlAacCoBpThMqoWlag0oDRgzxpQhsue745qm9KA0oBRDTQJw9WrVy8aOHCgUQU0lUT3gHAK6DbC5peLet0N6BA2P4kVFVpD4nQmAmr/NlEUY2HSuBVqs8siuK5hHWO5bREBfkxdxRgzKcDvOLThmj9/vp6ACgqq9qWdYzh+/Hi65576HSsklYrt/fffT08//bQ2qdH3fQSVIXzUQzVqhzk6qk/rrhT/+AKKefBTipk+j1qOf75a3c06XUttnllGLcZZHolf7eAaJlhD4nQUAiqQOe9PHM4YG1NqAG4HU3QaSp4d1ZcGVdAy6vuco7vECwqHboxfn7iWPH8UE8GlrBAzBBx6HNdTTz1FXl6CQeTvTy+99BJTIdatW8fXh3mGUt577z0uJz/X97Zdu3YUGhpa36epUf2Y1Jz4xakaHWOKjuri5k4tJ7xEBcnHKHX5bK7TM6x1lbpdPb2p+XWP6KcaVcmspw+WSJyOQkDFpG54HQAbmpLnFgtsUAOObr9CYJ8BGLQHwdwFhzZciYmJrEcYLkhqaiqBnyUFXcTnnhPz9IScPn2ann32Wd4HPQKGDhOn8QKWpnXr1oR5juB5QTAvcciQIQSEM4gQIKvK891www3M5QLWGdTVpUuX0pdffkmjRo1idDSOgSxatIi3M2bM4OlQ8PrGjBlD8AZxHICHL7/8Ms9pw3xItAVARFxD27Ztefvkk08yyRXnP3v2LMXHx/PkbxjjTZs2cf2W3mIf/oqn2JQJMsOZD+/TFw+6ehzz4iWxoTD1FKUue4OKs1PJHB0Vcxph1FIEnJDnGpaVUv7lirlxFbWHC6NVkHKi1ix7fSNruGOMxOlIBNR3bxum97ReHTdQ0HfLaYcgmr712w7WBCZuj+3RjvfnCyDh8gri6zgxKXpcj/YU4O1JKTmXmWiBfQy6BfgP04SeGdmHeoiFOkCI2CsYYaCqYlI5xBQFFhRXeHY4HvXfeEUbyhK01we++YWPe1rU2VewuzDVCAN95/1xgFb/eZostQdARniWMNDeYov2/Fu0B/NArRGH7ipausCjR4/S7NmzGXGj9YDAzvL09KSvv/6aqwgICKANGzboF9qYMGECjRgxgtPeeecdNl4wIFImT57MhuiJJ56gjz76iA0b8rZs2cK0VMzZzM7O5v1Zs2axQUU+DNPChQvpmWee4W3v3r1p4sSJyGKeF4CFABjCOIG4Cs8tJiaG82DswMD/4IMPCOQKYHWsFUx8ztn3K49W1x7j5htI8JQABExd/qbYb0UBva7nIuboqDgGnK7oe98hTLbGYhu+sT31VXtHdRQE1H6UVoGA1mc00o4jEVD/IwwUDArk4437mFT69bZDes2tFVOW8AOHVxYq4IVSgny8mXYKPA9IqYcFcz9R0EtBtIA8JSZWXyGmPIGo+r/1e6ib2L/+injOM0eBXbj7GLcBRglsMZBTZftw8GUxt/M/q3fQ4wvWME0DNIxwQX611J6wZj6EFY5+EkhrwAl7tmpO17SN5vZsOpFI83fpCLH7z6UzdTU7ryq3zakNV15eHtMcsrKqegOsHfEGTwkG5vjx47R+/XrChGwIENBgeyEPhgNkiLi4OPaGMLkaRg9GCPnA3CC2BoFBgfHBtrCwkPfxWXZb4ZVhNaI2bdpw1xVeFzwrKTCeaAuOX7lyJXtiLVq0kNkEYCLOh9WMAE4MCrIOeYwuXZGYYG1KYLQuHftDkCEOkU/rblwMdNRC4TFBJB21JCeNP7v5BTMUsCT3AiXPf0G0s4ya31Rh2F1cqYWgUWTvWcn0Bz6gkd8kATXFQldHElARL4NoCaj40cKAoPtmSEDFNKLl+09QtKCHagUE1F8OnzJKQF1zNIGLgoAqvSYkYCL3CcG0hyRk5DC5VMt+x9QlAA2NAf4wOXrjX4n8vUG3+FDSBQoUOGcI0D2ADfoKzwnXAGM+umsbztO+GeoA54M+SkrLmEGPfWCcpXwgjCCoFVgFSIIPJbfMXHtwPOqG0Vq45xglibb1jYvkarGgyXc7/uT9MxnZXAaGUysO3VXUXkhN9yWWBMYDRgovGCNIs2bNeL9Pn0rcSXJyMq/4g+4ounXwyj777DO6dOkSvfvuu7Rjh86VN9eOxx57jLufMKgwpjCCiNFJyc/P53agTVKQXyJ45pB9+/ZV2YL2umrVKk6r7RtAg+WluvpLL2eKrp3uy2OuvtJ83Rc37ad32FvLWDePCas41q9dHwJzvlAQULHvKggQIFN4R3bgmJi5ehsjz14JqLXRhbabVSzIpTDY6MJhWTF8t2GwJOU0X8SAsyq8GHM6sNSOV8cOos4tQ7l7KokS6FZCTLVH1pl4MVfuCiOdTZ1EPdZKkzVc5hQEAwLDNn36dKPFACzEq2/fvgRjhG6b1nDhWGkEZQXw5hAz+/3332nOnDlstJYsWVKtnCxvbIuu4/nz57kLifxDhyq7EMbK1zkNUVAhhnTUEhEDg5QVF/C2XIAIIa6CaOrq7ScMYTE1v+ExTsMqQ17hsRQ65D5K+vZZTrO3N3skoEJH7m41gzqaIu7kCJY8ZEdCMs0V3U9jYkoHsixwPjCCWokO9ufFQkBOBfK6gyC+zharKclWm2qPrCMiwFfuiu6tX40osVVboq+mae/s2rWLgoODaezYsdx9BGsMazZC0EW76667uLuI4DoC9+gWauXIkSP8VLF9+/ZsoJBXJoKO8KQQT0MdMHiGxk1bh7F9xMMQ57r33nvZM5MPC4yVtUWaKTpq7uH1XH3Y0PvIzcefggfczjGvwrTTdHHjN3Tq7Qn6F5ZDA2DQXo2WPRJQwQQDunmUWH0H3os0BLW9pzA6AAOCfNpVPB2EwMjIrrA5HchzwiO6WgxNAOsLqx1pBR4d0g0XC9GWMbbfQozRQhe2q1ioNzY0iLZVrDpkrKxhmlN5XLL7Jy8SAW5tjAixqIKCAnr99ddlEfas8EF7LFYNwlNGGCtpsNBFBFEV8a3bbrtNH1RHfXIpM1kp4lPXXnstvfnmm2ycHn30UUpISOBuHVDQ6Gqia4pjtec1bIfhZ6z1iNW1IRjDZo2EDLybsD6iFIyrgjADS8SmLIkxOiq6lxfFMmao2/+K4VSan8uIGqN1WfrbNXpQwyXaKwEV9NGJvTvxuoyI+fxj6QZWyuIHb9Fjl/F0ES88dQS2WQpW8jG8s1gZ6BXRrXtFrPQtBXG59cfPkjkdyLILxRJlj4gVjr4Q6zMWim7obR8vZQ8Jaz0+f31/Liapq3DUtd9rY+3BAQjsv3DDAD4W8S60xVpRWBszmsLQBATl0T3TBvjhKcGwIfaEoRQ1ETwdjIqKYkNm7XH9+/fnYR0YSIt1HVNSUghxssYWDIlgsqpY2NURxFkIqHXRtb8YIoGl1BBI1wb40Q00R4E1d07EztCtlTEzc2Vl3gd3juSFdRHcxzqSMrAv8y1tncrjsnSxNc2HR4Run6Hg3wRPGmsjeMII76u2curUqdoeavPjgIHGatT2LoYEVMP2YiyT9kmZYT66bebyDcvb8+dcsaIPXoZiSQeG5bWfZVBem2btPp4W5lt42musLmW4jGnFztIQy0LcTT5dtLPm2X1z8ONAV0QRUO3nVv1y+LRg29e+16C6ivZzL1VLlAaUBqzUgHqqaKWiVDGlAaUB+9GAMlz2cy9US5QGlAas1IAyXFYqShVTGlAasB8NKMNlP/dCtURpQGnASg00CcNlDQH1pptuIuBunFUUAZWoKRFQ3QS7BhgajNuC9BQ4m16tI3gfVIYBbaJ5X77NFINI8XIUcQrDdccddzChQTsiXnsDrCGgTpo0iYYPH649zKn2FQGVyFEIqNZ88SwRUD3F3NjJ/a+gSIG4gYCrNX1QL97HuLYZw3rzvnx7f+0uAixwfM8OMsmut04xjuuaa67hKQaYG2hMGpqAaqwNjZ2mCKhEjkJAtea7YmsCKgalPiGYWqMENtkRxOENF9AwmAQN6gLgf127dtVTE0wRUHFjMHXmtdde40nPmCgtqaWOcNNq2kZFQA2gNwW1AJJXVEJTvlxZRYWm6J8oNLprPE3udwVPdsYgVkD0TgpeVlxYEL02bhBtOZnEk5WzBRX0v+t2E+buSYGXM0TQQ78VzKkVAphnjQDt8n/X9aNAHy+BhSmnUxcy6aWf/tCPdjdFQEXdV8W2pCcFMBBE0UNifmNNBWjmz7ccqOlhjVLe4buKgwYN4onMoJmC0gCsshRTBFTkY+IzWFdANcNwaRfXkMc7y1YRUC8zufOngyfZIGjvqzn6J0ii6JIdS71Is3/dzlQEIIchwA77CHJDl8gwkbdNTDwuoXv7ddVWTWGCBIoyMEJaWSCQy+DjQ1aKNgGmJwVdvN+PJNATP67heluHBNLjw66S2WSKgIoCj4nuX5rANs9evZ2ignQ4c3mguXPKMo60dXiPC3EpwPwwCRqs9m7ddARP3ARJQB03bhxFROgCk/LmYPL0xo0beYENkEdBF3VWAQHVHCAQBFTABP27Da9CQHUVSBqIJKBK/UgCamHqSUpf/QGztkBATZgzCfAuuyWgxllYzkvSP+V1SuwLyAqYr+jt4SZWn+ldjYC6+0wKT1w2xLqAgHpReGn7BE9dK2uPVc5zBQFVK/vPpdHBpHSBegnj8+D4ViGVZFV4fXhpJ0jj+FCBQsZk51kr/mA2FgzrY1qDZ+ac2vM7yr7DG64OHTqwp/X4449ztw8LZ4BZBXa7KcEiF8DTHDt2jIvk5OQ02XmAioB6kTYLzPG0a7rzC0C8V37eSpl5BRTu78sLQMBoQYBMhkT4+3E69mUajAme5GkFuGe8aiJ48veiQL0UCHRMclYuPxUsFthkS9IjWvfHfDJdh50+lqL707F0nKPmO3RXsWPHjmyAMPkYQxkkBhnMK3MCVjygfkDTQHCcM8e4zOnCbF4dCagRNz3FbHpJQDV7rkbMBP3zlo+W0HtrdlF8WDAhjgSB8UJXDwtTQCRLHelStNwpmSa36IaOFDBAkEKtlWnX9qDTAtp3+yfLRHdxrZiInG/VocdSdUZV8vCxspEzi0MbLsSz8MWZLFbdmTp1Kr8uXrxIYLFbEqzEg9WtEdivyYo5lup1pnxFQNUhexC7AuETK+aA456ogfaZu98wgFj1RnY5zZWVeVnCKKKbhxdWvYmx0gBhkQ0A/ib16aJr65WOMaxBXndNtw7dVezRowdhEQvtvx5wykOHDuVgO0imxgioIJhixZ0XXniBl/uC96VdoKKmSrTn8oqAav7umKN/YvWa30SgfIxY8h0vfM/eEst/YREI+Z2rcEqNnkSWMZppIvHb7X8KKmh/WvC3sXwOrH7j5+WhL22KgIqnnd/v/JOfgPaLjxKxtUqvUH+wE+00aawNFrBAkB5wPjDhldRMA4qAWjN91aQ0unxYQgy8+JoIGPXwDmtKFK3JOeyhrEN7XHVVILws7crXda2vqR2vCKj1d8exBmJtBA8SnN1oQS9N2nDV5ouhjnE8DSgCquPdM0stVobLkoZUvsNrYIlYMUeJc2nAoZ8qOtetUFejNKA0YK0GlOGyVlOqnNKA0oDdaEAZLru5FaohSgNKA9ZqQBkuazWlyikNKA3YjQacxnBh7mHbtm0Jq08rqa6B+9vfRWuuW8yvEK9gfYEvrp3DaR/1/48+zXDHr31/8gyPMUyu02cXN3fyDI0mF3cdobNOlYmD2zYPpq+m3MhbU3U1ZQKqKZ0gPUZMPh/WMZaLRAT40YhOseQpRu5LuVkMvp076TpG+8i0xt46/FNFGKrZs2dTbGysXpdz586llStX0pIlSwiDTLWC6T1Ywn7RokWcjNHNIEtglP2OHTu0RZ1q38fNm45kHafHdzxPxWW6ScO4wPs3P0a3x4+j66OHm7ze8JEPUu7hdZSx7nOTZQwzgvqMJ/dmIXRhzSdVsjBotcW4/yPfNpWolrNz/0bF2amaci4U8/d5fPzp9+6kssLLmjzjuyfSMunnQyfp32MG0pQvVuonQWtLSwLqqkONuxo4OF2Y/zjt61UEGilQyjWdjA3czjpBnzDFz5IE1D/PX6BjBeYnXI8W8EBwx9YcTaA+cS3p/gHd6WByOg+Ahf5W7P+LrhXTj2bdeA09t2S9VqWNtu/whmvWrFkMBXz11Vdp586dNHLkSMbcQKMgRoSFhdGLL75IS5cuZYxNUlKS3pitWrWKoYO33347Pf/888zoSkhIaLSbUd8nFhNVqhgtnK+0vJRKykrNnjrp2+eorCDXbBnDTO/I9uQeWBUlhDLB19xBvvG9KWXpG5R3ahf5RHehUoO6Q0QZd79Kr9CwblOfwbjKF6DANuHBAqSXXq2YIqBWU4lVCRi7/39LNtAUgYLGqHztJHOrKqiHQg5tuOBtde7cmdatW0fbtm1j9cAYSYERgjcFSU1N1Y+Sl17YhQsXaNOmTbRlyxZauHAhTZs2jWbOnMnln3jiCerbty93PYuKigiGcc+ePZzXVN6C+02goKvG8uVmbplPWbuW875X8ziKvPM1unx8CzXrPJiAxkn/5b/CEO0mv/b9qPn1j5GrhxeXjXtsPm8T5z1CJTlpFNhjNOUc/F0cu5XT8xL28la+YVGPoL63UubWBRTcf6JMtnq7THgHhgJSgq0JqDjHF5NvYHbW1YI86uLiQgt2HaGFe3SoJOTXhoCK4+IFXfWZUX2ohei2QWBw3/pN1xuoLQEVHhgWw+gcGUrYx1zG+7/62eopRSViStwnm/dze+zhzaENV3x8POtw165dddIlpv5kZGRQy5YtuZ6ePXvS4MGDaf78+bR9+3Y2YMXFxXU6hyMenHtwLeWfPUQtJ/yT3PxD9ZfgIoySq6cPeQtvKXXZbAodPJlCB93Lhis/YT8l/zCTwoZNJQAHASmElF7SYVdcvfzIMySK4p8SXXXh6eX+uYEu/P4xlZcUcbkWY/+PjVpReiVsjzPq8IY5fzOXbSRMPsbKN1qRBFT8KPclpvJqOKUV8wMlARVwv18Pn6Zp13YnEFDv+mwFVxEkyKZ94yPpw/V7GZsMMsMiYbjgoUDMEVBh6CAgoO4SIEIpiC29fstgulRYRG+LCd1AQg/uoMMvoQwIqPAm/ym6baF+PvIw3koC6g/CgE67pkeVvNt6d+TFMGat2ETZgi8/vGOMMLaiiGjsphOJlFNQyOX3n0unH3cfpew83ecqldjRB4c2XJJqCpRNXSU/P5/Cw8OrVQP6hDPTUatdsCahRBgbvKRR0WTxLgwOvCx3/xAKHTqV04DCKUw5wV6Yi4c378vjEJDHr8U7qhOlrZpDLh6eFD78ASoUhNacA7+Rf5ch/BAg+YfnyTeupzyszlugaBADsyUBVc4lBOUURNO9wuj1bxMlHg6EMIEUja4NARXGFUibF5dvJ9ApIDCcUmpLQHWtMJSoJ/FiDn32RyVb/rDg0+MFOSNYYHjZuzj0U0UE2SEhISF11rOvry9dvqwLAgONc+DAAZo4cSL98MMP9OGHH1ZDP9f5hE5QQUHSEb6KktwMQWyu+hDE2OUBDw3JO72Hcg+toZy9q6g4M5maCYMFCR85nfLP7CefGLE4RXQnTvNre7WAEeq6TJxg47fjgicvCahAyfzn1iEcx8FpzBFQZTOkcZFxnwCfyqekCLh/uGGv0XibPN5wGyWoEHhgJOs1zDf12RIBFV3oxMwcelk8vFj84Dh6fHjlwxFTddpzukMbrtOnT/NNRiyqLoKFMmD8zp8/r68GwXqsxzhv3jyKjIykyZMn6/PUToUGzCFXRJ6L4M8bSnlxIZWJl5Qy0UV01QyJ8Gl9BYGcGtDzei4Sft3D5NU8Vhavl23dCKimm1QbAiq49+hG1pRgaomAii7njPm/czd38b7jDDfsHt3cdOPtPKf6N8vOG6xtXkFBAR05coSwruKAAQMYHggqKlb+gWCdxU6ddP/cUVFRHMiXgXnkg00P6CCGQiAdwyggWOJsyJAhhLgWFtJADMzHp2o8gQuqN5MayD/3J3mIWJZnmIjPaAxY3mkRwI+/krwi2givqjMB65x7eD3Xc+qd2+jU2xP4lbbiLU5L+O89lJ942OR56prRJjyIese0YDjgzjPnxRPWMvL11EVQdibo/sgakoC6Q5wTHhfIqRh3Br7WTd3aWrxMSwRUdEExXguxM3ldvp6VgEKLJ7CzAro7ZGeNqklz/vWvf9Gbb75Jzz77rP4waYDeeOMN/dAHcOjxkuO4UHjUqFE8fAJPHlFPYmIi14E1F6dPn87DKZAARv2cOXM4rym9xT+1WN8FxNNFvC6f2EFZ2xZWqEGGoatr5ZIIuvt3HUqtprzPca2znzwouoXnKf23uRR9z9sUfe/bIjBcLozSIdFtXFu9ggZKqS0BVTavXB+Kr0jRqKQ2BFR4RqCsItA+967ruFIsgCHXZawtARWLcDzXuS8bRVSKmNzWU0kVjXa8jdMQUBGjiomJoTNnzvCyZHW9FRiJHxsby4NVsQqQo8tDne6nCbE382WMXzuZMgp1q8HMH/wpRfiEU+LlZLp74/QGu0x38ZSyrDCfEMxvKJnSv5sYIR5Dk+bpngrK87qLwaAgjmJhiryi6k+P4fU0Fyv+wKupKZFUnqM220ixriM8wDTRfbRWzBFQ4WHhOsDMB37akcVpDJcj3wTV9vrVAEand4gIpe7R4fS7GE6AFaeVOLYGHL6r6NjqV61vCA0oAmpDaLlhz6EMV8PqW52tETSgCKiNoPR6PqVDP1WsZ92o6pUGlAbsVAPKcNnpjVHNUhpQGjCtAWW4TOtG5SgNKA3YqQaU4bLTG6OapTSgNGBaA05juMwRUHv16kUDBw40rQWRc9NNN1GXLl3MlnHkTOBiArqNsPkloF6MyWpsUQTUqnfAzdWFSRj+3rq5kz1bRRAGoUIALhzQJrrKAUDe4OUo4vCGC0yu999/n3lab7/9Ni1YsIAw7UcrmHN4zz33aJOq7U+aNImGDx9eLd1ZEnxadaXwUQ/V6HKAr8HId4/gltWO82ndleIfX0AxD35KMdPnUcvxz1cr06zTtdTmmWWCePqPanm2TtASUH3EgFFjIgmoxvIaMg2crumDevEpMcZshhglX1MBAXVohxiTh0kCKgaxQiyd8/21uxh7M75nB5N12lOG8TtsTy200BZzBFR56HvvvUdeXl7yY5PcXv5rGyV+capG1w7iA1jzrt66L788GHialhNeogKBo0ldPpuTeU6iLCC2rp7e1Py6R3hajya5XncVAbX26s0VjK4nFqyhUQLj7Aji0IbLEgEVXcTnnnuO7wNIEtr5jJiP+Nprr1FAQABlZmaSu7tDq8Lsdy324a94ziGoDGc+vE9fNujqcTyfEMQGrxZtqTD1lAADvsH89+jJ75JHkM7TirrjVSoXU0TyxDzF1J/eYm4WjFrKopeZ1VUugID5l3WkWVl5uDBaBYLLZcxbk2XqY9tQBNQ4QSl9bdwg2nIyiUkLmGOIEfm7z1ZCAe2JgGqNrpOzL5lk2FtzfEOWceiuoiUC6tGjR3khjfT0dAoNrRqHefTRR9kL++STT9hwAW3jrJKy+BXK2fcrLz6hvUY330CmNwAWCFKpZ1grCuilw8mkrfgPpSx5hYsDGAiqacbGr/kzvKuyonwxUfodQTJdzN1J39hK8J93VEdGOKcJI2cPIgmoPwnaaKCglmpFElC/F7z6h75fTd9uPyw4/LqZ0pKAekwwu2b/up0A4wMBFQLYH7qkXSLDRN42KiwpIVAktGKOgArvEAIC6jfinFIkARVbEFD/uWIzz1eU+SCg/vvnLbzYhikC6uzV2ykqyF8ewtsFu46SqXNWKeggHxzazbBEQM3LyyNgnceNG1cNBBgXF8eLZ6xYsYLRNc5MOUWXziM40uRXEkYLkD//bsPJp3U3LleUcY5cL+nIsoXpCVVIpkAyu3r5Cg/tJKWv/oBCh9xHzW96khLmTGKETYuxz1H2npUEwKA9SH0QUOV1fbxpH+0W6OUQgVGeek13mcxbeyKggtIqZfvpZLnrsFuH9rhqS0ANDBSehqA/HDt2jG8c6A8l4h+zKQoWupBk0tLLmWyQLOmhNF9Hy0j76R1BLD0gli2bR24+/mwcg64aQ26+QVSYdJT82vURi2Z4i9V+mpN3pH0GfetKQD1yXmecgVTGkzyt2BMBVdsuZ9h3aMNVWwIq+FqAA7Zu3ZrvIQL3zhzjqvUXtYIt5eJa1TEvqVgDsay4gKsuL9JtsbKPq7efMITF1PyGx5hkCs8MsEB4ZfYqdSOgagBcBhdoTwRUg6Y5/EeHNlyWCKjm7s65c+d4bFd0dDTDBc2Vbap5YGWVCaMU0GMUPyUU/UBWhSSWhg29jz2t4AG3c8yrMO00Xdz4jZ5iCpppiehuAj6Y9G0l6NGe9NlUCKj2pHNbtKXqX6ktamzgOswRUD/++GNq0aKFvkXLly8nGLvbbruNvvzyS3rhhRfogw8+YO8LHpgzSsjAuylYrFMoBeOqIEAii0eFMtnkNmvHYl7fECvwAKGc/P0/eAWfiyJQj7r9rxhOpfm51Vas1ldYEejWf7azndoSUCXd1LS/hZEg5nKNK6K+CKjGz+a4qU4DEqwNARWceQTpT506RWUOToRsjK8ghkQgfgUksyNIUyegOsI9sraNTmO4rL1gVa7paUARUJ3vnjt8V9H5bom6IltrQBFQba3Rxq9PGa7GvweqBfWsAUVArWcFN0L1Dv1UsRH0pU6pNKA0YAcaUIbLDm6CaoLSgNJAzTSgDFfN9KVKKw0oDdiBBpThsoOboJqgNKA0UDMNKMNVM305bGlFQCVqEehHo7vGN/o9tEQjre8GghY7pns76hoZXq+nAugQ+B9I/zZR1KllJaEFZI2P7hrF7ahNIxzacPXv358wGl7ibaCAJUuW0IwZMyzq4umnn+Zjcbx8LVy40OJxjlpAEVCJnImAWtvv4ZMjrqbZtwyhYR1jqH1EcG2rseo4kF1vqPijmDG0N026uhKNjiEq/123R6CArqB2zUOsqk9byKGHQ7gIPpIxMZWuLYsymOYDAyalsLBQ7jrdVhFQiTadOEeHky843b2tyQVdHdtS8L8O0eK9x2tyWL2UPZScTq+u2kLxYYH0V5oOoWTtiRzacFm6SPDnk5OTeVoPpvSsXr2aPvzwwyqHnThxospn+WHatGl05ZVXEiCE3brpGFVg2m/YsIFuv/12mjBhAgE+mJubyyTVQ4cO0ZQpU2jUqFHk4+NDWVlZhClF2H/33Xdp06ZNsuoG3yoCagC9OX4I6z2vqISmfLmyyj24f0A3Gio8kGZengRP4J/LNxHggRB0LScLr8BbdG2ArnlFQPxOpmdxF6g+CKg3iy7coHat6MmFa/n8k/p0oQ5icYsXlm0UHlIIvSxAhkdTLlL36HAqKCmlN37ZRnsTU7msubcXbxjA0ENcx12izom9O9EaASUETwxya68O1C8+is4LCmr/ioU0cK0guprSwbie7XlBjgCxIEdKzmWGG2L/dSvbhPPuEiyz2ohDdxUtXTDQzjExMfTVV1/R4cOHafTo0YxqlsfBsMydO1f/uvXWysnIQUFBFBkZyd3Q7777jhfhgPGLjY2lO++8kxITE9kIurq60osvvshV4hggcj799FMKDg4mGMW0tDQ2cvKcjbFVBNTLNFP88B2BgBri603h/r76rwkAhc0rPnsLKioMT3SwP4FymnEpnx4ffpW+rLmducJAQQeY+I0BudhftEfHo8NxQeK8iH11FkRXlJ235QCVibLmKLBBPt7k4+nOpFaUOyw8qMTMHDaCqBPE1fV/JWKXvt1xmFYcMO4kcIEavjm1xwVdHDhwgBYtWkSLFy+mpUuX0tChQ3mLPNzE8+crJwhnZFQnds6cOZMSEhJQnGX69Om8/cc//kEgrMI4wtOScTZACUFVnTp1Kq1fv5569Oih99gqqmjwjSKglhJWAYoLDTSr+/TcvCo/rsHtW3P5V1dtpQLhiXl7uNGjIlYTGdRMX4+tCaj6is3szPvjALPuc8QCF6+MGcie4qXCIjNHEKUKjwgvSHLWJdaHsQNmLt3IXpfMu+OqzrxrSgcXhPHcKIzTE8KAoiuOOGLvWB2R5fudf8pqaPl+2xktVOrQhssUikZLejh+XNeXh5HKz8+nnj176g0XymGVIFNSVFRUxWihXHh4OCEdRguyf/9+3kZFRfFW2ybEzIqLi7nLyJl2+GZIQDWHeJbN1xJQwasHATVy4stMQAX11BQBFQbU3kRLQJ0m0MuItbzy81bKzCtgzwddRxgtiKSdRvj7cZdSm2aKgAoKqq3laKruDxZth3SPbk62OA+uFV1FrcD7M6UDlCvVUFWKRdcVmGx30Qupb6n/M9TjFVy4oAu0apceQ9cN8SUpknKKz4g3nTx5UmZZ3MLoGArqBvZZLq7Rrl07LiLbUhsGk+E57OazIqDyghhuFT/EWBFEhsCoSTF3v2tDQC0QCHEsxCElSuPdybSYkADebV2xrWlgW9ZjuJUGWpuOa8XQBVM6EP5Ao4hDGy4E3vHFwYKvMCRYjRpPC7UBd3hYbdu25QVhkffbb7/VSdGbN2/m4x955BFegOOWW27hp5Pac9bpBHZ0sCKg6sIIWL0nWMSAEMCGR5GYmWvVXZpwZUd6aHAvXr7MqgNEoX2JaRzHwupBnVuGGR0qgMA62nOn6MbBG0oTXdz6kp0JddNBfbXLobuK6K5h3BZW8UEcC3Lw4EHasmWLXl8wbHgaCMHiGDKmZe6fUn+wkZ09e/bQjh07aPDgwfxCPSCtwjszrBOfDdOMVFmvSYqAal699kZAPZaSwQHuV8cO4u9OqhGjFBHgR19M1q3W/slmXajC/FXWPveoaM9vRxJ4oCgGreL7/JZYNg1dRO13u0x4XpZ5urVvh+GRTgESRFcRJFN4YAiOS8HAUjw1xBJliD3J7pzMr8sWxFXw6uFpaWNqdanT0Y5VBNT6u2N4kphxuaBKDKlbVDi9LILxt3y0hCI4P1+s56hDjnuKJ+SmpFh89+vao8PTTLTpnPA28bSxscWhPS6pPATBsfirKUlNtTzOxdSxptLh7cnAv6kyzp6OFawdAdtsSEA1vC8lwns4e7HyD88wH7Efc/mG5W3x2VL3D6tOS8Eit19NuVF+rLbFeKwdFV2+aplWJjSGDsw1zSkMl6kL3Lp1K/3111+mslV6E9EA4kB46oeBkdsceDFUDPLEoFFDDz8nv5Ae+PYXk3fz4qXKhwkmCzlYhlN0FR1M56q5SgNKA3XUgEM/VazjtavDlQaUBhxUAzYzXFhgVYnSgNKA0kBDaMBmhqshGqvOoTSgNKA0AA3Y1HD5eBnHzChVKw0oDSgN2FIDNn2quGVeMIUFudKJc6U05IFMW7ZT1aU0oDSgNKDXgE09rp53XaRZH1+mttFu1CnOpjZR32C1ozSgNKA0YFPDBXWu3KyjiEaE2LxqdbeUBpQGlAZYAza3LmKsH4sYzKtEaUBpQGmgXjRgc8OVkV1GMF63jfAmVxWrr5ebpipVGmjqGrC54YJCn34vlwb29KCTy8Lo77f6NHUdq+tXGlAasLEG6iWCPvM+PxJUWXr9y0v061bzSFkbX4+qTmlAaaAJaMDmhquZrwuFB7vSCx9doq9XOt/kzibwnVCXqDRg9xqweVexmY8usJWQ3JBYMbvXs2qg0oDSgA01YHPDNaC7BzcvPVMZLhveJ1WV0oDSgEYDNu0qbv08hKKbu9KFrDI6crpiXITmZGpXaUBpQGnAFhqwGY8LjekQ40aX8sopKV15W7a4OaoOpQGlAeMasKnHdeyMjn9t/FQqVWlAaUBpwDYasHmMyzbNUrUoDSgNKA2Y1oAyXKZ1o3KUBpQG7FQDynDZ6Y1RzVIaUBowrQFluEzrRuUoDSgN2KkGlOGy0xujmqU0oDRgWgPKcJnWjcpRGlAasFMNKMNlpzdGNUtpQGnAtAaU4TKtG5WjNKA0YKcaUIbLTm+MapbSgNKAaQ0ow2VaNypHaUBpwE418P9s5Rgu1Q/9fQAAAABJRU5ErkJggg==;" vertex="1" parent="1">
          <mxGeometry x="449" y="-20" width="302" height="152" as="geometry" />
        </mxCell>
        <mxCell id="WtjZ9ceoHeIxMGEVFJwQ-238" style="edgeStyle=orthogonalEdgeStyle;rounded=0;orthogonalLoop=1;jettySize=auto;html=1;" edge="1" parent="1" source="WtjZ9ceoHeIxMGEVFJwQ-55">
          <mxGeometry relative="1" as="geometry">
            <mxPoint x="860" y="663.5" as="targetPoint" />
          </mxGeometry>
        </mxCell>
        <mxCell id="WtjZ9ceoHeIxMGEVFJwQ-55" value="" style="shape=image;verticalLabelPosition=bottom;labelBackgroundColor=default;verticalAlign=top;aspect=fixed;imageAspect=0;image=data:image/png,iVBORw0KGgoAAAANSUhEUgAAATcAAABrCAYAAAASGcUKAAABYGlDQ1BJQ0MgUHJvZmlsZQAAKJFtkD1LA0EQht/Tk4BJkYAERJHrVEgkuaSxPKP4QYojKn50l0tMlEuyXE7EzspfIHa24h/QFFrY2CtCFCstRCxVuEbDOptTk6izDPPwMrM7+wJdAYMxSwZQKjt2ZnpCWV5ZVXxPkDEAP8YwZJhVpul6mlrwXTvDrUMS9Toq7jp5vbp97t99mQtp0fhFuP63vyN6c/mqSfWDUjWZ7QBSjFjfcpjgHeI+m5Yi3hNc8PhIcNbjs2bPQiZFfEkcNItGjvieOJJt0wttXLI2za8dxPaBfHlxnmqYchCTmEKajgIdKpKIYxwz5NH/M8nmTAoVMGzDxjoKKMKhaY0UBgt54lmUYZKjEWIVMcqE8Pq3hy0t9wgkSvTUSEvbCAKnLhA6bmnDD/SdA+BcZ4Zt/DgruXJ1LaF67K8BPfucvy0BvlGgccP5e43zxiHQfUez7icvomTI3Dj1JAAAADhlWElmTU0AKgAAAAgAAYdpAAQAAAABAAAAGgAAAAAAAqACAAQAAAABAAABN6ADAAQAAAABAAAAawAAAAB4/HpGAAAu4klEQVR4Ae1dB3xUxfY+SUgP6QlJaAmEJoQuRZCO0hQQBRVBUBCf/sGO7an47IrKQ1GxoKCgoICIyEPpvSi9d0iAhPTek/98Z5nN3WSzWZLdTdjMyW9z752ZOzP33Hu/e86UbxwaNGhQTFYQJ2dHcnJxorzM/DK5Ozg6kIunM+Wm55WJUwFKA0oDSgOW0EAdS2RiLI/C/CLCz5gUFxUrYDOmGBWmNKA0YDENOFosJ5WR0oDSgNJADdKAArcadDNUVZQGlAYspwEFbpbTpcpJaUBpoAZpQIFbDboZqipKA0oDltOAAjfL6VLlpDRQ7Rpwd3Wo9jrUlArUSnDz8fGhhg0bkoPDjf8g3H777dSyZUuzn6f+/ftTly5dzE5viYT33Xcf69tUXvXr16dRo0aZSqLiTGhgxYe+FL0qkPYv8jeRqnZFWR3cfLuOosD+k2uEVtu0aUPz5s2j77//nubMmUO//vorde7cuUbUTVuJ119/nX766SdtEO+///77XHdtxEMPPUSDBw/WBvH+ww8/TM8991yZcADNiBEjyoRrA37++Wf67bffKDAwUBtc6f17772XOnXqZPJ83Ifx48ebTGOrSAdnV2o4cTY5+4Xaqkhyb9yW6t//TqXK8/JwoI4t69DcZdnUYlRipfKwx5OsNs5NKsstrDnV8aknD6t1++STT5KTkxNNnTqV4uPjaeTIkZSVlVWtdTJW+MWLF6l9+/Zlovz9/Skx0fDhffHFFyk5OblM2mbNmlFAQECZ8IoCmjdvTq6urlRcXExDhw6l+fPnV3SKReLXrVtHJ06csEheVc3EwdGJXIIak6ObV1WzMvv8Ot5B5BrWwuz02oQh/jobZc1ONSheqxergZtn8+4UPORJchRfQUjEk4t5Gz1vKlFRITWcNIdil75B2dFHONy77UDy7zWOLnw2kXy73kV12/QjB8c6AhiDKT8lli7/+BIVpOtebM/ILhQ0eBo5udelopwMivv9I8o6+w/nY+pfcHAwrVmzhi5cuMDJFi5cqE/u4eFB//nPfwigADl9+jQBOPLy8ti6e/bZZwlp8NJfvnyZXnrpJT2oAARgncDdLSwsZItQgkKHDh1o+vTp5OnpSfn5+bRo0SJaunQplzFz5kzOT8wS4byPHj1KL7/8Mp06dYpdZhcXF5o0aRLBZUN43bp19QDwyCOP0IABAzif33//nRYsWMD7cFMRV6eO7tbKsp544gmKiYnhNAC9H3/80aDMoiLdgGtcS05ODl/jLbfcYgBukydPZgsMH4a2bdtyXh999BFt2rSJfH19CRZneHg41x2Ai7rjmiE9evSgcePGcdzq1avpq6++4nD8W7x4MYcj7dixY/XhsLD/+usv/bWhzFdffZU/TleuXCG42FOmTCE3NzeuM6xx1KUicajjQqF3vUxuDW4i7BdkJNGFzx8mKi6iBhNmkbOvzmKrf9/bIqiIsk7vFs/Yh5yta2gzChvzBiVv+5H8etzPz3fK7mWUfnQzW17nP5tAxfm5bImFDH+ezs2+dj0OjsKDeZi8owYSLMPC7HS68vMMyk+6RI0f+5YcnJzF8+6kf08S139NaQf/quhSON7tWjtbQYFVJhuZVYeamMhqbmn2+QN0+aeXKefyccpPjeN9HBdmJIqHKZGKcjMFiJW0sfjePIJvdLEAPidPX+EShFFeUgwDl5OHLwX0fYj15yyswBDxYObFnaHLi1+lXLGtd+d0s3QbGxtLt912GwOFfDnliTNmzKCmTZsy+OClatKkCQMW4mHJbN++nQHt008/pXr16nEe8twJEyYwcDz99NP0xRdf6EEPbXoAJQAHXjyA4oMPPkgAMwgAoUWLFvxCLlmyhFq3bk0dO3ak48ePczyAok+fPhQVFUVeXl78Ep85c4bj4DbCTXV0dDSw0FBPXAuALDU1lfdxHBcXx+fhX2hoaJkyZSTKB7Dv3LmTQkJCyNnZWUZxfcPCwlg3AGnUWYLiO++8Q40aNSIA7b///W++VljJUiIjI9mlPnbsGA0bNozBTMa99957tHXrVr5GGYYt6iwBHMd33XUXfzwAbGgzBWBfunSJcD50O23aNCSrUPxuGU1ujaLoivi4Rn87jTKOb9XX5+rKmRS7/C3OI2Htl/zcJm7+Xp8nPtaOLu4MbKl7V1Lcbx+I5zlZhLmRo6uHyEf3SiGN1vLzv2UM+XQcRunHNlPMgmcobf//xMfZm4ryxIfkp39Typ7lAlzFh1O8I/hlnNyhL7OinQeHueFUOnSmoKKktSreauBWlJdFubGnqTArVdzAbN7HMcALkrp3FbmHtxdfrDrk5OVHzgENKGW3uMEaiV3+DmUc3UTph/4id/EwQnw638HbrAsHybVeE7b88GC5N27H4ab+wbI4d+4cN6i/+eabbD0AqCAAGbh87u7u/JKlpKSwZYC4bdu2EUANlhNeqvT0dAY4xAFcYGEByAAmsAwBPJBWrVpxHIAA4XjpIbCupKAcACKsSFiJ3bt3p6tXr7JFh/OlVdK7d28uQ7puAOq///6bX3aZF7ao26FDh3ibm5vL+ziWFhTSGCsT4QBbWJ9btmzh+uKatOCCNBAANqwt1BlpYdHCuoTVBIvs4MGDbPXCApSCuqKNc/bs2Xwd2o/L3r179da0TI/tihUruE7yHgHkd+/ezUlgKUMOHz7M1jY+CABiWIgViQOVPPZ5CdGUuP4b/XOZlxjDzyryyI0/z/sFaVfLZJm8/SdK2vwDZZzYRqn/rCwTXzrAu8Ngyou/QPH/+5TzTNryA2Wd2yuSiamI4r3IT74i7nkR7+MYHklFck9/Vzr3WyDd3c+NXv8qkwoUthmorOQuGwRb/yBt3x/8lYP76dt5OJvymcL8lwJALC7QtSHgZjt5+DAQwqIDQHoJt9erRQ/ybHoz5V45xV9OeW55W3zl0e529913s1sGNxWN2EFBQfzCAdi6du3KP7yYABlIr169aPny5fTMM89wHNJJtw+WCxr/0Vb1zTffsOUneyNh5UDw8kIAfgXiCUS5UmBxSEGZ3t7efJidnU19+/alzMxMOn/+vB5o4bJWVcorEy4pBMADaxQuOOqgFQAw6qOViIgIPtyxo3xrAy43RFqQfn5+fGzqH4ATbj7uFzocAF6wFiEAPNQP4bhn7dq1YysO96YiSfl7BeUnRrN72fTZZRQ89KmKTikTnyEssOsRWHHZFw5czykVpl23J5+mz86glIwiem6cR4Xpa1uCOla/YPEASlNdWxbM8eyLB9lUhxsKc10rMOvRBgEgc/ZvwOZ7cWGBvt0t5gfhioovXWUEVgzanABa6EGVjfSwOODilBb0POKlRFsW5Ouvv+Y2NJkOeeHXrVs3Bs/HH3+cLQy0TUFgFcKVghUGUITlJEW6dfJYblEngAYskv3797OLDGAEuJgjePHLG+pSXpk9e/ZkMJHtjrD84E5qRWsBynB8NCAAmF27dslggy3qUxmBZQZrFi4yrNLo6GjORnaiQNflXU955cGbiP72CXYb/UT7LppH0g+vLwGfa1VFm295gjYzreB5hji6iXZg8WF2CWysjaZiEeYa2twgzOBAlGnsPTFIU+ogKa2Ifl6bQ6kC3L55xZsiGzjR6RidZ1Qqaa08tLrllh1zVIBTfXGzG4m7Z1hc8s6l3CsFqyxl17IyN8Cv5/3coQDrLueS7suPhxCgF9jvYW7j4PaPbvcIy63iLxeAC1YVLAA0lsOyQhsQXg6AF4YrAKAgaHu68847eT8tLY3dS7hfsG5g6UlBGBrB4Zru27eP29sAChAAE17qMWPGsLWGNiII2pcqEoAhwAnAhnY07OPlNldwXeg4gEUJ17kiQfsY9LFhwwbuCEBnwKxZsxiMAVqmBGCNuqGBH/pDebCIoZOqCixmWLOwJtE8IAVuPnQCaxrxaJNEhweaDioSdHahNxSuX+bpPZwc7WVS0KQCsPJuf/s1j8BBRpW7hcspbjb5dBrKzyzO1Qq8EjfRG4qOM7wHHuEdBNg10yfJjj4EdCOvm3rx862PMGPn7DVA8/Ou+D6bkZ3dJCn/02ShS0SbGcAJ44Zw8y5+9Si3LyB7mOn4yhWJr2B+col7hjhYaehk8Ot2N+8nb/0RwQLkjlHSloXkL4DPp9MwDkPvVOr+1bxv6h/cQdnuBdBBu9Xnn3/Op6A9Do3i6AWVInvefvjhB+7xhPuJ85KSktgKQzq8wKNHj2YAwzFcyw8/1PWsAeQwrg5j0WDtQfCCog1MSmmLRh7LtkEAG3p34Z5Jlw7noj1KWmZwHfEDmKJnFrJq1Sq69dZb6YMPPuB0aGyX7qQsgxOKfziWbXpr166VwQQ3E3GDBg2iAwdMu1TQH3qbpf5QX7TLSTFWJuJQL227nmyvnDhxIlvUcOmhR3TqYPydFLTh4RqHDBnC14lwWLbaNDJt6a1HREfyHvECgxHiss7vo8xSDfjoAfUTnQB1W/fldl301htIGa+hmNIOreVnFs9tnnB7tZKwdq74yIdR0KD/4x+A8PKS1/RJClKv8vtQb9gzROKXuPG7Mm3Q+sSlduKSdR5Mtyhn2nM0v1Rs7T10sBZZpTkqdXT1pIhpCylxwzxK+VvXCI/zAgdMJs/mt9DFLybxQMq8JAF8pR8m8fVzEZ0Q6HWVQ0TMKRNfeVgoaLvCC1ha0BaE9hwAgbZBHOnQg4rw0m4QQAY9hXi5pIumzRdWEXpi0YNZE8fVaeta1X18QKDjs2fPltFTVfM2dj6sRLjOsBxh7ZorsPR5mJEAIdnJZe65ptLBCykuzBfPZZbRZPA0MO4TH3PZpmw04XUGbv7KjyLCnCg5vZja3pt4nWfbZ/JqAzdYXt4dhvD4nvOfjjO40RLcMOZNidKA0oB5GggJEMOCfBzpyFnVbQqNWd0tLe+2FOXniEbcdaIbfZUBsCF91tm9YjxcSaN7eXmocKUBpYESDcQmFhF+SnQaqDbLTd0ApQGlAaUBa2pAda9YU7sqb6UBpYFq04DVwE1OMaq2K1MFKw0oDdRqDVgN3Gq1VtXFKw0oDVS7BhS4VfstUBVQGlAasIYGFLhZQ6v2nKcYX+gjhvBoGS+q63LvbNeM5j4wiNycy+/0bxMWRJ0bh1RXFfXl9mvRmCICffn4lqb1qVVogD6upu00DvCh/i3DuVr1vD1pYKtwcqnjpK+mOXrXJ67GHbsCtz59+jAjB0a5YwT/3LlzjbLUVkbfmGaFWQbh4eGVOb1GnVMV1ldHZxcKHDhFDKBuWO3XtPLAKUrLzqUZw3qWW5c720XS2K6ty423VcQT/TvT0DZNuLgn+nWmB7rYpk6jOrSgyT1NT58rrYPBrZvQtH6dOLhrRCj9X99O5O/ppk9mjt71iatxx67ATU5Heuutt+jdd9/lOY6Y7K7lFausrjHhHaPvQQl0o0tVWF+L8nIpZv5TzKNX3XrA/PYXl2+iM/HJ5OdR8vJp6zVn4176z+8lc1K1cbVhv3k9f2odZhm6eKkvc/Qu01bntnx7vjprVcWyMQUKU50wvQpzSfv168eMrqZYcUH8iLmbcl7oJ598QqDpwdxTcJSB4hsC4kdMvzpy5AizwiKssoywONcagmlpwXc8S65B4Zx95pk9FLvsLTEJ3L1C1tfQ0TOoIC2B3ASDBcgOMNgaLLWY5oY4txDdZG8QLOZePcf5uwZHUJjg/888uV1M/O7DHH7gLZPsyJ6RN1PwsGeZtRbzON3CWtKlRS8wv1lVr79A3Iuvtpad93pH20h64JrFdvBSPL31x3Z9US5iOtzLQ26hm8ICCPtJmTn08II/qEjM93QUU+lgZfWMbEBOYv+0AM4ZK7dRRm4eu5XvjOxN289coj7NG1GqsBo/3fAP/XMxVp/3rNH9KcTHi6Yv3UAXk9L04RXtzLijJyWkZxHAqJG/N+UUFHKdsvMKyq1PuHAfUZ8J362iXJG+bf0gen5QNxr7zUrq3qQ+PSmuw/WaO7l48nCuwtSf/qKrohy48tNv60rtG9YT10y0L/oq6wj6NEfK07s559oqjV1ZblqlgV4Ik6ohYOuAVWeKFRfgpV1zAHNMJaCBTUSCHibRA+C+/PJLzrsqjLCcgRX+BQjGFCcxbxeMr5fEhO/cKye5FHNYX53rBjFzBQgNwDKbDqproTtI4vp5Imwmt7c5OJdYSqDNBnC6NWhNcSveZ26+gN4P8jn4B7r5gvR4il3xHgMmGDgcNefrE1pwZ/OpaHp5xWY6n5hKgV7uBjmP7tySogQQvCEsummL19LW09HyEmlIVFMGrt8PnqEvtxxgQANIQAAU7gIUYAm9v2anAJQCerB7G4O8g+p6cBptGxUS/LTnGG0UdYIs3H2EVh48zfvyX5CXBw28KYKy8wvogz93019Hz5OD+DNVHwCUh4szAzLycRf7Xq46JpYDMVf5+o/HJlGcADPoAr9EAeSQZwd2oagGQTR3y36CddtW7A+J0rnNW4Q+Fv99jNMdiImnn/85TqlZOqYbDrxB/tml5QZKb4AZmChgdSUkJNBNN93EDB7ffvsts8yCRht04mDFBcmkKQHttiSuxL6W1cMYIywm2IMRVkvRYyp/S8c5efoJQAKzSj67jzmCdkonOtZX0P1I1ldjZYNl5dLC5zkKTLNS8hIuCqvuqjwsswUtN6y1OnXFh6LfJI6HC4zOh/ifX6ccAbIOdZyJmS/KnG3ZAFhV8gfA0QqsMynRwrr6ZttBeSiArSFbct9u14Xhpe9UqkPiSwEI/1yIFe1Q7jSpVHvWr/tPMZgmZBhOnP9xj7wHRL8dMAQ2WTisr+eXbeTDbWdieGtOfeT52m1WXj6dvprMOnBzFjxvYl8r6GS5IK7d41pnTGxqJg1u05TrduRyAuEHuSA+DvjdiGKX4AbrCh0A4NwH0eHKlSuZCQQ3yBQrbmVuoJYRVp4Pt9gcRliZ3tJbgEw94ZY2fOgTtqISNy0QtO6/m10M1r2ojICOCgKWFnDuQdB5AcFaF7y9YvzF5kgb/VshOiIAWG8M78UfwE3Covp4rY7XzcfdzcCdPBmXxC6etmrHruhYNxIzs8kJPp1GYOVUVo7HlmXzMKc+11uer4crf/xh5fWIrM+nZwsC15Qb0Dozde12CW7gIUObG1hrsU4nFl6piBUXDLMARClYrUorko9Mu2AK4qvCCKvN35L7sNQufP4QL7ID/rDA/pPESkp/lhAUiBZhU6yvpVlmza6bsJRLS8611c1cRLsc6OLRPlfdAovuCeGO4uW+q2NzQo/i+uMXCK5cpmhbC/EpufeN/H2odDuUfBaMXUe3iDDydncVrq6gtxLW0/VIek5emeSm6pMjXFhIXTcXdmcbB+go6rWZFIs1GrSWKuLSsnXl7D5/meZu3q9Nblf7dtvmhrsE6m9wsj322GMVsuJi4RW0n2GhEzDrlu5hBV8YABArNwEEZc9sVRhhrfUkYTES8Iph0RFYU8xXpuHDqwrr6/XWGcsyov0uaOCj5Fa/JfnfOvZ6s7B4ejS2YywXOgn2nNdxwKHtCrI3Oo7qCTcWINVEjEvDUIjzCea7ZVPFEIrH+3SkMF8vi9TbVH3gLgJoh0ZFUrCo8+036drMtAUfvZJA9f3qcieFBDl0nJxLSKFezRpSG9H2CGkhOjLQSWJPYleWm7EvKpaawwIjAC5TrLh//PEHU4+jdxQWH36l88MamljdHYy8YMfF4s5VYYS11oPk2/lOBhNxAdzulrR1EbMZy/IqZH01YoGh97T+uA9kFlR/7Lu8H79mjqbXs6zlhkRIg06F+mPf48V8EGZJokbkV57Ij5A2vmOjevTCTd3093efALQdZy9xksWi4b9LeCi9OLg7H8P6+nidzmWVz4Pxq9SVYER12qJN7sv8tYlM1kckXCsszhHtm/EvOhm9s4adJ5tORhMGEM8eM4A/yI8uXENXUjPo7dU76K0Rvekt4ZpLQVvgxpMX5eENv7Ua5REmzsM1rGlSEStueHg4s+1eb70rywh7veWYmx7LJaLHFEvV1RRBO5xXq1sFzfZUOvvhKJtUCy/1FdFY/s7/dhiUB0sN1k50cjoVGhn+gHYp9Eaiob0miKn6+Ag3OL9QLB59nW4wrgsuLTpGAHh5okPDnsSuLDdzbgzGvp08qRsaYSw9aMQrIxj7ZirfyuRZlXMKxULB+NUEqSdWXncSPaaF2WnkGdlFLMqy2+rVekGM98IQELifP+w6UqY8AAGGiZQnusb1mjP8wVR90IZYWUE7n7G2vsrmV5POq3XgVpOUX1vqkiYW78FCK1gq7/LiV0Q7YOV7FM3VWYZ4afHSz9m4j9uXzD1PpbMfDdQ6t9R+bp26EqUBpQFTGrDr3lJTF67ilAaUBuxbAwrc7Pv+qqtTGqi1GlDgVmtvvbpwpQH71oACN/u+v+rqlAZqrQbsFtxCQ0MpKEg3+rq23l23sBbkEdHRwpfvQM7+YYqJ9zq1eiMx8V7npRlNjhkPGCxdnmBO7sj2zXmcHdJ0ENRLMn3LkADq0bSBwamgqMLvesTuhoKMGDGCxowZQ3JuKKZMjRplmwGj16N4pMVsCEz30srSpUtp/vz5tGjRIvLy8uJR9JhCBnbhhQsXapNWuO9z8why8a9PWef2VphWJsBEd/8e9wm+tRdlkH7r2/UuCug1Xk+BFP/XF5S2b7U+Hjv17nhGDNTtReBzSwNdkhUFjLC3Ct41MPG+sHyj0ZLAxAtWkL8Fi0d1Cjji/jp6jj4V9EJg4gVLByiI7FVGCOCqL6ag7b0YZ/QSwaM34ZYowvSwEzlJNKVXe0FC4EiTv19N93e5iQBwkhkFGcxe/zd9NW4wzwNeuu+E0TxLB9oVuGGWwPjx45lIcubMmUxxNG7cuNLXXGOOwQtXt25dZg2+ePEiffbZZxQbW/ISYooXKJoGDhzIgI2Bwpgva64krPuSHJx0cybNPac8ll7X0GYEjrbkHT9Tyq6lhHRiPo9Btpii5dn8+r6uBhlc5wGmQYGJd6J4ScDEm5yl4yrTZgOuMjmnUhuu9q2rAdBCOTtZzjHEQOOnl6yj2wUFurliV+DWsWNHAh344sWLKTVVN/r8o48+0usCPGuvvPIKk1ACKDBXFIACASgOHz6cwPqBWQwguHzjjTf08w+ffvpp6tatG4EEE/NO3377bT19Ejjd7rnnHj4XE+zfeecdOnz4MOcLMDp16hQzk2Ce4+rVq5ljDpFg/sUPdcnMzCRwxWklOzubywBNE6w8WKXmgBvc0dC7X+WssgUrR+zyt/XZcriYRO8aEikm1/tS5qmdgkTyfWbJbfzYtwyGmCYV8eRiPidx/ddsgfl1H02Yk5q05QemMwK3m6E4UMhdL1Hytp/Iv9cDhlFWPCqPEfZGYuI1xQwM1YFRGIuygCzzspgm9dpvW5hNF8cfC+bfMMH8i2cLFEyYMyq52xqICfMgpQRjL2SPsF4lIzGmbL02rAeTAxSKCbEbT1xkVmF8MOAu9mvZmMk4I4P86KyYZP/eml0Ul1bxVDS4o6+KfCHghEN9pNws5uw+I+rjJup9+BpfnIwzZ4trlzx75qS3HLSaU5qV0wCQMPn4tddeo0cffZTXPJBFwqrDugoAr9mzZ9OGDRto0KBBPKEeafBw/PLLLzR9+nTedu7cma0lxIGevE+fPrzoDEDu119/ZYYQxIWLuaj3338/RUdHMwChnFdf1QEL4sEgEhUVxcSYx44dY1YRY5O5kdaUYGoXgNUcyUu4QFeWvinmlUaTs2+IwSl16gaSR9ObKVW4kwkCuDybdxe03y0Ec0cOgTo8Zc9yMau9WOy/zL+Mk7qH09kvlIoKcgXo/URNnllKofe8JiiVQvV5+/e8j/dTdi/Th1Xnzo3ExGuKGfg2wc57T6eW9Puh0/TGqm1Mi44FWyCwSM8JxpJ/r9jCFiwoyd+481a92h/u0Y48Ba3TM7+sp5d+3UzgppPy9IAu1FDQmX8uKI9WHz5LA1qFMxMw4gF8oDpPzMhhVmCkGyKILM0REGC+KSjdo5PSKUSsnKUVMBpfFQD5/p+7hMtaVxtFS/4+zmzFCFx16IzRKXMGJ5hxYFfgBovr9ddfp6SkJKYYBwsvjiFduogvhgAHWEdgCElLS6MCQRMNYIKgnQsrZjVt2pRcXV3ZeouMjOQ47b/Lly8TyDAlGy9YQiAvvfQSW2VLlizhcmAlSgFzCAARoApga9u2rYwyewtLFOeaA3AAKlAdFZQztxQ0RMnbhXX7z+9MR+TRFC+LjqUXNEmSpRf8a0U5GVxHzA3Filepe1cJS/AtXgchoM9EjqvjHUyw7OJWzjT7eqydEFOvJBNt6bK0bqpk4i0s0nF9aJlv/zh8himR2jUMNsgCLtfOc5eZtbaBn7dBHJh4/3fkLBlj4j0s1nKAgH0D50sxVZ/hwmID9Xi64GBrKMoCQGGtBNCY6yjJd1FaTi5FBvuxVSepm5C3n5j8D8GkerRtaYk029QPpJ1nL9MaUdevxRoU0FffFo04vfz3gQAhtHsdvpTANOQy3NQWHHMg8yzdRBAg5vmCP++TDXt5DYoFOw8ZZLP+xAVad/w8h+1i3Z4yiK/MgV25pVAAXLgpU6aQr68vb0H3DTbexo0bs37AnIsfBC5hRobu5X3yySepb9++lJWVRSkpKbxyFkAOAovw4MGDbMmhswJMu2gvw/nokYWbivMgBw4c4C06Cs6ePcv7WGgGgvQQrM9wvYLrgVWKzoWqSl78eX0WRTnp5OSuc1v0gUZ2wMnmUMeVkjZ/z7HpR9aTd9RA3g8eKtZIyEwmR8FC4hHZlcNcRfubc/Rh5pQzkl21BtU0Jl5T9cGSemjZlIy5UBwWrfEE/5zA4/kThzLQXRLsJq7XKMPrCO8B7jrWgHj2ti70yb0DeQGZBTsOCQvwDOeHNCc0llyMOF+7fB/ATpJ0Aqiqyk/XvoHuncNKZZATYm0Ha4vdgZtUGAAKC7ssX76cwU3Si8Oak/syLWiQAGxr164lrHoF1xLnad1HrKIFl3bo0KE0ceJEmjBhAuePclxcXDgOPbPNmjXjbLFugxRjPF0yztxtq1at9ABq7jnlptMQV5ZJI14YYyy9oA4HeEkpFkv80TUqcbTRwbIDtbmUulH9BQtIqgDDH2RQjdnixa1JTLym6pMmGtJBLvnsLxvK6A9tY7Dgxny5goFovFisBqzC0hKEtfbQ/D+4TQ6uLNZ7+PPoecoTHg4s1cbC3ZQC9uEk0WZnLTkRp6NQB0gCSOH2Wlvsyi2FdYY1S+ESwn1DJwGAC0SUu3fvZldz8uTJFC7ayRB+xx13EDoh0KAPl9bb25vbyGDFaYGtTZs2DH4Ar02bNnFauUbC1q1b+R6BuBIWIdZtQF6lOweM3UhYd1i4BmCKXlPsow5SUAasTrQhIm8ArrWlPJbe9MPrmd0XfGxwQ71a9yFOKyqExWTOfnQP/87NupermPDn5zUS2FC5msbEa6o+oCtHhwHGyWFsGDjo7urQnHUMEMMfONnglt4u2ue0MlgsAo32M3C1HRPrM6DjAEAJAbElVr4HJRTGlAUITrfyhm1o86zsPgANC+CgcwQ923d3alHZrMw+z64sN4BKy5YtadasWawAHMNKO378OB9//PHHBOBC2xcEFhX2sUUvJijEwbILNxPun7S40Eb3r3/9i5566ik+D+1fsPAgyB/A2Ud0OOCHc7DsH4BQisyn9DGsQTnODYCMDg85zg1pAdYvvPAC1wW9pGjPM0caPPgxudYrafNrOn2FsKLS6fwn6MUU7Ly651uTVUlAeSy96Uc2ijVJe+mts3xBglkTrTLNRfGu9iMl42oaE6+p+iwSywBGBPrw2qUYKwcBRfiyfScJbYJD2zal7yYM5XC4fF5BLnoAQw/ro7068DOZLz7gi3Yd1buaH4kFcd67qw8z9Mo8f/lHN36sCP5uJQW9t6Bnl7LisVHMF/fAvJWEFcAmdI/ijwvWirW22CXlEawcWELlWU8AK7iYIKaE1SYFYQAbhJcWuJ6w+DAODZ0RpQW9omAfRpnaPEunu9GPHV3EmqNijdKCjLIrNdXEa7tRmHgrYgaG+wkLLiEjm9d+0Ooa1hzcV7lgjDYOVpKnqzO7gtpwuR8q8gRxJ1zjigRtf87C4ylP4O5WJGA3Rp1gTVpb7BLcrK00lX/N14Bk4m0W7M9ju3afv1LzK13Da4gBtI/17lBuLYd/trTcuOqIsCu3tDoUqMqsmRpQTLyWvy8bxXCNAzG6Hn/L5275HJXlZnmdqhyVBpQGaoAG7Kq3tAboU1VBaUBpoIZoQIFbDbkRqhpKA0oDltWAAjfL6lPlpjSgNFBDNKDArYbcCFUNpQGlActqoFaCG2Yl9OrVy6QmMXuhdevWJtPU9Mg53d+jdYOW0cLeX+ir6uPizWEIf6TFeH24wY6DI/l0GGJxtl1M33L2CxPzuyzz2GGQ6twHBvHK8Ab11xy0CQuizo1DNCHVs1tVJl7MRgAzByaflyf1BAuHuewd1mC+La9e1RVumaesumpfTrn33XcfM9dixL8xATMvpmaZkgceeIAGDBhgKkmNj6vr7EULTi+m8Zsf19c1NS+NBv05mg4nHyN3J+MUSo7OLhQ4cAqzgOhPNGMnZMTzYhZD7zIpnbz8qNEjcyniiUXUaPLnFDFVN/lem7BO3QBq+tyvFD71B22wyX0w8aaJwadg4i1PwMQ7Vkz5qW7B7IKhYjoUBEy8D3S5vjphEC/Yahv6G1IFaa+rdWggPXJrO21QufvI61+9dRT0YL6Vsx/kCWC+jRLsI5ireqOKXY5z69mzJ085ad5cNwev9M3573//y7RGpcPt8bhQTJIvLDYcOZ5fVFAmTHvtRWJSfMz8pwQfXIw2uMJ9t4ZRlJdUQuUjTwgd9SrPaoj+9gnKT7lCHo3LvoAhI1+Syc3eYpJQbWHizRVUQk8JJlrM0bSFVIb51hb1up4y7A7cMAkd06DA8AF6bkx6l6y4cEcxVxNy7tw5ev755/W6wpQsMOhi4npycjIz+uojxY4pJl5tuht9P3T0DHIL0TGbgLwy9+o5viTfLiOpbpt+VJyfyyy+uXFnKW7Fe5SfGkeBA6ZwnKOLGyGdT8dhVJiVQhe/nMKT7THPNXbZm5QvyDOLiwop8/RuAzXB2nP2b0AZJ7aRuxHgM0hc6sAemHjZuhSWHKYmYQrTllMx9ImwnOQMzxl39KRmYmI8BMSUmFsqZXy3NoT1CsSMYbqQmCqDeWuKidcgYTkH18t8W0421RZsd25p7969mdHj+++/p9zcXKYoktrFBPr333+f4uPjKSAgQAbzdtq0aWzNgRIJ4IZ5plJMMfHKNPayTVw/j+J+m8ntbQ7OJW6rk4cPuQQ24jmlcb99IPYbknfHIXzZKTt/YdZecL5lHt/G+7HL3uI4EFxCvNsPpibPLqPw/1tAvp3v5DD8AyAG3/44xf85h8SkXH14VXduJCZeMHvM33GYpi1eS/O3H6L+guJ70DUXFnqYt+0gzfxzN7e3uTmXzO3EHM1RHVsQrnWuYNQFw4dWTDHxWoP5Vlt2Tdi3O8sN7WQgoATPGiaxa1lvQSgJVtyRI0fqCSvlTYiIiKDNmzfTypUrmdYIbLvGRDLxGouzhzCsjVCQdrXcSwGwFRcWUN22A8i9UVtOh0n0+CE8X5wLBl8paG+DuARH0JWfXyfPFrdQQL+HKf2ooI7KSqWgQVP5nIyjm8mzyc3ytCpvMRFc/rD6lVYk3xnCJBOvjNcy8SKsbYMg6lSqQwJMvP+I9Qj8BU0QONK0AibeQME6a4yJV6YDE69WQFaJ9RCwxgDa1mC9NRVrF0i5KKi7r6bryFBlGLY9BGUReNlmrdvDwegk6N5EdNhcEy0T75n4BGbjlXFgvpUC5lt7FLuz3Fq0aMHtbaAngosJdpDgYEOa6NI30sdHWCWC9ePECR3li6Qgl+m0TLygRMJiLZLNV6apDVuAEQAMUsjMu4agYUwHhVk6BpUUsWoWlhgEzxs4l+DiwhL0atmTMo5sIs9mXamObzA51nEhz0jLgZyxOgFMwGf2xvBetOzRkfTUgJLyfNzdCGAiBbTeWMBFK6DRhmBBFnCsaQVU3p9v2kcpWRWzbMjzQAO0ePJwBkpwrDmJ3mQsolKRRNUPNqDzPnU1yeAUMPGifmDiXfLICBoW1dQg3t4P7ArcwOUGkMLaCBjGIWnCwdNmSsDPBu63Ro0acTKch1W0tALuNfSyzps3j8LCwmjChAnaaLUPDYjOCwcnQ70ViDY5CFxWSLFwPbFGA2iTnNy9qbggj/xuGc08cW6hLcjB2ZWCh5Uw+vJJFv4nmW/HfrOSlu0/SX2aN6J2DXQfwMzcPAIrrZRG/j56DjQZVpqfT4Zj2y0ijLCoi3YtA2186X2Az4j2zeiXvSdowneraPrSjZzEGA9d6XMBZt7uJUNDsJCLViQT778WruH1JGBllgZqbXp727crcAMFOB48AM+kSZP4h8ViwGZbkcTExPDYN3RGPP744wbJTTHxGiSs5QdYm8EzsguxK3ptLBsWo4HF59ttFIf73nwnLw2IBZuzxRoLksEX24xjW5hU89ysMVbVpCnm273RcVRPuLEAKZAudo0IpfNihSlzZWq/TvR4n45mrzlQJNzKPLGACxhz4ZpiDdbS1mB5ZW87c4nBCoy7oO1GnbViiolXm85e9w0/szf4VbZv357QJqb9ssKl7NevH3cQzJkzh0JCSgZ0YhV3MO6OHj2aV7/CmqZYxxRWHH5STDHxyjT2sMWiyvXHfaC/lPpjdeME49eIxn5T6y5cOyNZdCwED55K4Y99x72qZz8ezTFxYl3U0NGv68KFW4sVtArS4vXlyB1YdJYWYxaQKebbxXuOURfR9vXiYN0HEUSOH19r05LPlezFNFbXsizHxlKVhCGvJX8fE6ust2aLj1e6EsSTsqzmYh3QD0b11Z/w7sg+vI/Fpv8UK9jvj77KbLsIhEXqXtIPxmudlsfEy5nY+T9FeaS5wVhXAR0LWLWqNJtuRUy8mmxqzO53t35C4V6NKDE3mUatn8D18nXxoV/7L+D9ZRd+p9lHv7JZfZ39w8RqWLFmAaWlKnWjMPE6iSFMYNStDEOtr1jCDz2upZfTgw4rYuK1lJ5rYj4K3GriXVF1qrIGFBNvlVV4w2dgV27pDX831AVYTAOKiddiqrxhM1LgdsPeOlVxUxr4VLRJKandGrCr3tLafSvV1SsNKA1oNWA1cMPQCiVKA0oDSgPVpQGrgVt1XZAqV2lAaUBpABqwKri5uxpOTVEqVxpQGlAasJUGrNqhsH2eHwX6OtLpmELqOyXZVtekylEaUBpQGrCu5dZhbBLN+DKTIhs4UasIq+KoupVKA0oDSgMGGrCqW4qSVm3VsSPU87d6UQYXpg6UBpQGarcGrI44gh2ZRcwLVqI0oDSgNGAzDVgd3BJTiwgAN3qgG5WivrLZRaqClAaUBmqfBqwOblDpc/9Np14dnOnMikB67G732qdldcVKA0oDNteATVr5X37IkwSLC707P4PW7BA7SpQGlAaUBqysAauDm5eHAwX5OdIrX2TQ96tyrHw5KnulAaUBpQGdBqzulnq56wbynr9seSJCdROVBpQGlAbK04DVwa1HOx01aHyyArfyboIKVxpQGrC8Bqzqlu741p8aBDtSQkoRHTt3bUyI5a9B5ag0oDSgNFBGA1Zj4kVJLRo7UUZWMV2KV1ZbGc2rAKUBpQGrasCqltuJCyWLrFj1KlTmSgNKA0oDpTRg9Ta3UuWpQ6UBpQGlAZtoQIGbTdSsClEaUBqwtQYUuNla46o8pQGlAZtoQIGbTdSsClEaUBqwtQYUuNla46o8pQGlAZtoQIGbTdSsClEaUBqwtQYUuNla46o8pQGlAZtoQIGbTdSsClEaUBqwtQYUuNla46o8pQGlAZtoQIGbTdSsClEaUBqwtQYUuNla46o8pQGlAZtoQIGbTdSsClEaUBqwtQYUuNla46o8pQGlAZtoQIGbTdSsClEaUBqwtQYUuNla46o8pQGlAZto4P8BRAYwxnQBn7UAAAAASUVORK5CYII=;" vertex="1" parent="1">
          <mxGeometry x="444.5" y="610" width="311" height="107" as="geometry" />
        </mxCell>
        <mxCell id="WtjZ9ceoHeIxMGEVFJwQ-240" style="edgeStyle=orthogonalEdgeStyle;rounded=0;orthogonalLoop=1;jettySize=auto;html=1;entryX=0;entryY=0.5;entryDx=0;entryDy=0;" edge="1" parent="1" source="WtjZ9ceoHeIxMGEVFJwQ-56">
          <mxGeometry relative="1" as="geometry">
            <mxPoint x="861" y="1031.5" as="targetPoint" />
          </mxGeometry>
        </mxCell>
        <mxCell id="WtjZ9ceoHeIxMGEVFJwQ-56" value="" style="shape=image;verticalLabelPosition=bottom;labelBackgroundColor=default;verticalAlign=top;aspect=fixed;imageAspect=0;image=data:image/png,iVBORw0KGgoAAAANSUhEUgAAAQ4AAABnCAYAAADxPayDAAABYGlDQ1BJQ0MgUHJvZmlsZQAAKJFtkD1LA0EQht/Tk4BJkYAERJHrVEgkuaSxPKP4QYojKn50l0tMlEuyXE7EzspfIHa24h/QFFrY2CtCFCstRCxVuEbDOptTk6izDPPwMrM7+wJdAYMxSwZQKjt2ZnpCWV5ZVXxPkDEAP8YwZJhVpul6mlrwXTvDrUMS9Toq7jp5vbp97t99mQtp0fhFuP63vyN6c/mqSfWDUjWZ7QBSjFjfcpjgHeI+m5Yi3hNc8PhIcNbjs2bPQiZFfEkcNItGjvieOJJt0wttXLI2za8dxPaBfHlxnmqYchCTmEKajgIdKpKIYxwz5NH/M8nmTAoVMGzDxjoKKMKhaY0UBgt54lmUYZKjEWIVMcqE8Pq3hy0t9wgkSvTUSEvbCAKnLhA6bmnDD/SdA+BcZ4Zt/DgruXJ1LaF67K8BPfucvy0BvlGgccP5e43zxiHQfUez7icvomTI3Dj1JAAAADhlWElmTU0AKgAAAAgAAYdpAAQAAAABAAAAGgAAAAAAAqACAAQAAAABAAABDqADAAQAAAABAAAAZwAAAADlSLgdAAAiXUlEQVR4Ae1dB3wU1fY+6b03AiGNauhI7x0BC00s8JAnoCgC+lcRH8oDfSjKU6wgWFARQVSQ/kAEaQLSBIFQUwik997zv9/dzGSz2ZpMQna55/fbnbt3bpn5ZufMuefe841VUFBQBQkRCAgEBAImIGBrQlm9RR0dHfXub8idi99YzLtbvEi1bci+RV8CgbsBAeu74STFOQoEBALKIqCYxSEdVmFhoZS849vGdCx3HIy77ACcHKyooEiMwuvrst8VFoeHhwc1b96crKysFMVx5MiR1LZtW0XbRGPNmjWjJk2aaG3XUJ82NjY0bdo08vLy0lrf0jMXPulCsTt86epmH2oVbGPpp3vHzk9xxeHZcwL5Dp15x05IveP27dvTV199RevWraNPP/2UfvnlF+rWrZtcpHfv3vTxxx/Lv01NPPnkkzRq1ChTq+ksP3ToUNqyZQutWrWK1qxZQ99++22Nsob6dHJyovHjx1NYWFiNuqZmWNk5UPN/fkR2XoGmVq11+br2OWWUI0VGl1LYQ6l07WZZrY9DVNSPgOJDFcemrcnWI0B/rw209/nnnyc8gefMmUMpKSk0btw4ys/Pl3sPDAyk4OBg+bepiVdffZUyMjJMraa1PI5l3rx5dOnSJVq6dCk5OzvTww8/XKOskn3WaFwjw8rahuz9Qsja0VVjT/39rGuf9nZEZy6XUmlp/R2jaJlIMcXh1KIHeY2YTVa2DhzXsOd/4Nu4r+YQlZdR8xmfUuLPb1JB3EWe795xOHkP+AfFrvwnefYcT27th5CVtS1TOv5UkplI8Rv+RaU5abysS8se5DdqLtk4uVF5YS4l7Xif8qNO8336vvz9/WnPnj0UGxvLi61fv55vXV1d6euvv+ZKBcOXn3/+medv2LCBfvrpJ56Gshk8eDDZ2tpy5fDaa69RXFwc3/fUU0/RsGHDeHrHjh3VLAO0ce3aNWrXrh0fGu3evZs+//xzXtbBwYGWLVtGoaGhvO/c3FyaMmUKlZeX0/Tp06miooIWLVpExcXFlJOTQ5988gmvhy99fQ4ZMoSeffZZsrOzo5iYGLmOMQmfIdPJnWEP5VBeXEAJm/5NhfFXKGjaB2TnqbI0mj32FlWwY8y//ifD/j3erENgK2r6yJuUcXQDefV9nKyZdZL552ZKO/gthTy7llL3rqS86yd52bB5GyiBXfvCW5f4b7d2g7hVij4rSosp9cBXlH12t8E+jTkfa3Y9S8uEb8MYrOpSRrGhSmHc35T68xL2p7tMJVlJFL9xIf+U5aZRKfuUF+UxBTFBPlbP7mOpJP02+0OWkY2LJzOHm1Jx+i2uFGycPcln8JO8rB2zXpqMX0jFSTco/odFVMS2AQ/Ol9vRl0hMTKQRI0bQwoULqWPHjnLRvLw8WrJkCe3fv5/frIsXLyZ89u3bx8vgST98+HA6ePAgrVixgiuPF198Ua6/bds2evfdd8na2pp8fHzkfCRgKXTo0IEPjyIjI+n++++XfSu4+cPDw2n58uU0f/58OnXqlLwPfo3MzEyuNKo1WPlDX5+zZs3idVeuXEl+fn7aqmvNcwxsTZ7dHqR0dvPf/HI2pR9ez68HCidv/y8lblnK66XuW8OvZdqhdXI7UBTW9k5caWSd2U5J25az66yyvmxdvJgicqsq6+DMyyIDCsd/zAtUlBLL20zZ+xnZVFo0hvqUG9SRGNDVjl0rosNnS3SUENlKIcBgVkYq2NOqODmKyvKzyMrOkYoSr1drOOvMTvLuP4WsbGzJmlkOdj5BlLZZ9ceUCiZueZs/gRzZn8v1ngE826PbA3ybH3ueHALCucXiFNKJ8CmIPSdV1bqFcnj55ZepR48e1LNnT0pKSiJYDtj+/fff1KpVK14PaXUZPXo0v4GzsrIoJCSEWyywILBWBTM1UEj4lJVpH0NDIcCfcuzYMW5tQGmdO3dOVhLo6+rVq3T58mW5W1hBUGi6RFefGOLguDC8QR9Iw3oxVUqzUyjr9Ha5WnHaLbLOTee/i1JialxPqWDGHxuZpbFF+mlwiwcGHhbxG18jlmDlL8h1jO1TrlCZcHGyovMbvMnezoq2HCii3/4s1iwifiuMgGIWh6Hjyj67i9041nxI4tntIaooKWKm7J9yNZjJMFshUDo2zh5cycASwR/NtXVvcm3Tl1xadKeihGvsCWZ4wdnt27cJfo6JEycShhAYukydOlXuU1cCNzGGMFA2+GCGIj4+njA7Y4zATwGBgoJIMxzff/8997UsWLCAO0Gh2CTBsAWOTVMFDl6IpPykrTHtFCZcpdzLR/iwIfyFTRT0j/+SjatpszG5kYeM6UouY+fZhEoy4iuVhpxdp0RBYQU9syyH+zbGDXagoAAxm1InQI2orJjFIffFxulQEJpSXlxIBTfPk0fX+/nQJEfjDwezF44xKAk77yA23i6kijLm5Kr0c9z6jg1P+BNKs2XDv0tKSrjiGDBgAGGmRRL4FLRJQQFTYmzfM888o223wTxd7aamptKMGTPI09OTnnjiCcIsSt++feno0aMEJde9e3eCH6SoqMhgH1KB8+fP8ySGQNevX6cWLVpIu4zaYoiRzHxGrhEDye++58ir18OEoQmXSnjge9IlZQU5NXbhGlo7uPB8e9/qzudSZsU4h3auUUfOMKJPuWxlopzV2Xu8mPafKqaoX3zp0REO9O63+ZrFxG8FEah5h9ex8QLmALPzbkb8D6OhQDKO/8y99LAmMk9srtGTV7/HuXMUjtLC26qnds6F/Vyh+DInnnXlWBl/bmt75xr1NTPeeecdPkyB07BPnz7UtGlTgt9BEsnH8MADD3BnpXo+rISxY8fyfBbPQ5gGratIazDgy4CygMC6gXz55ZfcysGQw93dna/jgLVkSKAsStkUAoYnAQEBfCrWUB1pv0NAC3Ju0Y0r6/wbzJHJFDUwlqS8OJ8rcPfOIystPCtpl94tfFdu7QZzqxEOcHXh19PWnvj1ZNcQPizXe/rLRWrbJxrATEpJaQV5uir+t5aPTyRUCOh+lNQSodxLB/lwBPP/7E6gm5/PYqZpAm8NPgkMScrZU4qbq2p9wLrA+Ner10RuaWQc2cD3Ft6O5E47b6ZUPO69n+dhmJP112612tqTGJrApwGBFQA/AdZISIJZkqioKJo5cyb/YA3F2rVr+ZoPTNNCWUgKA8MOrAmBbN26ld/kSGPmBR/4K+DwhGhaHNJvrCGZPXu2vB83PWZ9IAkJCbxfODq/++47ngcfiyT6+ty+fTufasbsDYY8xgqGDQEPqY4ZdUqzkintwNpq1TFT4tXnEa4IMCOG2a5qosUKzDy5lVkvsyn0uW+pKDm6WvG8q8eYL2UHeTCnLD6QTPZAyY08LJcz2KdcsmaimCmPiBaK/61rdnSX51gpFR0rBbnpW+YN8zVs7nr25/yKMk9tk6H3HTaTXFr3oZufzeCLjYrTtYyBmfVizxyqmJ2Rhi9yAxqJZe8u4zkL5i/gT29YGpgi1eXM1Kgu/8Q5YSEVbmpYCUqIm5sbwYKB0sAQSpvAIYspWmn6V1sZzTzM5kBRmjodC2c1/EilOakMW+XMe7Rrw2ZX4HTVJhiWwkGOa4kpdqXkveddadJwR8LwZeisDLp+S7sDW6n+7tZ2Gkw1w2Jw7zKayrm18D+teGNsDM+6VmFPtuLUm1p36cvMzs4mfGojUILqQ5vatKFZB+szDLUprTvRrKvvNxa2mao00B4svdrgqu9YpHZ1KQ2+H9eaTckqLS9+kEtvfJFHIYE2FJMolIbS+ErtNZjiKC8ppJwLvzEzdac8eyIdRH7UGSrLVeaJLrUptncvAlm5FXT+GhuzCKk3BBRXHNKQRfOIC8/t4lno0JYNAdSlPP4iFbCPrrrqZU1JK92eKX2LsgIBS0ZAuJ8t+eqKcxMI1BMCijlHESWKuAwhAgGBgOUjICwOy7/G4gwFAoojIBSH4pCKBgUClo+AUBwWdI0dm7Yh57CuDXJGD3ZqRaun3EeOdrr96+2b+lG3EO1MZg1ykJWddGkeQF2DA/ivtk18qG+LoIbs3qS+Qnw8aGjbUF4nwN2Fht8TSva2VbE3xuBuUoe1LGzWimPQoEGEcHN8sLJy9erVijFyYUHVF198QaGMO6OhpK7sVx5s5a3PoGkNcrjbz12j7IIiWnx/P539PdipJU3u2U7n/oba8fSAzvTMQJVCfbxHBM0b2q1Bup7QpQ3N7NfJpL5GtQunuUPu5XV6hgXSc4PvJW+XqllIY3A3qcNaFtb9uKhlgw1ZTeIQRXwHuDGwPBycF3v37jV5lajmcYPABysxjY2I1axfm991Zb9K/W0Niyi2q03XJtdhCzPp1S0H6Z99OpCXsyNl5BfWaOPT388QiHXuVmkd4E0B7lWxP0rgYAzuSvRjqA2zVhzSySGy9NatW1xZIDYFjFi//vordenShcePuLi48OXdCGuX2L5AxIP4k/feUzFagXsU4fCIZUHMh7e3N28eBD9Y/n3x4kXOzoVMRLU+/fTTMj8H+ExB+mNIrFhwVyAjJXIMimBMafaM+CadYldN51G/dWHcwhAlcOIi3j3iSRK3vCUfCs9nq24dmrRkQWeelHftOCVufZf3Cba1Zo8tJVt3xrrG4okqyksp+9xeylILB5Ab0pIoZbh8fqQmJ8oDHVvSlEpL4/ztFFq66w+5tj2jclw4ug9FNPUhpNPzCmn6t7vYEvEKrmRgDfRrGUQ2TOFcT8mgxduPUm5RMYX5etLb4wbSHzdu06DWwZTFrJ1PDpym0zcT5bZhWQxuE0LrT1yk7eevy/mGEhO7tqHe4c0oISuX+lQOY3DMaHtU+3Ca1rsDH5Kl5RXwc7mRkkmhbEiB45n29U4qKi2jjs386JX7etHkL7fztp5n5+FQOcT4YeZD/BDmbPyVknPyeVvzR/SkzmwIZc306tm4ZN4u8DRGdOFuTF2lyliE4gAYWOwFAh7I2bNneRAamL8Qoo4bG0xcCGU/ceIEVzJQDIgqlQTRsJKyQFQtrA3wZiDgDKQ7Erco2NLBDXrjxg1OMwi2sLlz5xqlOLz6TCLH4A6U8ONiTnjk1mEYP05E94P9ysbVm9PxIawdwWFl+VVL5TUZt4qTonl5HH9xaiyj5vsPG6Y8wej+qvsUbN18eURy+pHveZwPiKShaBA86DfsKc7UBSpG0PnBP2LL2NjqKoeuxVFkYho3031dq3OMTOrWljqwm2zx9sOUVVhMw9qGIBaSKTKi0R1acKXwy1/XKCk7j6b360i4Af/DbmLchE7Mn9KuqS+9u+c4TWOWzhO921dTHL6uzryMh5OKvlI6j02nLstBiTv/vkGnYquUDcp4Mouppb8XebEhwerDf5GdjTVXZIEerjRrQBc6dyuZ9lyMppn9O9EbD/bnygG+HWdGcCpZVE4s7epgz7tE+YVbD9GMvp14m8v3nuD5aUxJQl4a3oM6BPnxvvBQmjWwCzv3cNp27jodvh5H2YUqWoVzt1Lox9OXKSvfeJoF3kEDfFmE4oBiwLAFUaiwFsB7ERERQfb29jzaFRGox48f53R+CG1HCLs+QQBacnIyL4K0OjnOo48+yvMvXLjAGcQQFQsuDIlXQ1+7VlTlUipOjaO0/VXHYSz7lTbGLXCXQBGAus/eu6ZpDA7XjD9+4IcGFjbnFvfy8o7N21P2mV2EiGbwiYY9v1Hf4Ru9D9aA9PFzq3480o2GxuLSs+nLo+fldge1bs4tkLV/qPI6spvrXg3n6hp2Y59mN763ixPN0PAf/H7lJqtfQH+xJ7i67L8SK/88Ec0CKHXIwl8OcatD2v1Y9wiefGv3MSosKWWWgg3zP3Sjpp4qKgSpnOY2v7iEridncAxQB2l1gcM4lp27c6VjOTErj1k2LbjiuBifSvhAYtOy+Ee9bmNJW4TigFUAZyZeCwBGLISZIyIWcubMGb5FiDosDFgSdRFwXkBBqb9mAUMlY9i7Mk9t5TctSH5ZI5TDbtjknStMOhxTGbfQeHFKjNxHeWEOI332kLlNwAIG4QxsLACxvmUrc6pCGbz50ACO40FmnazYx7hAmHg4OdJNdkNJcjUpnZv90m9sIxPS+E8MG2xg56vJ0Ru3CJ/aSAFTDBiqqAuUHvKhNCBS3wFuLjxfvayxaU9nB/6Qg3XSt2UzXq2ARUlnNkKrQt85WYTiALcnfBxgB3/sscc4wzhehwBp06YND4vHUAYOTyk8HiHtUDaSwA+iLhKHBkiA1EUasoBXA2amKQI+1ri18zijuBdjdgd5M4htZO5UeL6YmMq4paql51sLZwZC6MFrAt8H/B6Y0cGnvgWWyLwf9nGzfnzX1oSZh/2XY/lwII/5Mpp4VF2HYG8P0hz3S9dF23HCGQnfw6WEVLqVUZOZTFsdKU9SDtJvbOHwxfDIhjney9i1DvX14LvVHcFujvZciYT4uKtX5ekKNv5St7CQmV1QzPf9GRNPqw/9xdPm+FVlO5vj0WscM3hFEQqPVwVgCIE/2SOPPMKtDPglIEeOHOHbK1eu8Le7gV188uTJ1RjAUADh71Au8I1AwUgzOBj2IA3WczB1gcELREDg2TAkLow3Fe8pAf+E9OoAJRi3DPWra38BY1lz73wfI37uSP4jn9NVTNF8OCGxVgEOz5MxKoIn+AogZ+KSKIA95XuFNaVw5gzFdGRMahWZkaEDefjetjR7UFfuJzFU1pj90vHBl4KZIzhRixlBdRxTShhG4P81pkNL8mfHPDIivEaTUGDNvNwo2NtdViBwAkenZtKAVs2pPfP1QNowhQeHrzmJWVsc2p4+eM8JyInhxARjF6ZosR4DAro+yV+xa9cuTieIWRRYKvhotoeZGcTgbNy4kTOd410roBvcuXMnd8T279+ft4sh0I8//sjT+r7gfHQfu4APU1AuP+YsgRFLXQyyX2mxHoKeWMEZ4KV2WszfSuACjfl4Cstiz71KS0bazz2R7Efab19QU/bOFAydQKgDsuiKUu3kQlV1jU9Jyla9BhZiLYjoJWN9limLY1G3eZEfTkZSj9BAenVUb/4bvoIVv53kaena1DgVtcalMmpZdUpeZg7eXyNj6CG22A0ftP8eG1bB+oDsY5bS2M6t+CcuA0Os6o7gg1fjaAib5fnoEZUTfNb6PXw4BJ/J0rEDaSkbrkkCx+jvV29KPxv91uKD3PAmNxD4Yiij/hY36cqEhobWigAH60ZatmzJLRMwhBkr4ErlL51Ki+Ncn8bWq89yWD+CV1qEzfueDaXmKkawgxsmgTn+3v5fdeUICwNPaTy5pZtQ/fzgB8CsBZyGjUFwLDheDH9gMagLZnBKytjLqpiSM1UwzIGTF76VYjala05i1haHMUCDLhDTqbqkNqxZaAv+DX3t6uoPZLzqzkpd5RoiH4zz7p1G8JdcOYffy6eIlWDlWsDWM2AaFkOS79iaCk3BTRbDTH1donIU1r+jVlf/mvnwf6g7bdX3w2dTW8lh09H4mKNYvOIwx4vSUMecH32aMdI3JVu2fiT1N0Z0fPmoIl3nspsBN9Snv5/l43lFGhWNNCoEhOJoVJejYQ8Gq0Xld6go2PUnbKm5EMtGwKJmVSz7UomzEwg0HgSE4mg810IciUDAbBAQisNsLpU4UIFA40FAKI7Gcy3EkQgEzAaBu0JxdO3alfDCaX2C98e2a9dOXxHF9tm6+5F7x+GKtSc1hDfl4a1sbM26lFVvW2OYqCyJAaxPC9WKV12Agq1rNAtUkwQLv0AFAEHdewJ9pF18Gftnk0fyRWVyppkl6v8f1gCAID4FLGDLli3T2tuECRNo6tSpWvdJmVOmTKFhw4ZJP+t168SiUv1Gzja5jyZjX+FvldesaOPqRcFPreYLuIJnrqKwOes0i5Ctmw+1ePkXCp3zXY19tckwhonKkhjAEF4PZaBL2gX60lMs7F4S8IqMYVwekHksonZKj6qHEgLnPjlwhtECdKBW/t5SFbPaWsR0bL9+/fhy4NatW2sF/8MPPyQHBwet++5EJoLK4r6OMrlrx+YdiL9XV6Nm4IRF7G3yTjyAriQzgZxDqv7AUtEm4/4lJRXZYv3k3cQAtmDz75TD4muUkgvxKfTW7j9YTI4HXUtOV6rZBmvH7BUHln7jJc779u2j4cOHU/v27QlcGRAMUUDGA4mOjqZXXnmFp/GFWJa3336bB6oh4hWRsw0heIM7lnjjHbqxq56Uu/TsMY7c2g+RI1aLkqIoaes7VJKVRL7Dnub7rO0dCeWw4rMsP5NurnmasXp58DiVxM3/oZLKZex5jFtDXVwjBrKFXkGUe+UoC2irqVTUy5qS1sVEZU4MYBhCvHpfbxbS78CWv1dQVGoGLdlxVF7RicA5xKNAfmCEQNsYLYAkU3u1Z/taIxqoVrwZmoRCUrvmsDX7ocrAgQN5tOq6des429eYMWNk3BEhC4pAhNj7+FSNMVEArF2wQkD8A8WhGT4vN6JwInHzUsr+aw9franeNBSAvW8wI+NJo6Rty1m6Obl3Hc2LZB7/ieI3LuScGXlsdSfSaAdi79Ocb907j6LwlzYTFJNntwd5Hr6gbPzZsChl76dYJy/n12cCDGBgwMKycl0MYG+ym3MuC68/whivOAMYOyCJAWzH+Ru05vA57iMAAxhEkwGsiAUWImpVXfQxgG1kAXQQMICpL4MHfeE+Fsj2fz/+xpnFEMr/wtDucrMI+QcDGULrfVhciSSIlp3AomVxrgiPx/J6dUF/v7N9kPV/mkZlqN5OY003zGO2Hs8efonc3FzOswG2ro4dO8q9IagN0azjxo0jEPCoS1hYGB06dIiT/oAvFGRADSGF8VdUDkwdnUFp4A3ybh2HkVOw6lygTPBBfkl2MhUlXpdrw78BsfcPY5SES8ilTR/yGTKdkwSB/8Pvvjm8Tu6lQ+QSXnVDyA3UQ0Ji/8K2sTOAgebvb8aL2p5REoLZCwxizVkYvCQgDMJHMwitL3N4wkL5oDJ6F69g6B3OHNOVsuHkJSnJmb3kHxaSMHvFAaIe8Iq+8MILfNgBXgywfEnUf9quE5jLQSsITg5IdnZ2Nf5RbXUaIg83OpQDpCyPWUGYITEgEi9p5rEfKT/6DCcFcmdcphj25EedJte2/Sj90Hfk0qon2Xr6kzUjSXZp2V3mAzHQvOK7GxsDGML8F43pS4UsOjU+M4cQsYpoV0PSoZl/NWZ3+CnUFYeh+ua+36yHKm3btuUKAHwYmEqVHKAg39EnoBFE1GxwcDAvhnoN5ePQd1wG9zEuDiub6rq+lPlAIKD+g1Sw4UgFKwdnqY2TO+fYAElywAMvkWNgG87y5X//S7zsnfiCFQIGMLCBb/7rKiew6RSkonNUggFsREQYBTHyHGNlZv/OFM2GVI9+vpUNV/ZTaq4KR0P1oSjcnVTkxCirbqUYqmsJ+81accCfAXKVadOm0YwZM/gnPZ1pfsY7akjAz4G1HXCsggbQHATh+C4tezB2czY8qVyrASJiWCqevSbwfM/uD3Lna/b5X6kg7gJFvf+w/MmNPMwJfqI/eOSOnW5jYwDLZPSA8J/gg9cyhKgNU/SBdJS9pgH+Ebw+AQxfYC27m6T648vMzrxz584UHx/PlYd06Hg1At6rAmcn2M+bNGki7eJrPUAtOGnSJPrmm2/o9ddfp5UrV3LrAxZIfYv3gH+QV6+Jcjdg6oLEfDIVpoKcryuRwZyk/qPmUOizX/PZl6gVk3jRJPaelMBJS1T5bKiTdWYnlWan1GgGlkhDijkwgK0/cYleH9OHNj01lv+PbmfmkouDnQzT5lnjZVJkie3rz5gE/h4UsKljfQcElpRTVTW5vqUmLJ4BTN+FAzsYnKRRUVEmEw/ra/dO7QO3RkkGe2dIAysIXedrTgxgcIyCcUyT4UvXuUn5nLWcrKr5O6R9lrw1a4ujrhcGVgZmYixFStJ1vzOkIc/RHBnA4pmlURsxt9ca1OYctdW5qxWHNkBEXt0REAxgdcewsbcgFEdjv0JmeHyCAcwML5qJh2zWsyomnqsoLhAQCCiEgFAcCgEpmhEI3E0ICMVxN11tca4CAYUQEIpDISBFMwKBuwkBi1EciD3Bm9XwcmlNEQxgmojU/bdgAKuOoWAAq45Ho/8FRfHRRx/RTz/9RO+//z5t2rSJ1EPrcQKCAYwEA9jArvy//HiPCAI7l6kiGMCqI2b207GLFy/mpDxvvfUWnTx5kkaMGMHD7NVPUzCAEQkGMPV/hOlpwQBWHTOzVhywNiIiIujAgQN0/Phxfma7d++Wz1AwgKmgEAxg8l9CayKckQrPH9mTmjDCYcjh67fovV9VLGqCAUwrZGTWPo7w8HB+ViDr0SaCAUwwgOF/sYlR/ulkAGNRscvGDyJ7tn1/30n69/YjBEpESQQDmIRE9a1ZWxwSqxdC6bWJYAATDGD4X+y/Eiv/PU5EV4/nQZg/QuoXbTtBlxPTeDmwgkkiGMAkJKpvzdriSExkkaBMvL1No5g3FwYwawfn6ldLyy9NBrDUvatYdGwFZwADhykYwHIvHqzBAKalqQbJAgNYXEY2vfnQANo8axy9MKyKztDDyZFupmfLx3E1KZ1zXsgZLBGZoLq5cUPbWFup76KjN27RqoNnCQzixkozFhULThdJaRhbTxsDmLF1LaGcWSsOMJfjovfq1cukayEYwAQDmPSHScnJ52TXIOMxRQQDmCloNbKyIOWJjIwkvFelb9++nLwHU7FgPjckggHMEEL1s7+xMYCBlAcPn9mDulITDxdytLMlvN7BkAgGMEMINfL9b7zxBi1fvrzaO1NWr17Nj3rNmjWCAUzt+gkGMDUwKpNg7nqPOUXxGobVk+/juTdSMmj7eRVPi2AAq4kZciyGAczZ2ZlCQkIoNjaW4BQ1RgQDmDEo1b6MOTGA4SyberjyGZVkNnwxVgQDmLFINdJyUBYYtpgiggHMFLSML2uODGA4u/gs01nABAOY8f8LUVIgoBcBwQCmFx6L2GnW6zgs4gpY4EkIBjALvKgap2TW07Ea5yJ+CgQEAg2EgGLO0QY6XtGNQEAg0AgQEBZHI7gI4hAEAuaGgKKKw8mh+hJgcwNDHK9AQCBgHAKKOkf/+MqLfD2t6fqtMhr8dIZxRyBKCQQEAmaHgKIWR5fJ6bR4TR61DLKhe8IU1UlmB6w4YIGAJSOgqOIAUDuPFHG8ArwVb9qSr4M4N4GAWSGg+N1dUqo6fycHs8JBHKxAQCBgAgKKK460rHKC8pg03JE06BJMOCxRVCAgEGjMCCiuOHCyL3+YQwO62NGNrb707ESnxnz+4tgEAgKBWiBQLx7MhU+6UGEx0bJvcmnPMZYQIhAQCFgUAoorDldnK/LzsqbXP8uldTsLLQoscTICAYGACgHFhyquTqpFYDHxVUzRAmyBgEDAshBQXHH07WTHEUrJEIrDsv4q4mwEAlUIKDpUObbWm4L8rSk1s5wioyvnZav6EimBgEDAQhBQNDq2TYgN5eZX0O0UYW1YyP9DnIZAQCsCilocV2LLtHYiMgUCAgHLQkBxH4dlwSPORiAgENCGgFAc2lAReQIBgYBeBITi0AuP2CkQEAhoQ0AoDm2oiDyBgEBALwJCceiFR+wUCAgEtCEgFIc2VESeQEAgoBcBoTj0wiN2CgQEAtoQEIpDGyoiTyAgENCLgFAceuEROwUCAgFtCAjFoQ0VkScQEAjoRUAoDr3wiJ0CAYGANgSE4tCGisgTCAgE9CIgFIdeeMROgYBAQBsCQnFoQ0XkCQQEAnoR+H9vkXv/WTqflwAAAABJRU5ErkJggg==;" vertex="1" parent="1">
          <mxGeometry x="444.5" y="980" width="270" height="103" as="geometry" />
        </mxCell>
        <mxCell id="WtjZ9ceoHeIxMGEVFJwQ-236" style="edgeStyle=orthogonalEdgeStyle;rounded=0;orthogonalLoop=1;jettySize=auto;html=1;entryX=0;entryY=0.5;entryDx=0;entryDy=0;" edge="1" parent="1" source="WtjZ9ceoHeIxMGEVFJwQ-58" target="WtjZ9ceoHeIxMGEVFJwQ-234">
          <mxGeometry relative="1" as="geometry" />
        </mxCell>
        <mxCell id="WtjZ9ceoHeIxMGEVFJwQ-237" style="edgeStyle=orthogonalEdgeStyle;rounded=0;orthogonalLoop=1;jettySize=auto;html=1;entryX=0;entryY=0.5;entryDx=0;entryDy=0;" edge="1" parent="1" source="WtjZ9ceoHeIxMGEVFJwQ-58" target="WtjZ9ceoHeIxMGEVFJwQ-155">
          <mxGeometry relative="1" as="geometry">
            <Array as="points">
              <mxPoint x="890" y="1280" />
              <mxPoint x="890" y="1450" />
            </Array>
          </mxGeometry>
        </mxCell>
        <mxCell id="WtjZ9ceoHeIxMGEVFJwQ-58" value="" style="shape=image;verticalLabelPosition=bottom;labelBackgroundColor=default;verticalAlign=top;aspect=fixed;imageAspect=0;image=data:image/png,iVBORw0KGgoAAAANSUhEUgAAAYQAAACMCAYAAAB8md4KAAABYGlDQ1BJQ0MgUHJvZmlsZQAAKJFtkD1LA0EQht/Tk4BJkYAERJHrVEgkuaSxPKP4QYojKn50l0tMlEuyXE7EzspfIHa24h/QFFrY2CtCFCstRCxVuEbDOptTk6izDPPwMrM7+wJdAYMxSwZQKjt2ZnpCWV5ZVXxPkDEAP8YwZJhVpul6mlrwXTvDrUMS9Toq7jp5vbp97t99mQtp0fhFuP63vyN6c/mqSfWDUjWZ7QBSjFjfcpjgHeI+m5Yi3hNc8PhIcNbjs2bPQiZFfEkcNItGjvieOJJt0wttXLI2za8dxPaBfHlxnmqYchCTmEKajgIdKpKIYxwz5NH/M8nmTAoVMGzDxjoKKMKhaY0UBgt54lmUYZKjEWIVMcqE8Pq3hy0t9wgkSvTUSEvbCAKnLhA6bmnDD/SdA+BcZ4Zt/DgruXJ1LaF67K8BPfucvy0BvlGgccP5e43zxiHQfUez7icvomTI3Dj1JAAAADhlWElmTU0AKgAAAAgAAYdpAAQAAAABAAAAGgAAAAAAAqACAAQAAAABAAABhKADAAQAAAABAAAAjAAAAAAy7FpiAAAztklEQVR4Ae19B3xU1fL/pG16JwkEQkLo0ssDAUGKUgQbYsNCsYui/6fyfPrsBfvTx7MAPsAKiMgPEFBUQEB674EECISQ3nv9z/ds7rIpm2yS3U2b4bO5955+v/dy5szMuTN27dq1KyUhQUAQEAQEgRaPgH2LR0AAEAQEAUFAEFAICEOQF0EQEAQEAUFAISAMQV4EQUAQEAQEAYWAMAR5EQQBQUAQEAQUAsIQ5EUQBAQBQUAQUAgIQ5AXQRAQBAQBQUAhIAxBXgRBQBAQBAQBhYAwBHkRBAFBQBAQBBQCwhDkRRAEBAFBQBBQCAhDkBdBEBAEBAFBQCEgDEFeBEFAEBAEBAGFgDAEeREEAUFAEBAEFAKOlsTBxcXFks3Vq61XX39V1X/1Zf2xXo1JZUFAEBAEWgACIiG0gIcstygICAKCgDkIWFRC0DrMy8vTThv82JjG0uBgyAAaLQKOZf8Ti4oa7RBlYC0AAZEQmtBD9ug3kTwH3aZ+ZCePrgk9OpND7dfVkc6ubkXn+Df7TjeT5SRDELAFAlaREHwG30aOHn6U9MdCW9xDtX0E3P4m6Vp3Klcmffs3lHVwXbm0qi7sHJ0p4I43KGXdR1SUHldVEZum6YI6kaN3EDkFhlPWgZ+ptChf9R/8yGKyc3KhywsfpJL8bPIaPIWZxhTKPvY7pW3+0qZjbOjOGuLda33LPyjr9C7KOvFnrW//SWYCRcWl1GdqCmVmS6yqWgMoFSyKgFWWmS7BXcglpIdFB1rXxlLWf0Dx3z1DpQW5lH/hiDrPPr7JrObs7B3Iyb892bt4mFXe2oVSfvmE0rZ9Xbkbe36Mdnbk1mO0ynPrPlIdMf6WRg3x7rmE9CJdq/Z1grpNK3u6nFQizKBO6EklSyNgUQnBteMg8h07i7CyBnV4erk6Xlz0JFFJMYU8+CnFrXyDci8eV+leva8nvxH3UfRnM8hn8GTy7DmaNSGOvAoOpMK0OIpd+gIVZSarsu6dBlHAhNnk4OpJJXlZFP/zR5Rzdr/Kq+5PcXYaEf9KS0tUvaKUS4bi/jf+g89L1YrbwdWbcs/upZQNH3NSCQXe9Q45+rRWZVvd9ooaf+65/ZT66zyV5tJhAPle9ygzCx4Pr8qRnhd9yNB2mwcXUPbRjeTW8zpycPOhgoSzlLj8BaquT12bruQ/8Rmyd/VS/RUknqPkNe/yuDMN7Zo6KUqJIferRlHumZ3k4O5LxdmphqKQHvzGP0Uu7Xsz47CnPGaMKevep9JivcLae/j95Nb9WrJ3dleMM2n121QQd0bVN5WHZxx411zGqI1iRsVZKdzmB+o+URH4+I17Ur0L6E/XpjMl/fgqFSZfUNJMdeMxDLyKE49u15D/tdPUO4Lxp2z9mtL2rib3LkMo8Ianyd6p8rtXlJGgWmpzx6tUlJFELm26qAm8pDCPoj9/gLx6jSGPq66lmK+fUeX8ht9LLsFdKXb5S+oaC4LWtzxPLu2uYvgcqDA1li7+7wnyH/2gemftdS7kM+hW8u4/iYpz0ujCgkeqGHnVSU6OdvxuVp0nqYKArRGwKEPIu3iUkla+Rp48wWBSil/zvrqf4qxknmOL1cQJkV5jCD5/u4UKeYJGnoO7Dzn5BlPOuQOUvO1bChj7OPmPmqnacGI1SevJL1Lu+UOUuvsn8r36Ngq6aQ6d+/jOeuHl4OmvJICM3SuolCd17xHTWb3UmQouR1DKxnlqIm9160uUtmURFSVFU3FuhurPwSuQ/Cc9R/l8v5n715DngJvIb8LTFPvFdMN4wCg8/8b3emYH5ZzeQc5tu+vrVtOnnaOOsk9s5jq7yMGzFU+oT5Dv9Y9T8tp3De2aOsmN2kueA28hL7Yx5F8+rSZMrSwmZueQnpT252KFtc/IB8i911jKOrReqdM8+t5A6VuXKEbh0r6PYkaoC1WbqTxiqaSQMYFKCszWd/TD5H/rv+jy/JmqW4y7ODOJMnb9wLhOI3udGzMC/WRd3Xi0MZs6BoybRbnRh+nyj6/ppTcnnSqae/4wxS57kVqNebDSu6e15eQZQG5h/Sjv0in1Xrm07aaYmQOrNx29ArRi5OjJ17wo0Sj49ldJFxBKqduXUs75g/z+TSFixpC260fKPPYHBd/1JuVE7qW0fatZjVegVavx2MrHnsLbOtDmfebXqbFRKSAI1AMBizIEqGWwEi7OSVerwPy4yHJDSz+wjrD6snNw5FWwJ/+HbkfJP71VrkzcqrnqP5ULryg9uo9Qed4Db1THnOgj5BwUrhiKa2gfwg+TQ32oKD2BMvesVE14XX0nufCEAYYASaIkS7/KLkq+aFj5oqBH3wmqPBiCE08U+bGneMLtpX5I0wjpKWUSRR5LFxqZ6hN182OOK+aBlTdW+U5+7bRq1R5LCxl7lijcWEqAtOI1bKqhvEtYf16ZXyQ7XsnacWoxr5g1hmAohHSWxrIObzBOMpxXzMOzhgoL43NmyaMo7TK5MEMHgZlB2kheM5cljUh+3k7ky0xJI3PHo5U3HFm6UUyF1WPFLCUWMKPVqKQgh/C+mXr3tHKlhfl06TtIhkRZEX9pySaPWP0787uYtmcVpe5aocrF/d876ljECx38IKkUMqYV33eTjXLG1oW+1CHYgRJSSujlL7KqKyp5goDNELAoQ6hp1BkH15P/iPuVmA1pAP85syP3GKqV8CSjrbDwn8t7wI2KeaiyLEV4sFpAo/zLZ3jV6aJd1vmIVa5GUP2AUdVEjt6sSuLxuLCKTKOCeJ74ylbAWlpe1JV709JwNNWnCzM4/xufZ1zy1AQLKaO0uNC4arXn2TyZO15zH+VG7jIwBHs3b7UKtndxJ9dOV6v6mDxLyqQdTNhQM0E6wg/3AdUPVG3V5WGSb/3gfH4+Oh5rLKuG9M8CzN65XU/VT0HCubJjlGHcNY3HULCqE5ZEkjd9ySqj6RQ26yuejFMoYe0HBomzqioV0/KYSdeG8O6BcqL21aZajWWf+iCT7hnvQneOdaHJo11o3vKcGutIAUHA2ghYhyGwUtSuim2RJQV5lMv6ZOhaoSLKPLm13P3Z61yVjhYqJKw8UR6rL82OEPPtHKXfL1ep3hclJlsoZfuCogrG2eLsFJWcuOLlasejTbqVO6i6T+8RMxSzSFj2vKoSePd7ZO/G9gRjKlNJgPlou4y07JxT2wg/YyrJ1dsf8tjekvbnIuMswzlW+nYb/0uuXa9Rqh/Pgbcq9RIKmMpz7zNOMYPL86erZ+Q1dKpSnTH3oYLYk6ptXatQJVk5tQpT1/hjzngMhas4ST+wnvBzbd9TqQ0Dxj9BFxY+dqWkiXdPK1Bchod2jSNsCZrdC9dOfm1xUFTIEiTIpV13ZjzH1HmlP8yowAhrQwcjiuhgRBYN76ejG4bphCHUBjwpazUEeHuK5Sk35oT6T6V2XlRgDKm7Vip9rAOvXNPYHlCRfK+ZqvS3MDDnXTqhsjOPbVKMotXoB1gV4caSgSvrcW9XeumK9SteQ33hFBCmGJRSU/E59NnmENQiWK279xyjVGCY7EA5YGTMJGBwVbpxHg/093Z8rA+VsEESdgRMTq6dh7BKLaRSc2rVzQzT82+TlUG7xp1EPFkVJp7nyX4Yq6KuUu3BTuLWdbg6dwrooNRkYMJ5bL8pLSky3Ed1eWD4dqy6gcFVx9tggZFGRenxyjjtPXImG5O7kNfVd2hZioFWN54rBSufgQliMYHJNy/2NG8FTlCLBuOS1b17xuWMz2GbgrTpyjvjYDh2Znw0wgaGIraFQFoFE4JR3nvgTeUYQAHji00PDh6+Kl+ra84xJaOE3Fz075U55aWMIGBNBGq3rDFzJNiPjQk9ZMZ/+D+IHa/gHuWdGZdVbej8oRrCShG7NYwJ0gAMzTDa4RxGPFDepZOUsu078mNm4T1gkkqDuin9UNX6blWg7I/f+KcN3yFAz4/dQ4bvECAAVNzhUeE688Ba8uLJ163bCMrncST99JqyMcBY6jX4dvLoM14/Hv4mAPv+jasbJAzjAVXTJ9r0v3EOBT/2FY+rVKmN7JgBlqdSSt+5TH1rgL7Tq9qGWlahtGz7SjKrgAImv0KtJrNEU0YwKFPENma+QcogrqUXZyQyPt+qy+ryso7+Ru69x1PrmV+osoVsO7JnxqABmrp5Ie/CepwCpryu1FAopKm/qhuPaszEH6ip/EfPpFbXPaRKYLKGzcmYqnv3VLkyTIzr5F2KoAK2sQTf/bbCvZAZmjFdXvGaMhwH36W3d0GtmXHoF0ORVDYuB054ksIeX6LUoGf/bcQADaWqPsnMKVW2BAdemhVXLThWXVFSBQErIGDXrl074zmsXl1ozu2qcxcBY2OH2d9R8uZFvCtjjaE//Cd37zKULnzxIO82akMFKcwseHVbjnh1pmNDNHT9mhqpXL7RxTvv6Q1/z8/Rq1+Msix3yuOBjhk6eWy7tBTBoIxVdqX7r2cHsElg9xc+stNsNWgSK27YRXAPuBdjqi4P5SCBYWKGJFUVQYJx7TyUfMY8QrGf3VuuiKnxlCtU6cKOnHyC1G6pImZeliRH3j2m7Yirql1IAA78/lb5blZVwYy0G0c406dz9Hard7/Kpk9X5JpRS4oIAtZBwCoSgqmhYoXv1e8G1tlidX9lhWVcHqqLguQY46Qr58wgCpIuXLk246ztk8vMKCVFLInApXl3sdTx/5Q6CXYUl/CBrI7S77Kq7nlk7l3F21SX1zCUUvWNSg2F6pStfa9gqnIx7zrDz5K0dms+/bqzgKUEe0pMtdjazJJDlLZaEAI2ZQgw3mHfdvr+deVWqMA75+wB/s/GH5FZmDA5CdkeAfVRHqvZiKWPpFVvsJrttBqEPI/Kz6KgsJQioosrZ0iKIGBjBKzCEDTVUcV7yTvMemsmdOpYIXZCSexxyuWfqbqqYh3+WLq9OgyhZVZJiqLc7frtpqwet/hzbZmgyl0LAtZFAP9XhQQBQUAQEAQEAbKoUXnChAm0YUPNO38Ed0FAEBAEBIHGh4BICI3vmciIBAFBQBBoEASEITQI7NKpICAICAKNDwFhCI3vmVhtRPDoCZfjtqBOgb709YxJhKMpau3tThN6hpvKtll6qL83jekWpvoL8nKn67uHkc6xacaSGN01lDq08lH3MrRjW+rext+Ao6uTI31xzzi6uc+VL7ENmXIiCDACTZ4hjBw5ktasWaN+q1evpvnz5xNsGZYgNzc3+vLLLyksLMwSzVmkDUTngu/+upAru8CG+2hbUGRCKq0/FkVv3jyCMBFVRb2CA+iha/pWlWXTtAk9wmn26AGqz8Ed2tAToziWg7uL1cfQu20Azb21bs/S1OCeGjOQJpYx2adGD6R7B/UwFM0tLKL/bj5A04b0os6BfoZ0OREENASq/p+q5TaBI/zpgN566y120W9PM2fOpIcffpg2btxIxcX129vtyJHPAwMDydubPYY2EkJ0LvWlbB3Gk81xFi4uOVuHmnWrsmzvScotKKKOAb50LLbyV8XbImPoeGxS3RpvBrUCPN2pa9CVFbwtbgnP4e0NOyi8lTedSbDc1/W2GLv0YX0EmjxD0CC6dOkSxcTEKCbwr3/9i0aPHk2//fYb9evXj+bMmUPu7u5UWFhI33//Pa1cuVJVe++99yg+Pp4+/PBDdT1v3jw6ceIEff7557Rw4ULy89Ovol599VUqKSmh48eP08svv6zKjhkzhh555BG1vx6uOj799FP6888/teHQ8uXLacuWLTRixAjVd2xsLD366KOGfFMn/uzAz4v9QMFpHHw+Xf7hFXbkFsH+ex6pMTpX2BNfU8bBDeTVd5xyUQEX4loUMOTBjQS+Eo/+fKahe0T6gt8p+IZy5oA4+fFnKX71uwR/PnBb0WbKK+zUrZfyCJofF8VuQyr7DzI0VsXJ6sP6yGvGWe39vOj920appBxmGDO+Kh/f+oFhvWl0t1DycNYRVrWvrNlGEfH6yQsqpum8wnVhqSM5O5feWr+DohL1HzQumT6Rjl5KpEFhbZTjvR/2naQfD0QYuh4S3pawgj58MYHm/rLTkF7TCVbTb9w8nJbuOUFTB7HzO1Yn/XToNH298xh1CfKjFyYMIV83F8rjsX65/TD9dvK8anLxtIn02Z8HaO95vR+vpQ/eRG+s20HnktJoMY/ViR0YOdjb0fKHblbljeveO7gH3cSqHfQVm56lMEjI1LsVqW48Nd0L8vdFx5lTTMq0QASavMrI+JnhI7QbbrhBJR08eFBNCi+++KKazDFhY1KeNm0asf8mVQYTvr//lRWar6+vgQm8++67Bkbx7bffEpjCggULVL2QkBB66qmnCEwI5dDu7NmzjYeiGMX48eMpMjKSPv74Y4qIuDIxlStodIHQjj7sSTPlr6V04X+zlEM/uPIAIToXIoKBSWSf+kudx1UILuTAoTd9h97JLsaPUtxPb5Zz14yyGYd+JUeODmZM8DoLr7QI9IIId7pWIeTVX4+hJ3swBTNI4Qh26ex3Ct4+ncrCihq3UdvzuPRsenH1Vvr5aBR5uzqXq44JFhPhUpYuZi3dSN/tPk7FZQ7p2nh70KMj+inm8N6vu8mepcPXbxpuqO/DbV0dHkzztx6i/TzpYVLVy4/6Ih7OTkp9FehV3mHgtsiLtJyZB+hwTCKt2H+K0nPy9ZX4r7MT+2NiBgRmsPZIJL2/cQ+lZrPLbM5D/yU8vnd/3aUYE9RNgZ769n3dnMmTmZpGbjruX8eeWplx/Ivvf9XB0+zDsFRhATx2nmX/XUxjr+pAtw/oxvhEMgP5i3QODkqNpbVjajzIh1S25cxFVfS7PcfVeLV6chQEakKg2UgImPChPsJ/MKzuk5KS6KqrriKdTkeLFy+mX3/9lXbt2kXffPMNjRs3jv73v/9Viw0m8oSEBFUG50ePHjWUv+suvTuMY8eOUefOnenUqVMUHh5Ow4YNo7/++stQ7sKFC/TSSy+p602bNhnSzTmB47b0/WsNRc2NzgX3z/Fr9RJPNod11AhShhbsRUszPoIZwMOsZ+/reOLvrbI8ug6lfHbtDG+eIK8+Y9Wxvn8KWJUHG0MHNuZWR4m8IsYErNHILu3V6dsbdqpJ1YUn6tmsJw/28aDYNH3UsS0RF2hTRDQdvBhPMKp24tW9pho5w33+cvysQaLQ2oXaSlNdRSenE35V0TJmGpjENYLxFoziv5v3046oS8xMEuj7B26i4Z1CaOVB0wsAeCzC/Yf6eTMz0Z9rbeIIoy8ko8zcAgrx9aLTLB0NYUYHQ3dBkX6BgHIVx4O0pXtP4KBozeEr2GlpchQEqkOg2TAErOJhBJ48eTINGTKE1q5dS8HBwereDxw4oI7p6elUVFSk7ALVgVJTXlAQe9tkxjNw4EBDUUgLrq6uhmuc7N69u9x1TRd57O8n69R2jgv8kPohKtzlVW/VyqFa9mnzVSHaeBB2EswApMJ2lkUJ0wV1ZB9T+7RiynbhwJHXrEmY/LazbeGha/qoHybzt9bvpNScPArglTcmSqywQScvJ6tjEOviNYZwKk6fhvIgL9crK/TzPNF//udBlV6XP1vLVt5aXU0SOFnWZ3Z+IeXzhF1RAtHKm3uEQRvSx7BOVwL1RCamkjtLGMYMoeJ4zG1fygkCphBoNgxh586dyoZQUFBAd999N/Xo0YMSE/WGzK5du9Llyxzzl1VKMBSnpel1zrApgIloBDuDMWnxBJycnIyTKTU1VV3PmjVLqaPKZRpdgAHVlrBST/j5I7WTCNHAEAgo6Xe9qkq1VUN0ruLc2vdpaowI/KLz16/KUQbqopK8TFPFLZb+/sbd9NHve+naziFKVQL1yYJthxRTwIrcgTcPFLNNJ4wNoyBt8sc582mTFODhRv3aB1Ec6+SPsK2htoQVuzGlsNoIFMaSTnJWrlrBQ+evjQeqLndWU4FgN6lMpaz2qpyakVeg1FDP/ri5cqZRSsXxGGXJqSBQJwSalQ0BCCxdupRg5H388ceVKgeT+p133qmkAuj9Qdu3b1dH6PVhD2jbti3dc8895MC6WmPKzOQgPsw0Jk2apBiHtqMJ6iecP/PMM+Tl5UUeHh700EMPkaenp3H1Wp8784rcreNA5es/J2ovL9eLVIQ444bqE53LuB1zzrNP7yLnoHD17YI32xUcPa/YW8ypX5cyHQN8aGAox2bgCX9v9GUq4qMb691BmnF22pCeyog7pX9XgvrpYqp5TKpvSCDNGtmfZrDR2hIE1VIx63zuGthdjQfGbpBmtL3E4xrVtb2yk9x3dc9KXcIAjvdoBDM+GJc1goQUzPYSfFOAdEgik/t10bLlKAhYDYEmLyFoq3hjhH7++WeaMmWKmuwXLVqktqLiewIQdPyaPWD9+vU0dOhQtasIkgV+FdvDTiV817Bs2TKKjo6mJ598kvbt20fr1q1TBuzhw/VGTaiiVqxYYTyMaqWHcgXLLrACD7p5jiELISKTNy82XOOkxuhcVSyR/Ubcp6LQaQ11nLNanZ7/7/3VBuHJ4Kho2IEESQUBdRAvoLSoUGvGKsfWXh40Z9xgQ9vYWbN4x1F1DXUQdvBAx44fntWHLEmAeWhUKUpdFRJDxWes1a3pCOOxMYEZzdu8j7DfHzucQPj2AvYBEHZYzRo5QH2gh51FioyawL3B7vDM9YPUb8nOo8pG8T0bgzuw9IMdUfiBUP8nI/sF0iqOB2lCgkB9EGgRzu2w8u/YsaNSKeXk6LfuGYMWFhZG58+fN04y6xzfPXTq1IkgSUAlZQnCVk8YfxHHtyS/8lgt0Udt28B2Vex2wtbV9APrKHXH8to2UWX5GUN78xfCoXTvorXl8h0ZVxiKk1gNk1NQmQFhyylWzTG8Am8MkyJW8W19PCk+I1vZEIxvBveCLamJWbV/ljAiQ1IADln55dVVxn3IuSBgKQSavIRgDhD4QO306dMmi9aFGaAxfJtQXbsmO6wmA8bd2kaFq6a5emVBYgmeOpcQhN65TWfCttbMo7/Xq01UxvZNfJDVp10A/X4qulJ7UBNdSMmolK4lwKhcXb5WzlZHqI1MjQf3UhdmgLHDgAxDuJAgYCsEWgRDsBWYza2fouxUyjzyG+kCQjnS3Sb+6O2XSjGX63LP2CmEj8re+WUX7Tqn33tfl3akjiAgCFgWAWEIlsWzWbWGr5dTtn9v8Xsy3stv8calQUFAEKgzAs1ul1GdkZCKgoAgIAi0cASEIbTwF0BuXxAQBAQBDQFhCBoSchQEBAFBoIUjIAyhhb8Atrp9J3sxV9kKa+lHEKgrAsIQ6oqc1DMLgQntxtDGcSvot3ErqZWL9b90NmtQUkgQEASqRKDJMwR8RaxFTFu1apWKS9C6desqb7aqRDjCQxyEpkL1iZhWl3u0c3KmkBn/4Y/l2tSlOk0Nn0Jb43bR6F9upaQ8veO5OjUklQQBQcDqCDR5hoCvhUGvv/66ileA+AaY4LX0mhBs06YNtW9/xYFbTeUbOh8R0xC/wFaEr5TxHQIC9tSFPJzc6XjaKf6i+Ip7ibq0I3UEAUHA+gg0G8VuVFSU8jEEf0PvvPMO3XjjjYQYywitibgIcF8BX0WIZAafQ3BIt2TJEpUOB2NaFDU4x/vxxx+Va+tnn31WObWD7xsEwXnhhRcMnk6t9WisETGt9eQXqSgtjpI26WNABN/9NgfROUKpfy1TtwEHdkE3zTEEv8k6uY3if/6Q2k3/mNP0kkFbrlPKX93mRO5Reebev87eiX0N6d1Vm1tHygkCgkDDINBsGIIGH0JgYgKHjyFQdnY2ffHFF8qPEQLb3HfffbRjxw41wb/22ms0cuRIuu6661RENJS/eFEfbcrZ2VmVQ2AbSBGPPfYYIfoamIS1SIuYlvTHQsphdxFuYf2UDyH0h4hpmcf+oOC73uRJeS+l7VutHM4Zj0WLmJZ1ahtlndxKLiF6D5tO3kHsZ+PKpOzkHUCFHnp9vp2jjtpOfYeK87Ioft1HHA8hnTx7jFTNJqz9gBw4wlrwnW8oF9z5CeeoOMe0SwnjseA83DOU3B3d6FR6ZMUsuRYEBIFGiECzYwjAGL6LtHjIb7/9tnJ9jYkfDuj69OlDiI+AgDbweoqIZyDNA6q64D/wiooYC4MHD1ZeU+HADoFxbEWWjphmatzuXYYQ7ATxP7xMeZdOqWK50YfVsSA5huyzUtQ5IqchRrM55MRSwQ+j/ke+Om9aEPE1nck4a041KSMICAINjECzZAhQDyUn6w2YsCfARoCgOJqn04qRzap6BiNGjFDxDhAPAW2hDhiNNakhIqbp/DgqF0tUGjOwxP0VsTTy/L7X6ab24+nhrvfThpjfKbVAnLRZAltpQxCwJgJN3qhcEZx+/fqpoCNnzpxRaqPQ0FB6+eWXadq0aSrWMsobG5xN+cZ/4IEHKD4+XsVVeOSRRygjw3xVScUx1eYaEdPOfjCZEtZ/QjrW7SNiWjmqQ8Q0xDKwd3Y3NOPg7mc4hyTCgJk2VJf577erxXcEiEkQwWqiD499RsWlxTSwVT9Df3IiCAgCjReBZsMQunXrRrfccgv985//VBHTECRHI+w8groHUc0qEoLdwKgMI7RxxDQwAJ1Op4zKEydOpICAgIpVLX5trYhpuRePsfvqruToFUDeAyYRYi5olM1GYkgIAeNmKaOyvc6Fy9yoZSvvpiUFeeTVdxwhj7mHIa+mE+wsyijMIg+nK2FKa6oj+YKAINBwCFyZGRpuDPXqGTEJQGAEUOnExMTQm2++qQzLkZGRKl7B008/rcpgxQ/S6uAcRuSzZ88qZgGGgW8ZFi9eTN9++y3NmTNHRUqDFJGSkqJiMqOOtchaEdPgutqr9/UU+uiXPMHnqh9zAXUbxTnpatdQ4A1PU/uH56u0/LgoSt9/JWhN2p6fyHfonWxsHkW5F49T7NIXzIYgpyiHOnp2MLu8FBQEBIGGQ6BFREzz8fEhJycnSkxk9UgtKTw8XEVTM2YitWyiVsWtGTENH5cVppqO7IZIbQjQg1CZlqI7OtxMj3ebSQUlBXT3locpOV8fXtJS7Us7goAgYDkEWgRDsBxc0lJdEHBxcFE7juLzEuUDtboAKHUEARsh0ORVRjbCSbqpBwJ5xXl0OTevHi1IVUFAELAFAs3GqGwLsKQPQUAQEASaMwLCEJrz05V7EwQEAUGgFgg0eYbQrl27WtyuFBUEBAFBQBAwhUCTZwimbkzSBQFBQBAQBGqHgDCE2uElpQUBQUAQaLYICEOox6PFtw1wjWGK+vfvT/CJVB3hC+kePXpUV6RSnnuXoSpGQaWMeiXYkZNfcJ3jHlTsulOgL309YxLhaIpae7vThJ7hprJtlh7q701juoWp/oK83On67mGkc3SoVf9DO7YltGOKHOzt6Na+XcjTRaeK9AsJov7t9c4Su7X2p2Edy6s+X7xhKOEnJAjYEgFhCHVEe/bs2SqGApzn4evmYcOGVWrptttuo/vvv79SunHCvffeq9xvG6fVdB4w9lHy7Dm6pmLl8l1De7Ob67nl0rQLn8GTqeNzq6j9g59Th9nfkVe/CVpW2dGOQh9fTB3nrC7nE6lCoXKXkQmptP5YFL158whydap6d3Ov4AB66Jq+5eo1xMWEHuE0e/QA1fXgDm3oiVEDyM8dbjrMp0dH9KPRXU0vDnTscHH60F4U7K0PNPTIiL702LX9VQdTB11FT40ZWK6z/2zaR73aBtBt/bqWS5cLQcCaCFT9P9WaPTaDthFrATEUNmzYQF999RV9+OGH9Pe//125zDa+vU8++YQQV8HSdOm756kkL7NWzcKPkXNw5cnFuU1n8r92GqXuXEFpu1cqf0dwdmdMftfcTY7uplf6xmWNz5ftPUm5BUXUMcCXjsVW/kp8W2QMHY9NMq7SZM+f/2kLZeYXWGz8mXkF9Pcf/qBxzKyEBAFbISAMoQ5I33zzzcpX0vz585VfpO+//56ee+45gqfVgwcPElRFzz//vGr53Llz9I9//MPQS0hICM2dO5e8vLxU9DVHR/Mfge+Q28nnb7eotlJ3LOcgOWsM7YbNWkK50UfJrdMg5awvdecPlMpBdex1rmp1b+fgRAiH2eHp5apO8qYvKePIb+Q75A4qSk+glG3fqvyCpAuGNnECRuJz9RRmGD8of0blMs24WH34TKVS7f286P3bRqn0HGYYM75aV67MA8N60+huoeThrKPcwiJ6Zc02iojXx2WAimn6kF7kwlJHcnYuvbV+B0Ulpqn6S6ZPpKOXEmlQWBuFwQ/7TtKPByIMbQ8Jb6tW4ocvJtDcX3Ya0ms6qa7P2wewU8W++pgay/edojVG9/s3Hscz1w8iF1Y/HasD44tNz6LFO47UNDzJFwQshoCojOoAZWBgIOXn5xuc5J0+fVq1om2BPXXqFL333nvKdxI8rRoTVE2QGhYuXKgYAuwQ5lLm0U10eeWb7L/bgRw8y7fr4OZD7l2u5shm8yn77H7yG34vN2vHjuzyKHbZvyht7yrl1TR22Yt8/SJlndZPiPBvVFKUz4xiGYU/s5La3P4KIU2j1rf8k7K5bEFitJZU72Nceja9uHor/Xw0irxdy0tQXYL86KY+nWkpSxezlm6k73YfZxfaekd8bVjdAtUMmMN7v+4me5ZkXr9puGE8PtzW1eHBNH/rIdofHUf3Du5Rzjerh7OTUl8FepX3vrot8iItZ+YBOhyTSCv2n6L0nHx1XVOfm05F05vMlBw4tre/u6uqo/15mtVACRnZ9N7G3dTWx1NLVscfmHlAggKtYxy+5fsUEgQaGgFhCHV4Am5uboTAORohmhoIq34QAvHArTaC8lSkDh060LZt22jt2rUqTkPF/Oqui7KSOZDNyUqhM7U6mcdZbcGeTZP+WKBiHDi36cRZpSrSGZzalbI7akQ9w6+EQ2aCHFw8SOcfQukH1lHcqrfIJbgb+Y+cofLg3VQXEEqJv3yqri31p4C90sLGEMcr4OooMTOH1h6JVGVRbmSX9qr42xt20l9RMfTNrmNKigj20evlkbkl4gJtioimBdsOKSmhU+CV2A9nuM9fjp+lDcfOqna0P1Bbfb/nhLqMTk5XkzMkE1BNfUJKOXk5mQqKygdP8vdwVWObt/kA7Yi6RF/vOqra0/5gjH+cOq8ud5+LLSdZaGXkKAjYGgFhCHVAHHGajVf2np761V9NQXS8vb1VjIWICL0aA+WLivQTTx2GUamKFvWsOEvvURQxlmsi5Q47P4dStn5D2RyrOfP4Jo7lrDf0Box9jNVQh8k1lFU07bqrptxZJWUcbKem9mubf5pX/9vZtvDQNX3oh4dvoQ+mjCJfN72BN8DTTamQ8soma0zEoCBPd0M3p+L0aak5et9JXq76XT0ocJ4n+8//PEgbT5wzlK/pxJw+q2qjbzv9DqKoRP2ziIjTq7yqKitpgkBjQUAYQh2eREJCglL7aAF1EJwHFB1dvVolPT1dxWxASE8QVEe1sSGoStX+0atWqizCWXZ2lR93UWYyu7y+Iu2UFrCqhFVSGrm270VBNz7LO49uUEkB458g58AwLdsqx/dZxTL5i1X0yR/7KLyVL0FPD8Ikjx1LUM+Awlrpt3lqkz/SyrRLOK1EAR5uNPaqDtSbd++YS+b0WVVbEfF6xqRJL7CbCAkCjR2ByjNEYx9xIxjfmjVrlDriscceUxHVpk6dSgUFBXTkSM0GQATwwbcJsDfMmjXLZneTe5FVFqxz97hqhDIeax1DxeTg5k0e3YezATmQPHqM5CA4evXG2X/fQWc/ul39EtZ+qKqc/+/9KkiOVt/Sx44BPjQwtDUVc+CjvdGXqYiPbjq94X3v+cuqu2lDeiqpYUr/rgT108XUTLOG0TckkGaN7E8z2GhtLtW1zxgeUz6rkWDHgIQzZUBXc7uUcoJAgyFg/haXBhti4+sYkdg2bdpEY8eOVT9EVPvggw8MA12wYAG1bt3acA0GkpeXR3fccYfapvrSSy/RZ59xvGGezPAzl8Kf/ckwmWO3EX4IgRn301v6JqpZHmMnEdQ/QZOeIeJf8pYllLZnFauItigmASkAVJgcw+qjb/XtNcDf1l4eNGfcYEPPCWxHWLxDz6CgDvrt5Hm6mY3O+AH3D3/fq5iHVgHxnMtRhUvkmYqjXa5e2UVNff706GSWWOxUaew2wm8PMy7sflq694TaEYXdTSnZ4v67KnwlrXEh0OQD5GCljVV3QxBUPthGGhUVVatJBqomGJcRutNWkdhqwsde56a2qMJwbSuaMbQ3fyEcSvcuWluuS0dWCUHVkpSVSzkFV9RZWiFsOQ1kewJW4SXVMEGtvCWOde0T9SAhXK7BgG6JMUobgkB9ERAJoR4IYusppIXaEqSCutSrbT+1KV9SkMNbVHNqU6XOZfFlbtcgf+rTLoB+522bFQlqogspGRWTDdcwKleXbyhowZO69ol6wgws+CCkKasiIAzBqvBK41UhgC2d2K75zi+7aBdvuRQSBASBxoGAMITG8Rxa1ChWHdR/yNeiblpuVhBoAgjILqMm8JBkiIKAICAI2AKBJs8QGsqgbIuHI30IAoKAIGBLBJo8Q7AlWNKXICAICALNGYFmwRCc7MUU0pxfUrk3QUAQsA0CzYIhzLv6HdoyYTW92f+ftUatpshUcJOASFdwxdyQBK+giOSFI4Kt4BwRx6qiitG5qipT37SaxmNOxLT6jkHqCwKCgGURaBYM4dEdz9Lz+96ga4KupkCXVrVCqKbIVC5O+khXpibfWnVWj8LhrXxUJK/OHJLSx81ZnQ/p0LbKFitG56qykFGiM/vr/8+d1xFcPZtLNY3HnIhp5vYl5QQBQcA2CDQLhgCojqedUoh5OnnWCjktMpVXBb/8WiM5+YXKL/+5pHQtqdkdIQUhHrClpSD4+1/KbqURMU1IEBAEGj8CzUb5Xlyq9wmkq4M9wVRkqsXTJhocqz23cnO5r2Ov6dSOpnHkLrhQwJe1X+88Rlp0MAR5eWHCEOWyAF+qfrn9sPLBg9fh5YnDlLsFqFQQ0AUfZiHYi+aCwU3nRIum3aBcNsz8ar3Zb1B10blu6tOJ7hnUQ0UZgzO4bWdiaB7H7IWbn4/vGGOQDN6+dQS70ihVvng+/G0PdW/jT/8cP0SpqYo5/WxSKr32818EJmouaZiYW17KCQKCQMMh4MBBXV61VPedO3duMJcMhSVFNDlsEuUV59PBZL0ztPre1+GYBNrDEzZcJv/BLhaMHZS9O3kknWRna/ja9sTlJCoqLlH+9uHm7NOpY5UXznmb9xNcLk/q3YkQWSub/fLcxh46rwpuRfg4azc7QYOTtkMx8cpvD8brzCE17xzYXR21KF5IL2SmgyAsBy7EU0bZhAwnamm5+sheCEmZxI7g5nNgmJFdQsmVPYTCERy+CO7W2l/V+5oDylxOy2LPm91UPah1ENpxH7eDkJWIFbCSxwUPnxgronzBlxAY2qGL8TS+Z0fqyKqrP89crHE8GLOQICAINC0Emo3KCLC/dGAu3RByPa0fu4xGBA2p95NAQJWopLRK7SB0IyZuO/6XxYHVERFry+kLqlwYT5jw2b/oryMq/a0NO1T68E4hhnbiOKwiJvufORoY3DgMaH/FMyomfUT1Mo7Ni4rJ7OgNYRbh/RNSB84xPlBN0bmwSkd0rhBfT9KxvQBSgqbGgYO4yLKYxOeTM1R0MvQBAkNEP+4stcDZXAozl5Ayv/7VjUdVlj+CgCDQ5BBoNiojIP9o1+mUWZhJbx/+N51Mt557BKh3sGqePrQXfTV9kpIcPvhtNyEUI1RIIEgPoGy2QcAvvnEc3/NG9gioX4zjCmOyxkq9NlRTdC4EpYdbZkgTSVk55MCBchD4vSbq3z5IqbjyePyxaZnk6aKjQpaEhAQBQaB5ItBsJASdvY66+3ShT08uor1JBymrMNuqT2z9sSi6Y8H/qWDx2Ob5xKgBqj9NrRTGRloQVuTYxWMc1UuzF6gCFf6gLaiori2LH1whu8rL6qJzoT0wgx8PRND0Jetozsotqg07lnIqkqND+bSHhvelcyyF3LVwNf19BcdqZilFSBAQBJovAs2GITg76L8TSMqzfuxaTPCTenUk+O0/zbFyEzKzlRoHrwmCtMMAexfbAeAHH6tz0L7oOHWs6Y+rk5OK6vXU6IE1FTXkVxedC0biAl7VQwrBuGewVAMmYUywE0ANNY4ZEfz3a7lpHLISdfCDET1UwkAawybngkCzQ6DZqIzCPUPVw8kqyrLoQ4KdoCI58YdhM4f1IaygQbAjzN2wS51D5TNv8z7ChL5k+kSVBmkCBlxQFQG8yqVVivilatX8x1R0LvT3A9srpvIuI0gesFlATVUxathPbEyGMXtU11Cl+nrh//6k73afoJcmDlXB7lH+Ehuk3Z2dah6MlBAEBIEmiUCTj5gG1D8a9Dr19+9Dp9LP0GM7nuMJtqppt27PB1sv37l1JN2/+GdKL9vRg5bAJoL4S+Hi4lJKZL18RcIqHLt04tmADBuCLai66Fz41gD2jboEa4FBOS4927A11hb3In0IAoKA7RFoFhLC3COfUH5xAWWwQdlSNKxjO14tt6eebQPUzh5jZoA+wHIwSZoiqI0aIqqXqQkfQetN5Zm6By09liUDIUFAEGj+CDQLhpCYZ/k4wFD9YL//93uO0y/HzjX/N0HuUBAQBFo8As2CIVjjKeLjLPyEBAFBQBBoKQg0m11GLeWByX0KAoKAIGAtBCxqVLbWIKVdQUAQEAQEAesjIBKC9TGWHgQBQUAQaBIIWJwhuDpX3rffJJCQQQoCgoAg0MIRsLhRecciX2rlY0+RMcU06hH9x1gtHGO5fUFAEBAEmgQCFpcQ+t2TQq8uyKZO7RyoeweL85smAaoMUhAQBASBpoiAxRkCQFi3Xe+jP8jPKs03RZxlzIKAICAINHoErDJjs7scRSaiUjZ6UGSAgoAgIAi0RASswhCS00sITOGO612ogmPNloix3LMgIAgIAk0CAaswBNz5c59k0oh+ThS1uhU9PsW1SYAhgxQEBAFBoCUjYDWr74sz3Qmhf9/5Kot+3Wl+UPaW/DDk3gUBQUAQaEgErMIQPNzsKMDXnl76Iou+WZfXkPcnfQsCgoAgIAiYiYBVVEYervqP087HSvxdM5+DFBMEBAFBoMERsApDGNZHH1UrMVUYQoM/YRmAICAICAJmImBxldHOxX7ULtCektJK6OS5sv2nZg5GigkCgoAgIAg0HAIW93baNdSBsnI4/m6iSAcN91ilZ0FAEBAEao+AxSWEiGjbxA+u/a1KDUFAEBAEBIHqELCKDaG6DiVPEBAEBAFBoHEiIAyhcT4XGZUgIAgIAjZHQBiCzSGXDgUBQUAQaJwICENonM9FRiUICAKCgM0REIZgc8ilQ0FAEBAEGicCwhAa53ORUQkCgoAgYHMEhCHYHHLpUBAQBASBxomAMITG+VxkVIKAICAI2BwBYQg2h1w6FAQEAUGgcSIgDKFxPhcZlSAgCAgCNkdAGILNIZcOBQFBQBBonAgIQ2icz0VGJQgIAoKAzREQhmBzyKVDQUAQEAQaJwLCEBrnc5FRCQKCgCBgcwSEIdgcculQEBAEBIHGiYAwhMb5XGRUgoAgIAjYHAFhCDaHXDoUBAQBQaBxIiAMoXE+FxmVICAICAI2R0AYgs0hlw4FAUFAEGicCAhDaJzPRUYlCAgCgoDNERCGYHPIpUNBQBAQBBonAv8fBIsOlt66v8sAAAAASUVORK5CYII=;" vertex="1" parent="1">
          <mxGeometry x="441" y="1210" width="388" height="140" as="geometry" />
        </mxCell>
        <mxCell id="WtjZ9ceoHeIxMGEVFJwQ-239" style="edgeStyle=orthogonalEdgeStyle;rounded=0;orthogonalLoop=1;jettySize=auto;html=1;entryX=0;entryY=0.5;entryDx=0;entryDy=0;" edge="1" parent="1" source="WtjZ9ceoHeIxMGEVFJwQ-59">
          <mxGeometry relative="1" as="geometry">
            <mxPoint x="861" y="859.5" as="targetPoint" />
          </mxGeometry>
        </mxCell>
        <mxCell id="WtjZ9ceoHeIxMGEVFJwQ-59" value="" style="shape=image;verticalLabelPosition=bottom;labelBackgroundColor=default;verticalAlign=top;aspect=fixed;imageAspect=0;image=data:image/png,iVBORw0KGgoAAAANSUhEUgAAANQAAAA7CAYAAAADzKRPAAABYGlDQ1BJQ0MgUHJvZmlsZQAAKJFtkD1LA0EQht/Tk4BJkYAERJHrVEgkuaSxPKP4QYojKn50l0tMlEuyXE7EzspfIHa24h/QFFrY2CtCFCstRCxVuEbDOptTk6izDPPwMrM7+wJdAYMxSwZQKjt2ZnpCWV5ZVXxPkDEAP8YwZJhVpul6mlrwXTvDrUMS9Toq7jp5vbp97t99mQtp0fhFuP63vyN6c/mqSfWDUjWZ7QBSjFjfcpjgHeI+m5Yi3hNc8PhIcNbjs2bPQiZFfEkcNItGjvieOJJt0wttXLI2za8dxPaBfHlxnmqYchCTmEKajgIdKpKIYxwz5NH/M8nmTAoVMGzDxjoKKMKhaY0UBgt54lmUYZKjEWIVMcqE8Pq3hy0t9wgkSvTUSEvbCAKnLhA6bmnDD/SdA+BcZ4Zt/DgruXJ1LaF67K8BPfucvy0BvlGgccP5e43zxiHQfUez7icvomTI3Dj1JAAAADhlWElmTU0AKgAAAAgAAYdpAAQAAAABAAAAGgAAAAAAAqACAAQAAAABAAAA1KADAAQAAAABAAAAOwAAAAA1TsQOAAAUPElEQVR4Ae1dCXgUVbb+k066s69kIYQtQNhBAdkFAVmUVRAeDCjo4Pf8RHnyOSrL6ICjos4bR56jKKioKAoOIILoKKAsAwoo+yZryMKSnez7O+c01XQn3dUV6UCnqcPXqaq731P3v+fcU/dcvOLj46ugk84BnQMu4YC3S0rRC9E5oHNAOKADSh8IN5QD3l6AyUh/PJR8PLRfNbrVoUMHNG/eHOvXr68RpzWgS5cuCAoKwrZt2yxZOnbsiD59+sjzwYMHsXPnTktc9Zvu3bsjODgYmzdvrh7l8c8MpH0rIhAR4o1fj5dj9FM5HtlnTYAK6zEOPkERyNi89KYz4auvvrK0IS8vTwbwW2+9ZQlzdDNkyBDwgL4eQI0bNw4xMTE2gIqKikKrVq2QkJCAxo0bqwJqzJgxiI6Odgmg/Jt2QkSfSUhdMcdRl10efj3jYNxAk4Bp2BM5OHKm3OVtc5cCNQHKLy4RPqEx7tJmbNq0SQYlD/ChQ4fKAD906FCdt2/RokUwmUw29WzZsgX8e//9923C6/rBJyQKprjWdV2NTfnXMw4S4n1QXgGPBhMzSxVQgYm9EH3vk/D2NQ+i5k+uFAYnf/AEUFmBxtPfwsXVf0VR8hEJD+k0GBH9HkDS2w8hrMdYBHcYCC9vHwJjNMpyLiLts7koz8uUtIEtuyPqnpkw+Aejsjgflza8jsIzv0icsz85OTTLHTmCo0eP4ssvv8TYsWPBgAoICMALL7wgEoPLOHXqFObMmYPS0lIp0tfXFx9//DHCwsKQm5uLuXPnIjk5GW3btpV8U6dORWFhIXr16oVZs2ZhwoQJko9VvdmzZ8v92bNn8eyzz8q9sz8MvldffVVUzbKyMilbaYuzvMbIeESP/BNMUc0kacHpPbi45iV4G/3R9LFl8DL4Em8NUN5J5pb3cOXg95I2vOf94HdXln0Bga17SxjnNUY0QlC7/kj5+CkJi7hzCvwIlGkrn5Nnb78gxI6ZDb/4dlJ2WXYakt9/HAH0rhyNg/IrlyWvsz8mo7MUnhGvapQoOncAaZ/PQ3HacZTlXpJ7fq7Iz0Q5/SpLCgg44yycCLtjDMqyUlFFYDMEhsE3PA6lWSkCFkNAGCIHPCxpfUnaxY6dh9JLp+llPo8SusaMesZSjpYbLy8vjBgxAnzltQvT/Pnz0aJFC6xYsQLLly8XNWzixImW4hhQmZmZWLp0Kfz9/fHEEzQxEPE9D35vbzM7AgMD4efnZ8l3/PhxvPbaa0hPT0dkZKQl3NnN6NGjBUwM+h07dgiQneVR4iMH/hEGU6AM/lSaiEou/CZRlaXF9B7+jJw9a4GqKss7yf9tl5JVeG+KbSnAyNj0LjJ/+IAmwEoYSG1nyaaQTzA902SnUNz4+QKw7B2fSb2l6UkAgVZtHCh51a5GXy8MusOInLxKtWQeEacqoSpLC1Fy8RQqCnPh5esn99a9zv31a/As52XwgTdJGl+aVTNpJrSmi2sXoqq8FH4NWyGobT+JCu02Uq6FSQdhikkQCefftDP4V5R0wDq73XtW9fjHYGLJtGHDBknXunVrGfQMECaWZIMGDRKpJAH0Z968eSIpWrZsid69zbO3EufoylJr7969uO+++2QN5Shd9fCePXvi8uXLWLZsmUSx5NNKhsBwgBbyVRVlMuEUpxy9mrVK3oMxqinhqbLGO7Eunyc/llIK+TfrrNzWuHob/WCid5Szey2yf/pC4i9++Ypcq1CqOg5qFGYV8ObTwRjd34QKUvemLbhiFeOZt6oSylmXr+zbSIPaW1S7sG6jUVVWgoJTuy3ZKkuLBEwcwMA0BIQK+FhysRQLIrUkqHUfBLa4g2bgk6TOXJMKlkLs3Ozbtw8fffQRCgoKRCKVl5eDjQMMMAZTjx495FdcXCwDWilCUbv4maUOSyW22tUV0UdzpKamWopncGmljE1LCFAGNH74TSTMWoXQLiO0ZpV0zHtrMDnLzO+EqfD0XmdJaxX/jxWF+NvyQvDugVmTA2qVtz4mVpVQlg6RasHAqU6sfhSdPygvm1W8vGPbbJKwvs96PoPHNyIenL6qotyyjkr5hNQ8mmVrS2fOnMGaNWtE1Xv99dfxyCOP4L333pNiWP3jdYs9YpWPfwysZs2agYGYn5+PoqIiSc5rK35mtbG2xGVVN1iwishAVygiIsJSlxLm6MoSKWnxw6I2Rw17HA0GTac10neWCYpHqL13opRXVVas3FqulRTm5WNeD3OgL62pFCrLNYPdL74taQyHlWDbq4NxYJvI9ulMagXeXFmIxCYG3NvH8xdSNVFiyw95KqKXy8w3NmhCb9E2S/ZPq8HqB0ufnJ/X1Mgd3vcPoqezgaI41ay25B3eIkBrQOsEb1OALLTDe46na+1mMDY6nDhxAsOGDYPBYMClS5fQtWtXsKrFxMaEUaNG2bRpxowZYt7mb0fnz5+XOJZWVTRYxo8fL3H9+plVU5uMTh7YSMIgZQNHSEiIpGY1MS4uDt26dcPdd98t36CcFGOJDrn9HuEpS5ni1GMyKVlPPkXJZNX08iIjQz/hpSWjyk3Ruf2iBfg3bi/rK1NsK0tqNgyV52UgtOtI+DfpIO85tNso0SiURGrjQEnj6JpyuZLWqKTDejhpklD5R7eKWtf4of+Tl3h+6aMWdYLXPKxeVBblUViaDbtYGrGhgq1OfM+LXSYeIFnbP0UEgS20q1mVYXUxd/83Nvm1PCxevBhvvPEGJk+ejAULFmDhwoVivVPybt26VbklPb4C/fv3x8CBA+WepRsTg2nPnj0YMGCA/DIyMmwG/5IlSxAbG2sph7+FsTqpWAE5YtWqVWjXrp1IR5aAvMZjYwR//3r++eclL+fRSmE0mKMGPyqGB15HZe1YITxU8peTRGHex4wgix39Mn/8UNY/Sry9a3HqCZRmJiNu0stSLhuarOnCFwsQN/FF+pnXwbz2vbL/W0sStXFgSeTgJiu3Ej4GoFGUN1LTa6+VOCjW7YK9rndzrDdZoprP/FQsSTl7r310bXD3I2S67Y3z70wntaUhWfsIbNXVO5J2bB5ma6FiTncFh8LDw8V4cO7cORn41mWyJY8/wrLaWEmWL2tiCx6D4coV1y6eWXLx+omNG7UhQ1C4WPpKM1Nqk81pWp+QaLHUsipujyz12ntn9jJoCGsQ5o2fPwwHW/x27C/DpHm5GnLVvyTXBSiWMCG330tqgS/O/fOBa/o98UEBFH+T0knnAHOANb74GBJTROcv2gezRNbjP5pUPkf940Vu3uHNyP3laxswcfrCM7/SLOiZ+7Uc8UMPV+dAJRlSPBVISs+vS0IphehXnQM6B8wcsDXZ6VzROaBz4Lo4oAoo/jCpk84BnQPaOaAKKO3F6Cl1DugcYA7ogNLHgc4BF3Kg3gKKd0E429EwcuRItG/fvlbs4m9nvPPDteRFO03iwO4RriB/Xx+8M3koRne+ttOherkG+t52322JCLrJfhNNI0MxqE0zaV5MSCAGt20GI3/hrQW1jolAlybq/nj9E5sgoUGYlOqszlHEt3enDIMf8dHV5LaAmjRpEnhHwiuvmHc8V+8470R48MEHqwfbPE+ZMkW2/NgEOnmIGvKo7Apxkswmmr1nG/1hoU2Y8sB+YS2eXosm0xfLB3DeUlSdYkY+hRbPrAP7k2mhorJy/POHXzG1V0e0io6wm8XP14BpvTsiNjTQbvyNCrynfQJmDuwq1fVo3hCPD+iKiEBtm6CVNo6hiWEa9VWN/tinE/q2Mq/5ndW5/sBJXCkqwfwRfdWK/F1xrofo72pGzUx9+/aVLUGJiYk1IynEnves3YS1DEz9dDY5PObVKpcj71l2h4jsPxXZu76gfY6rzb5ItP/OmvwaJsqOEuswLfeH09Lx8jc7aVYOxcnLWTWyFJaUYcZn3+FCbkGNuPoWsGT7fvgaXDf38873OWu34iGacMID/JBdqH1LmDPeuSWgeHsQWxjZ1X3w4MHgA1YOHzbvgFbznuUzHXgvH29Ozc7Oho+P9u6F9xov+w6ZYdk7V8J6G1WzGR/SvjnyCCbPVXYRyd61inyG/iWbetW8Z8N7TQDvucva/olsYC3NOF/tfXiRo+VcZP/nc/J0nlItzvnj3qSLdhMtmzocAUZz359e/QPOZ13bSsUz+cA2TUUVZEn3l6+248QlMyDv6ZAgkoBVocyCIry0cSdOp5s/zn84bTgOpaaje7OGwoNVe4/hX7+esNTfK6ER/mdQNxxIvoyF3+6yhKvdmEj1+8eEQYgLDZIyuc6Xv9mFU5ezJRures+PMB+AcyQtQ+KU8lh9fHF0P0QHB9CkkQ8uqzZUTtvOlu5w7ntXmzI5retgX9uaVdLzBlYeuOx1W1JSguHDh1tSq3nPzpw5U1wo2COXAcWuGlop79AWXFj9InHEAENwpE029jYOTOwJ9n4tIDd9dqqkXcLijqLmPct7GCvLS8hN/XMkPLUaDcf/RfY1KoVH9J0ktzm71yhBLrku2LBDwMDAsF6vJNIA5fXDZ3uOifT69OcjqKCNwUwNaVA/2u92Addr//6Ztgl54YVRd1raE+ZvQs+EOLy7bT9+ISBP6dGe/R8tFGTyBa/tokNsPQa2n0rGSgIf04GUdHzxy3HkFpbIM9dxNiMXf163XSRGUWk5/mpVZxJNBC8SqJOz8hBLALKmR/p2pknBF3//fjfS84ts1kNqdVqXURf3bgkodnVgvyT2uGUXjU6dOln6rnjPclx1ak7HhG3fvl1ONlJ2eFdP4+iZXfrFTYJ2WNujvCM/0jarLXTyEzv+eZF3a0tKZvaeZRcLxXuWHSnZFYLJQEYIY2RjsGfzxbUvkXt5G0TeZd7byBtUWYJdWv+/ktaVf85l5uJ0Rk3+WNeRnleI9QdPWaTBXbSoZ2IJ8Z/TKVj+02GRYnFh1wwpP544jy0nksAqGE94La3WbydJqnx75Ay+OXzGuhqwZFmx2+y2k0Tt+oRAzJKRia9/++5nXCkuobLCkUaSJsB4bRIspvhjFzLtqmQdGkVhI9W17WQyFlKbrUmtTut0dXGvXSeqi9odlMmu7CyZ+KAUVt/4LDs+fkvN4zU0NBRGo1H8o7hY3jHOTn+uouLU41JURb5ZHTH4hzgtmt1a2KEva9tySZt3ZAtCOpoND9HDn0R5QTb5gwWSKtlD4k20nvIl577aeNo6bYRVgt9ItdtxKgU8u/OP114vbdwlAzaKVCce4DyImXggM8UEByItxzxBHL9oDlPWHCH+RknDfxjEi7fuszxruTGSD9tHDw0XKZqanQfTVaubD6n8rJI5osCr0lBRDQtL6ZgAPlLJDcjtJFSbNm0EGAwGNnkrXrB8IIsa8SlG7O/UpIl5puV8tVlDqZVtjjOrRnbTUZQ971l2SWFfJoWqSknVIZWSiT2ZWYLF0MlGMSNmSVhwx0HgX10SS4Sx76zFos17yaARjvFd20h1DBJW2djcztSMjB1MCnj4/qp2yLc1KCooAEPaNUcnkhxaaXjHFgKm/1qyDjNXbhLJyHlZFVSjAjK4lNK7jg8PlmQMzNquodTKv544twMUr5fY4W/atGmYPn26/LKysuRoL2cdTUlJkW9TbNBgz9wbRY68Z1lFZE/moLZ3koUvGkHt7yL38kPSrNRPn8WZ18fL7+wbEyUs47vFJM0+qbNmt4gKQ7emsaig2X9P0gWRAorxYs+5C1Lv1F4dxPJ1f5fWMmiTSXJoodsaR2PGXV3wEBk9tBIDh/8F+xlF5RtKgNRKJy9lC4DZKPFAz/Zas9V5OrdT+W677TakpaUJqJTe86EsA8nLlo0MfEqsI+9ZPrjlueeew9tvvy3SiiWWVkr40xqLKzl7GfOPD5zh8+yEVKZnR96zvO5iF3WWQkxl5ChYl4CRSq7+4YFanWJDgvDMULN6yXGXaR21bKcZ4KzOfX/snHws5g/GPKn9fdMeAZ9STpUctaI80dWO0OZ8Wmnj4dMY3qkF2ILIdDo9G0FRRlReLYMtgMrHWo5f99g45BWXYsoH62Utxla+pQ/cI8BXUxE5740iVfcNnul51q9PxGdLsHHCnkfuzeoHn5XBB9aw4eNGUduGkXjlvrvw4LINyKWPmArx+oQNDRlkGeO1R3ViyyDP+ikkmZSBXT2Nq5+5visEFGX9prV8A3kssnWS13g3qq3O2uZ2EspZg53Fs1Riy6A7EZ9vyL8bQX1axGNA6yZgKxhLIGswcf08k1t/l6reJh7UavHV07vimdv5e6iCPBYZ+O5EHgcod2LuzWgLL9Z5tl+x+wi+PXz2ZjThlq5TB5SHvX42LigGBg/rWr3ojttZ+eoF1/RG6hxwwAFVQNU3g4SDPurBOgduGAdUAXXDWqFXpHPAQzjgFFD+pprfMzyk73o3dA64nANOjRI7PwgHn/p5KqUCA/7bvI/N5a3QC9Q54CEccCqhbp+chflLCtAy3oC2zZ3iz0PYondD58Dv44BTQHGxX+8wf2mPidCU/Pe1RM+lc8ADOKAJIVd39IN8zHTSOaBzQIUDmgCVSf8VCYNqwmA/OfBdpTw9SufALc0BTYBiDj29KA/9bvfF6XUN8Nj9/rc00/TO6xxwxAHNVoZ5DweCtojhlY/y8e9d9t3EHVWih+scuFU4oAlQQQFeiAr3xnPv5GP51647culWYbLez1uHA5pUviB/88fdc2mO/fxvHZbpPdU54JgDmgDVp7P5JJr0bB1Qjlmpx+gcAJyqfLuWRSA+2hsZOZU4dtZ1pwjpzNc54IkcUHWB5w63bmpAfmGVR//P3Z74YvU+3RwOOJVQJ5K0H3Ryc7qg16pzwH04oGkN5T7N1Vuic8C9OaADyr3fj966esYBHVD17IXpzXVvDuiAcu/3o7eunnFAB1Q9e2F6c92bAzqg3Pv96K2rZxzQAVXPXpjeXPfmwP8DCLmnIpEnhQQAAAAASUVORK5CYII=;" vertex="1" parent="1">
          <mxGeometry x="470" y="830" width="212" height="59" as="geometry" />
        </mxCell>
        <mxCell id="WtjZ9ceoHeIxMGEVFJwQ-106" value="" style="group" vertex="1" connectable="0" parent="1">
          <mxGeometry x="940" y="160" width="408" height="130" as="geometry" />
        </mxCell>
        <mxCell id="WtjZ9ceoHeIxMGEVFJwQ-72" value="" style="group" vertex="1" connectable="0" parent="WtjZ9ceoHeIxMGEVFJwQ-106">
          <mxGeometry width="210" height="130" as="geometry" />
        </mxCell>
        <mxCell id="WtjZ9ceoHeIxMGEVFJwQ-62" value="" style="rounded=1;whiteSpace=wrap;html=1;" vertex="1" parent="WtjZ9ceoHeIxMGEVFJwQ-72">
          <mxGeometry y="30" width="210" height="100" as="geometry" />
        </mxCell>
        <mxCell id="WtjZ9ceoHeIxMGEVFJwQ-63" value="&lt;font color=&quot;#ff0000&quot; style=&quot;font-size: 15px;&quot;&gt;&lt;b&gt;redis&lt;/b&gt;&lt;/font&gt;" style="text;strokeColor=none;align=center;fillColor=none;html=1;verticalAlign=middle;whiteSpace=wrap;rounded=0;" vertex="1" parent="WtjZ9ceoHeIxMGEVFJwQ-72">
          <mxGeometry x="70" width="60" height="30" as="geometry" />
        </mxCell>
        <mxCell id="WtjZ9ceoHeIxMGEVFJwQ-64" value="" style="group" vertex="1" connectable="0" parent="WtjZ9ceoHeIxMGEVFJwQ-72">
          <mxGeometry x="45" y="40" width="110" height="60" as="geometry" />
        </mxCell>
        <mxCell id="WtjZ9ceoHeIxMGEVFJwQ-65" value="" style="rounded=0;whiteSpace=wrap;html=1;" vertex="1" parent="WtjZ9ceoHeIxMGEVFJwQ-64">
          <mxGeometry y="30" width="30" height="30" as="geometry" />
        </mxCell>
        <mxCell id="WtjZ9ceoHeIxMGEVFJwQ-66" value="" style="rounded=0;whiteSpace=wrap;html=1;" vertex="1" parent="WtjZ9ceoHeIxMGEVFJwQ-64">
          <mxGeometry x="30" y="30" width="30" height="30" as="geometry" />
        </mxCell>
        <mxCell id="WtjZ9ceoHeIxMGEVFJwQ-67" value="" style="rounded=0;whiteSpace=wrap;html=1;" vertex="1" parent="WtjZ9ceoHeIxMGEVFJwQ-64">
          <mxGeometry x="80" y="30" width="30" height="30" as="geometry" />
        </mxCell>
        <mxCell id="WtjZ9ceoHeIxMGEVFJwQ-68" value="&lt;b&gt;&lt;font style=&quot;font-size: 15px;&quot;&gt;...&lt;/font&gt;&lt;/b&gt;" style="text;strokeColor=none;align=center;fillColor=none;html=1;verticalAlign=middle;whiteSpace=wrap;rounded=0;" vertex="1" parent="WtjZ9ceoHeIxMGEVFJwQ-64">
          <mxGeometry x="40" y="30" width="60" height="30" as="geometry" />
        </mxCell>
        <mxCell id="WtjZ9ceoHeIxMGEVFJwQ-69" value="&lt;b&gt;arc_job_fail_list&lt;/b&gt;" style="text;strokeColor=none;align=center;fillColor=none;html=1;verticalAlign=middle;whiteSpace=wrap;rounded=0;" vertex="1" parent="WtjZ9ceoHeIxMGEVFJwQ-64">
          <mxGeometry x="30" width="61" height="30" as="geometry" />
        </mxCell>
        <mxCell id="WtjZ9ceoHeIxMGEVFJwQ-101" style="edgeStyle=orthogonalEdgeStyle;rounded=0;orthogonalLoop=1;jettySize=auto;html=1;" edge="1" parent="WtjZ9ceoHeIxMGEVFJwQ-106" source="WtjZ9ceoHeIxMGEVFJwQ-100" target="WtjZ9ceoHeIxMGEVFJwQ-62">
          <mxGeometry relative="1" as="geometry" />
        </mxCell>
        <mxCell id="WtjZ9ceoHeIxMGEVFJwQ-100" value="执行重试逻辑" style="ellipse;whiteSpace=wrap;html=1;" vertex="1" parent="WtjZ9ceoHeIxMGEVFJwQ-106">
          <mxGeometry x="289" y="40" width="119" height="80" as="geometry" />
        </mxCell>
        <mxCell id="WtjZ9ceoHeIxMGEVFJwQ-104" value="LPOP" style="text;strokeColor=none;align=center;fillColor=none;html=1;verticalAlign=middle;whiteSpace=wrap;rounded=0;" vertex="1" parent="WtjZ9ceoHeIxMGEVFJwQ-106">
          <mxGeometry x="224" y="50" width="60" height="30" as="geometry" />
        </mxCell>
        <mxCell id="WtjZ9ceoHeIxMGEVFJwQ-140" value="" style="group" vertex="1" connectable="0" parent="1">
          <mxGeometry x="940" y="437" width="408" height="130" as="geometry" />
        </mxCell>
        <mxCell id="WtjZ9ceoHeIxMGEVFJwQ-141" value="" style="group" vertex="1" connectable="0" parent="WtjZ9ceoHeIxMGEVFJwQ-140">
          <mxGeometry width="210" height="130" as="geometry" />
        </mxCell>
        <mxCell id="WtjZ9ceoHeIxMGEVFJwQ-142" value="" style="rounded=1;whiteSpace=wrap;html=1;" vertex="1" parent="WtjZ9ceoHeIxMGEVFJwQ-141">
          <mxGeometry y="30" width="210" height="100" as="geometry" />
        </mxCell>
        <mxCell id="WtjZ9ceoHeIxMGEVFJwQ-143" value="&lt;font color=&quot;#ff0000&quot; style=&quot;font-size: 15px;&quot;&gt;&lt;b&gt;redis&lt;/b&gt;&lt;/font&gt;" style="text;strokeColor=none;align=center;fillColor=none;html=1;verticalAlign=middle;whiteSpace=wrap;rounded=0;" vertex="1" parent="WtjZ9ceoHeIxMGEVFJwQ-141">
          <mxGeometry x="70" width="60" height="30" as="geometry" />
        </mxCell>
        <mxCell id="WtjZ9ceoHeIxMGEVFJwQ-144" value="" style="group" vertex="1" connectable="0" parent="WtjZ9ceoHeIxMGEVFJwQ-141">
          <mxGeometry x="45" y="40" width="110" height="60" as="geometry" />
        </mxCell>
        <mxCell id="WtjZ9ceoHeIxMGEVFJwQ-145" value="" style="rounded=0;whiteSpace=wrap;html=1;" vertex="1" parent="WtjZ9ceoHeIxMGEVFJwQ-144">
          <mxGeometry y="30" width="30" height="30" as="geometry" />
        </mxCell>
        <mxCell id="WtjZ9ceoHeIxMGEVFJwQ-146" value="" style="rounded=0;whiteSpace=wrap;html=1;" vertex="1" parent="WtjZ9ceoHeIxMGEVFJwQ-144">
          <mxGeometry x="30" y="30" width="30" height="30" as="geometry" />
        </mxCell>
        <mxCell id="WtjZ9ceoHeIxMGEVFJwQ-147" value="" style="rounded=0;whiteSpace=wrap;html=1;" vertex="1" parent="WtjZ9ceoHeIxMGEVFJwQ-144">
          <mxGeometry x="80" y="30" width="30" height="30" as="geometry" />
        </mxCell>
        <mxCell id="WtjZ9ceoHeIxMGEVFJwQ-148" value="&lt;b&gt;&lt;font style=&quot;font-size: 15px;&quot;&gt;...&lt;/font&gt;&lt;/b&gt;" style="text;strokeColor=none;align=center;fillColor=none;html=1;verticalAlign=middle;whiteSpace=wrap;rounded=0;" vertex="1" parent="WtjZ9ceoHeIxMGEVFJwQ-144">
          <mxGeometry x="40" y="30" width="60" height="30" as="geometry" />
        </mxCell>
        <mxCell id="WtjZ9ceoHeIxMGEVFJwQ-149" value="&lt;b&gt;arc_job_fail_videoff_list&lt;/b&gt;" style="text;strokeColor=none;align=center;fillColor=none;html=1;verticalAlign=middle;whiteSpace=wrap;rounded=0;" vertex="1" parent="WtjZ9ceoHeIxMGEVFJwQ-144">
          <mxGeometry x="30" width="61" height="30" as="geometry" />
        </mxCell>
        <mxCell id="WtjZ9ceoHeIxMGEVFJwQ-150" style="edgeStyle=orthogonalEdgeStyle;rounded=0;orthogonalLoop=1;jettySize=auto;html=1;" edge="1" parent="WtjZ9ceoHeIxMGEVFJwQ-140" source="WtjZ9ceoHeIxMGEVFJwQ-151" target="WtjZ9ceoHeIxMGEVFJwQ-142">
          <mxGeometry relative="1" as="geometry" />
        </mxCell>
        <mxCell id="WtjZ9ceoHeIxMGEVFJwQ-151" value="执行重试逻辑" style="ellipse;whiteSpace=wrap;html=1;" vertex="1" parent="WtjZ9ceoHeIxMGEVFJwQ-140">
          <mxGeometry x="289" y="40" width="119" height="80" as="geometry" />
        </mxCell>
        <mxCell id="WtjZ9ceoHeIxMGEVFJwQ-152" value="LPOP" style="text;strokeColor=none;align=center;fillColor=none;html=1;verticalAlign=middle;whiteSpace=wrap;rounded=0;" vertex="1" parent="WtjZ9ceoHeIxMGEVFJwQ-140">
          <mxGeometry x="224" y="50" width="60" height="30" as="geometry" />
        </mxCell>
        <mxCell id="WtjZ9ceoHeIxMGEVFJwQ-153" value="" style="group" vertex="1" connectable="0" parent="1">
          <mxGeometry x="950" y="1370" width="408" height="130" as="geometry" />
        </mxCell>
        <mxCell id="WtjZ9ceoHeIxMGEVFJwQ-154" value="" style="group" vertex="1" connectable="0" parent="WtjZ9ceoHeIxMGEVFJwQ-153">
          <mxGeometry width="210" height="130" as="geometry" />
        </mxCell>
        <mxCell id="WtjZ9ceoHeIxMGEVFJwQ-155" value="" style="rounded=1;whiteSpace=wrap;html=1;" vertex="1" parent="WtjZ9ceoHeIxMGEVFJwQ-154">
          <mxGeometry y="30" width="210" height="100" as="geometry" />
        </mxCell>
        <mxCell id="WtjZ9ceoHeIxMGEVFJwQ-156" value="&lt;font color=&quot;#ff0000&quot; style=&quot;font-size: 15px;&quot;&gt;&lt;b&gt;redis&lt;/b&gt;&lt;/font&gt;" style="text;strokeColor=none;align=center;fillColor=none;html=1;verticalAlign=middle;whiteSpace=wrap;rounded=0;" vertex="1" parent="WtjZ9ceoHeIxMGEVFJwQ-154">
          <mxGeometry x="70" width="60" height="30" as="geometry" />
        </mxCell>
        <mxCell id="WtjZ9ceoHeIxMGEVFJwQ-157" value="" style="group" vertex="1" connectable="0" parent="WtjZ9ceoHeIxMGEVFJwQ-154">
          <mxGeometry x="45" y="40" width="110" height="60" as="geometry" />
        </mxCell>
        <mxCell id="WtjZ9ceoHeIxMGEVFJwQ-158" value="" style="rounded=0;whiteSpace=wrap;html=1;" vertex="1" parent="WtjZ9ceoHeIxMGEVFJwQ-157">
          <mxGeometry y="30" width="30" height="30" as="geometry" />
        </mxCell>
        <mxCell id="WtjZ9ceoHeIxMGEVFJwQ-159" value="" style="rounded=0;whiteSpace=wrap;html=1;" vertex="1" parent="WtjZ9ceoHeIxMGEVFJwQ-157">
          <mxGeometry x="30" y="30" width="30" height="30" as="geometry" />
        </mxCell>
        <mxCell id="WtjZ9ceoHeIxMGEVFJwQ-160" value="" style="rounded=0;whiteSpace=wrap;html=1;" vertex="1" parent="WtjZ9ceoHeIxMGEVFJwQ-157">
          <mxGeometry x="80" y="30" width="30" height="30" as="geometry" />
        </mxCell>
        <mxCell id="WtjZ9ceoHeIxMGEVFJwQ-161" value="&lt;b&gt;&lt;font style=&quot;font-size: 15px;&quot;&gt;...&lt;/font&gt;&lt;/b&gt;" style="text;strokeColor=none;align=center;fillColor=none;html=1;verticalAlign=middle;whiteSpace=wrap;rounded=0;" vertex="1" parent="WtjZ9ceoHeIxMGEVFJwQ-157">
          <mxGeometry x="40" y="30" width="60" height="30" as="geometry" />
        </mxCell>
        <mxCell id="WtjZ9ceoHeIxMGEVFJwQ-162" value="&lt;b&gt;arc_job_fail_internal_list&lt;/b&gt;" style="text;strokeColor=none;align=center;fillColor=none;html=1;verticalAlign=middle;whiteSpace=wrap;rounded=0;" vertex="1" parent="WtjZ9ceoHeIxMGEVFJwQ-157">
          <mxGeometry x="30" width="61" height="30" as="geometry" />
        </mxCell>
        <mxCell id="WtjZ9ceoHeIxMGEVFJwQ-163" style="edgeStyle=orthogonalEdgeStyle;rounded=0;orthogonalLoop=1;jettySize=auto;html=1;" edge="1" parent="WtjZ9ceoHeIxMGEVFJwQ-153" source="WtjZ9ceoHeIxMGEVFJwQ-164" target="WtjZ9ceoHeIxMGEVFJwQ-155">
          <mxGeometry relative="1" as="geometry" />
        </mxCell>
        <mxCell id="WtjZ9ceoHeIxMGEVFJwQ-164" value="执行重试逻辑" style="ellipse;whiteSpace=wrap;html=1;" vertex="1" parent="WtjZ9ceoHeIxMGEVFJwQ-153">
          <mxGeometry x="289" y="40" width="119" height="80" as="geometry" />
        </mxCell>
        <mxCell id="WtjZ9ceoHeIxMGEVFJwQ-165" value="LPOP" style="text;strokeColor=none;align=center;fillColor=none;html=1;verticalAlign=middle;whiteSpace=wrap;rounded=0;" vertex="1" parent="WtjZ9ceoHeIxMGEVFJwQ-153">
          <mxGeometry x="224" y="50" width="60" height="30" as="geometry" />
        </mxCell>
        <mxCell id="WtjZ9ceoHeIxMGEVFJwQ-169" value="" style="group" vertex="1" connectable="0" parent="1">
          <mxGeometry x="950" y="40" width="80" height="60" as="geometry" />
        </mxCell>
        <mxCell id="WtjZ9ceoHeIxMGEVFJwQ-167" value="视频首帧" style="shape=process;whiteSpace=wrap;html=1;backgroundOutline=1;" vertex="1" parent="WtjZ9ceoHeIxMGEVFJwQ-169">
          <mxGeometry y="30" width="80" height="30" as="geometry" />
        </mxCell>
        <mxCell id="WtjZ9ceoHeIxMGEVFJwQ-168" value="本地队列" style="text;strokeColor=none;align=center;fillColor=none;html=1;verticalAlign=middle;whiteSpace=wrap;rounded=0;" vertex="1" parent="WtjZ9ceoHeIxMGEVFJwQ-169">
          <mxGeometry x="10" width="60" height="30" as="geometry" />
        </mxCell>
        <mxCell id="WtjZ9ceoHeIxMGEVFJwQ-170" value="" style="group" vertex="1" connectable="0" parent="1">
          <mxGeometry x="950" y="-20" width="80" height="60" as="geometry" />
        </mxCell>
        <mxCell id="WtjZ9ceoHeIxMGEVFJwQ-171" value="视频缩略图" style="shape=process;whiteSpace=wrap;html=1;backgroundOutline=1;" vertex="1" parent="WtjZ9ceoHeIxMGEVFJwQ-170">
          <mxGeometry y="30" width="80" height="30" as="geometry" />
        </mxCell>
        <mxCell id="WtjZ9ceoHeIxMGEVFJwQ-172" value="本地队列" style="text;strokeColor=none;align=center;fillColor=none;html=1;verticalAlign=middle;whiteSpace=wrap;rounded=0;" vertex="1" parent="WtjZ9ceoHeIxMGEVFJwQ-170">
          <mxGeometry x="10" width="60" height="30" as="geometry" />
        </mxCell>
        <mxCell id="WtjZ9ceoHeIxMGEVFJwQ-173" value="" style="group" vertex="1" connectable="0" parent="1">
          <mxGeometry x="950" y="-80" width="80" height="60" as="geometry" />
        </mxCell>
        <mxCell id="WtjZ9ceoHeIxMGEVFJwQ-174" value="年报" style="shape=process;whiteSpace=wrap;html=1;backgroundOutline=1;" vertex="1" parent="WtjZ9ceoHeIxMGEVFJwQ-173">
          <mxGeometry y="30" width="80" height="30" as="geometry" />
        </mxCell>
        <mxCell id="WtjZ9ceoHeIxMGEVFJwQ-175" value="本地队列" style="text;strokeColor=none;align=center;fillColor=none;html=1;verticalAlign=middle;whiteSpace=wrap;rounded=0;" vertex="1" parent="WtjZ9ceoHeIxMGEVFJwQ-173">
          <mxGeometry x="10" width="60" height="30" as="geometry" />
        </mxCell>
        <mxCell id="WtjZ9ceoHeIxMGEVFJwQ-176" value="" style="group" vertex="1" connectable="0" parent="1">
          <mxGeometry x="950" y="-140" width="80" height="60" as="geometry" />
        </mxCell>
        <mxCell id="WtjZ9ceoHeIxMGEVFJwQ-177" value="PGC" style="shape=process;whiteSpace=wrap;html=1;backgroundOutline=1;" vertex="1" parent="WtjZ9ceoHeIxMGEVFJwQ-176">
          <mxGeometry y="30" width="80" height="30" as="geometry" />
        </mxCell>
        <mxCell id="WtjZ9ceoHeIxMGEVFJwQ-178" value="本地队列" style="text;strokeColor=none;align=center;fillColor=none;html=1;verticalAlign=middle;whiteSpace=wrap;rounded=0;" vertex="1" parent="WtjZ9ceoHeIxMGEVFJwQ-176">
          <mxGeometry x="10" width="60" height="30" as="geometry" />
        </mxCell>
        <mxCell id="WtjZ9ceoHeIxMGEVFJwQ-179" value="" style="group" vertex="1" connectable="0" parent="1">
          <mxGeometry x="950" y="-200" width="80" height="60" as="geometry" />
        </mxCell>
        <mxCell id="WtjZ9ceoHeIxMGEVFJwQ-180" value="UGC" style="shape=process;whiteSpace=wrap;html=1;backgroundOutline=1;" vertex="1" parent="WtjZ9ceoHeIxMGEVFJwQ-179">
          <mxGeometry y="30" width="80" height="30" as="geometry" />
        </mxCell>
        <mxCell id="WtjZ9ceoHeIxMGEVFJwQ-181" value="本地队列" style="text;strokeColor=none;align=center;fillColor=none;html=1;verticalAlign=middle;whiteSpace=wrap;rounded=0;" vertex="1" parent="WtjZ9ceoHeIxMGEVFJwQ-179">
          <mxGeometry x="10" width="60" height="30" as="geometry" />
        </mxCell>
        <mxCell id="WtjZ9ceoHeIxMGEVFJwQ-193" value="RPUSH" style="text;html=1;align=center;verticalAlign=middle;resizable=0;points=[];autosize=1;strokeColor=none;fillColor=none;" vertex="1" parent="1">
          <mxGeometry x="861" y="487" width="70" height="30" as="geometry" />
        </mxCell>
        <mxCell id="WtjZ9ceoHeIxMGEVFJwQ-269" style="edgeStyle=orthogonalEdgeStyle;rounded=0;orthogonalLoop=1;jettySize=auto;html=1;entryX=0;entryY=0.5;entryDx=0;entryDy=0;" edge="1" parent="1" source="WtjZ9ceoHeIxMGEVFJwQ-195" target="WtjZ9ceoHeIxMGEVFJwQ-266">
          <mxGeometry relative="1" as="geometry" />
        </mxCell>
        <mxCell id="WtjZ9ceoHeIxMGEVFJwQ-195" value="更新数据库、泰山和redis" style="ellipse;whiteSpace=wrap;html=1;" vertex="1" parent="1">
          <mxGeometry x="1120" y="-180" width="141" height="50" as="geometry" />
        </mxCell>
        <mxCell id="WtjZ9ceoHeIxMGEVFJwQ-194" value="&lt;b&gt;&lt;font color=&quot;#ff0000&quot;&gt;本地队列满了或者处理失败了&lt;/font&gt;&lt;/b&gt;" style="text;strokeColor=none;align=center;fillColor=none;html=1;verticalAlign=middle;whiteSpace=wrap;rounded=0;" vertex="1" parent="1">
          <mxGeometry x="849" y="130" width="170" height="30" as="geometry" />
        </mxCell>
        <mxCell id="WtjZ9ceoHeIxMGEVFJwQ-205" value="" style="group" vertex="1" connectable="0" parent="1">
          <mxGeometry x="940" y="290" width="408" height="130" as="geometry" />
        </mxCell>
        <mxCell id="WtjZ9ceoHeIxMGEVFJwQ-206" value="" style="group" vertex="1" connectable="0" parent="WtjZ9ceoHeIxMGEVFJwQ-205">
          <mxGeometry width="210" height="130" as="geometry" />
        </mxCell>
        <mxCell id="WtjZ9ceoHeIxMGEVFJwQ-207" value="" style="rounded=1;whiteSpace=wrap;html=1;" vertex="1" parent="WtjZ9ceoHeIxMGEVFJwQ-206">
          <mxGeometry y="30" width="210" height="100" as="geometry" />
        </mxCell>
        <mxCell id="WtjZ9ceoHeIxMGEVFJwQ-208" value="&lt;font color=&quot;#ff0000&quot; style=&quot;font-size: 15px;&quot;&gt;&lt;b&gt;redis&lt;/b&gt;&lt;/font&gt;" style="text;strokeColor=none;align=center;fillColor=none;html=1;verticalAlign=middle;whiteSpace=wrap;rounded=0;" vertex="1" parent="WtjZ9ceoHeIxMGEVFJwQ-206">
          <mxGeometry x="70" width="60" height="30" as="geometry" />
        </mxCell>
        <mxCell id="WtjZ9ceoHeIxMGEVFJwQ-209" value="" style="group" vertex="1" connectable="0" parent="WtjZ9ceoHeIxMGEVFJwQ-206">
          <mxGeometry x="45" y="40" width="110" height="60" as="geometry" />
        </mxCell>
        <mxCell id="WtjZ9ceoHeIxMGEVFJwQ-210" value="" style="rounded=0;whiteSpace=wrap;html=1;" vertex="1" parent="WtjZ9ceoHeIxMGEVFJwQ-209">
          <mxGeometry y="30" width="30" height="30" as="geometry" />
        </mxCell>
        <mxCell id="WtjZ9ceoHeIxMGEVFJwQ-211" value="" style="rounded=0;whiteSpace=wrap;html=1;" vertex="1" parent="WtjZ9ceoHeIxMGEVFJwQ-209">
          <mxGeometry x="30" y="30" width="30" height="30" as="geometry" />
        </mxCell>
        <mxCell id="WtjZ9ceoHeIxMGEVFJwQ-212" value="" style="rounded=0;whiteSpace=wrap;html=1;" vertex="1" parent="WtjZ9ceoHeIxMGEVFJwQ-209">
          <mxGeometry x="80" y="30" width="30" height="30" as="geometry" />
        </mxCell>
        <mxCell id="WtjZ9ceoHeIxMGEVFJwQ-213" value="&lt;b&gt;&lt;font style=&quot;font-size: 15px;&quot;&gt;...&lt;/font&gt;&lt;/b&gt;" style="text;strokeColor=none;align=center;fillColor=none;html=1;verticalAlign=middle;whiteSpace=wrap;rounded=0;" vertex="1" parent="WtjZ9ceoHeIxMGEVFJwQ-209">
          <mxGeometry x="40" y="30" width="60" height="30" as="geometry" />
        </mxCell>
        <mxCell id="WtjZ9ceoHeIxMGEVFJwQ-214" value="&lt;b style=&quot;border-color: var(--border-color);&quot;&gt;arc_job_fail_videoshot_list&lt;/b&gt;" style="text;strokeColor=none;align=center;fillColor=none;html=1;verticalAlign=middle;whiteSpace=wrap;rounded=0;" vertex="1" parent="WtjZ9ceoHeIxMGEVFJwQ-209">
          <mxGeometry x="30" width="61" height="30" as="geometry" />
        </mxCell>
        <mxCell id="WtjZ9ceoHeIxMGEVFJwQ-215" style="edgeStyle=orthogonalEdgeStyle;rounded=0;orthogonalLoop=1;jettySize=auto;html=1;" edge="1" parent="WtjZ9ceoHeIxMGEVFJwQ-205" source="WtjZ9ceoHeIxMGEVFJwQ-216" target="WtjZ9ceoHeIxMGEVFJwQ-207">
          <mxGeometry relative="1" as="geometry" />
        </mxCell>
        <mxCell id="WtjZ9ceoHeIxMGEVFJwQ-216" value="执行重试逻辑" style="ellipse;whiteSpace=wrap;html=1;" vertex="1" parent="WtjZ9ceoHeIxMGEVFJwQ-205">
          <mxGeometry x="289" y="40" width="119" height="80" as="geometry" />
        </mxCell>
        <mxCell id="WtjZ9ceoHeIxMGEVFJwQ-217" value="LPOP" style="text;strokeColor=none;align=center;fillColor=none;html=1;verticalAlign=middle;whiteSpace=wrap;rounded=0;" vertex="1" parent="WtjZ9ceoHeIxMGEVFJwQ-205">
          <mxGeometry x="224" y="50" width="60" height="30" as="geometry" />
        </mxCell>
        <mxCell id="WtjZ9ceoHeIxMGEVFJwQ-220" value="RPUSH" style="text;html=1;align=center;verticalAlign=middle;resizable=0;points=[];autosize=1;strokeColor=none;fillColor=none;" vertex="1" parent="1">
          <mxGeometry x="861" y="210" width="70" height="30" as="geometry" />
        </mxCell>
        <mxCell id="WtjZ9ceoHeIxMGEVFJwQ-226" value="RPUSH" style="text;html=1;align=center;verticalAlign=middle;resizable=0;points=[];autosize=1;strokeColor=none;fillColor=none;" vertex="1" parent="1">
          <mxGeometry x="861" y="340" width="70" height="30" as="geometry" />
        </mxCell>
        <mxCell id="WtjZ9ceoHeIxMGEVFJwQ-233" value="" style="group" vertex="1" connectable="0" parent="1">
          <mxGeometry x="950" y="1200" width="80" height="60" as="geometry" />
        </mxCell>
        <mxCell id="WtjZ9ceoHeIxMGEVFJwQ-234" value="internal" style="shape=process;whiteSpace=wrap;html=1;backgroundOutline=1;" vertex="1" parent="WtjZ9ceoHeIxMGEVFJwQ-233">
          <mxGeometry y="30" width="80" height="30" as="geometry" />
        </mxCell>
        <mxCell id="WtjZ9ceoHeIxMGEVFJwQ-235" value="本地队列" style="text;strokeColor=none;align=center;fillColor=none;html=1;verticalAlign=middle;whiteSpace=wrap;rounded=0;" vertex="1" parent="WtjZ9ceoHeIxMGEVFJwQ-233">
          <mxGeometry x="10" width="60" height="30" as="geometry" />
        </mxCell>
        <mxCell id="WtjZ9ceoHeIxMGEVFJwQ-246" value="&lt;b&gt;&lt;font color=&quot;#ff0000&quot;&gt;本地队列满了或者处理失败了&lt;/font&gt;&lt;/b&gt;" style="text;strokeColor=none;align=center;fillColor=none;html=1;verticalAlign=middle;whiteSpace=wrap;rounded=0;" vertex="1" parent="1">
          <mxGeometry x="890" y="1350" width="170" height="30" as="geometry" />
        </mxCell>
        <mxCell id="WtjZ9ceoHeIxMGEVFJwQ-271" style="edgeStyle=orthogonalEdgeStyle;rounded=0;orthogonalLoop=1;jettySize=auto;html=1;entryX=0;entryY=0.5;entryDx=0;entryDy=0;" edge="1" parent="1" source="WtjZ9ceoHeIxMGEVFJwQ-247" target="WtjZ9ceoHeIxMGEVFJwQ-266">
          <mxGeometry relative="1" as="geometry" />
        </mxCell>
        <mxCell id="WtjZ9ceoHeIxMGEVFJwQ-247" value="更新数据库、泰山和redis" style="ellipse;whiteSpace=wrap;html=1;" vertex="1" parent="1">
          <mxGeometry x="1120" y="-120" width="141" height="50" as="geometry" />
        </mxCell>
        <mxCell id="WtjZ9ceoHeIxMGEVFJwQ-272" style="edgeStyle=orthogonalEdgeStyle;rounded=0;orthogonalLoop=1;jettySize=auto;html=1;exitX=1;exitY=0.5;exitDx=0;exitDy=0;entryX=0;entryY=0.5;entryDx=0;entryDy=0;" edge="1" parent="1" source="WtjZ9ceoHeIxMGEVFJwQ-248" target="WtjZ9ceoHeIxMGEVFJwQ-266">
          <mxGeometry relative="1" as="geometry" />
        </mxCell>
        <mxCell id="WtjZ9ceoHeIxMGEVFJwQ-248" value="更新数据库、泰山和redis" style="ellipse;whiteSpace=wrap;html=1;" vertex="1" parent="1">
          <mxGeometry x="1120" y="-60" width="141" height="50" as="geometry" />
        </mxCell>
        <mxCell id="WtjZ9ceoHeIxMGEVFJwQ-273" style="edgeStyle=orthogonalEdgeStyle;rounded=0;orthogonalLoop=1;jettySize=auto;html=1;entryX=0;entryY=0.5;entryDx=0;entryDy=0;" edge="1" parent="1" source="WtjZ9ceoHeIxMGEVFJwQ-249" target="WtjZ9ceoHeIxMGEVFJwQ-266">
          <mxGeometry relative="1" as="geometry" />
        </mxCell>
        <mxCell id="WtjZ9ceoHeIxMGEVFJwQ-249" value="更新数据库、泰山和redis" style="ellipse;whiteSpace=wrap;html=1;" vertex="1" parent="1">
          <mxGeometry x="1120" width="141" height="50" as="geometry" />
        </mxCell>
        <mxCell id="WtjZ9ceoHeIxMGEVFJwQ-274" style="edgeStyle=orthogonalEdgeStyle;rounded=0;orthogonalLoop=1;jettySize=auto;html=1;entryX=0;entryY=0.5;entryDx=0;entryDy=0;" edge="1" parent="1" source="WtjZ9ceoHeIxMGEVFJwQ-250" target="WtjZ9ceoHeIxMGEVFJwQ-266">
          <mxGeometry relative="1" as="geometry" />
        </mxCell>
        <mxCell id="WtjZ9ceoHeIxMGEVFJwQ-250" value="更新数据库、泰山和redis" style="ellipse;whiteSpace=wrap;html=1;" vertex="1" parent="1">
          <mxGeometry x="1120" y="60" width="141" height="50" as="geometry" />
        </mxCell>
        <mxCell id="WtjZ9ceoHeIxMGEVFJwQ-251" style="edgeStyle=orthogonalEdgeStyle;rounded=0;orthogonalLoop=1;jettySize=auto;html=1;entryX=0;entryY=0.5;entryDx=0;entryDy=0;" edge="1" parent="1" source="WtjZ9ceoHeIxMGEVFJwQ-180" target="WtjZ9ceoHeIxMGEVFJwQ-195">
          <mxGeometry relative="1" as="geometry" />
        </mxCell>
        <mxCell id="WtjZ9ceoHeIxMGEVFJwQ-252" style="edgeStyle=orthogonalEdgeStyle;rounded=0;orthogonalLoop=1;jettySize=auto;html=1;entryX=0;entryY=0.5;entryDx=0;entryDy=0;" edge="1" parent="1" source="WtjZ9ceoHeIxMGEVFJwQ-177" target="WtjZ9ceoHeIxMGEVFJwQ-247">
          <mxGeometry relative="1" as="geometry" />
        </mxCell>
        <mxCell id="WtjZ9ceoHeIxMGEVFJwQ-253" style="edgeStyle=orthogonalEdgeStyle;rounded=0;orthogonalLoop=1;jettySize=auto;html=1;entryX=0;entryY=0.5;entryDx=0;entryDy=0;" edge="1" parent="1" source="WtjZ9ceoHeIxMGEVFJwQ-174" target="WtjZ9ceoHeIxMGEVFJwQ-248">
          <mxGeometry relative="1" as="geometry" />
        </mxCell>
        <mxCell id="WtjZ9ceoHeIxMGEVFJwQ-254" style="edgeStyle=orthogonalEdgeStyle;rounded=0;orthogonalLoop=1;jettySize=auto;html=1;entryX=0;entryY=0.5;entryDx=0;entryDy=0;" edge="1" parent="1" source="WtjZ9ceoHeIxMGEVFJwQ-171" target="WtjZ9ceoHeIxMGEVFJwQ-249">
          <mxGeometry relative="1" as="geometry" />
        </mxCell>
        <mxCell id="WtjZ9ceoHeIxMGEVFJwQ-255" style="edgeStyle=orthogonalEdgeStyle;rounded=0;orthogonalLoop=1;jettySize=auto;html=1;entryX=0;entryY=0.5;entryDx=0;entryDy=0;" edge="1" parent="1" source="WtjZ9ceoHeIxMGEVFJwQ-167" target="WtjZ9ceoHeIxMGEVFJwQ-250">
          <mxGeometry relative="1" as="geometry" />
        </mxCell>
        <mxCell id="WtjZ9ceoHeIxMGEVFJwQ-278" style="edgeStyle=orthogonalEdgeStyle;rounded=0;orthogonalLoop=1;jettySize=auto;html=1;entryX=0;entryY=0.5;entryDx=0;entryDy=0;" edge="1" parent="1" source="WtjZ9ceoHeIxMGEVFJwQ-256" target="WtjZ9ceoHeIxMGEVFJwQ-266">
          <mxGeometry relative="1" as="geometry" />
        </mxCell>
        <mxCell id="WtjZ9ceoHeIxMGEVFJwQ-256" value="更新数据库、泰山和redis" style="ellipse;whiteSpace=wrap;html=1;" vertex="1" parent="1">
          <mxGeometry x="860" y="638.5" width="141" height="50" as="geometry" />
        </mxCell>
        <mxCell id="WtjZ9ceoHeIxMGEVFJwQ-279" style="edgeStyle=orthogonalEdgeStyle;rounded=0;orthogonalLoop=1;jettySize=auto;html=1;exitX=1;exitY=0.5;exitDx=0;exitDy=0;entryX=0;entryY=0.5;entryDx=0;entryDy=0;" edge="1" parent="1" source="WtjZ9ceoHeIxMGEVFJwQ-257" target="WtjZ9ceoHeIxMGEVFJwQ-266">
          <mxGeometry relative="1" as="geometry" />
        </mxCell>
        <mxCell id="WtjZ9ceoHeIxMGEVFJwQ-257" value="更新数据库、泰山和redis" style="ellipse;whiteSpace=wrap;html=1;" vertex="1" parent="1">
          <mxGeometry x="860" y="834.5" width="141" height="50" as="geometry" />
        </mxCell>
        <mxCell id="WtjZ9ceoHeIxMGEVFJwQ-282" style="edgeStyle=orthogonalEdgeStyle;rounded=0;orthogonalLoop=1;jettySize=auto;html=1;entryX=0;entryY=0.5;entryDx=0;entryDy=0;" edge="1" parent="1" source="WtjZ9ceoHeIxMGEVFJwQ-258" target="WtjZ9ceoHeIxMGEVFJwQ-266">
          <mxGeometry relative="1" as="geometry" />
        </mxCell>
        <mxCell id="WtjZ9ceoHeIxMGEVFJwQ-258" value="更新数据库、泰山和redis" style="ellipse;whiteSpace=wrap;html=1;" vertex="1" parent="1">
          <mxGeometry x="861" y="1006.5" width="141" height="50" as="geometry" />
        </mxCell>
        <mxCell id="WtjZ9ceoHeIxMGEVFJwQ-283" style="edgeStyle=orthogonalEdgeStyle;rounded=0;orthogonalLoop=1;jettySize=auto;html=1;entryX=0;entryY=0.5;entryDx=0;entryDy=0;" edge="1" parent="1" source="WtjZ9ceoHeIxMGEVFJwQ-259" target="WtjZ9ceoHeIxMGEVFJwQ-266">
          <mxGeometry relative="1" as="geometry">
            <Array as="points">
              <mxPoint x="1460" y="1245" />
              <mxPoint x="1460" y="750" />
            </Array>
          </mxGeometry>
        </mxCell>
        <mxCell id="WtjZ9ceoHeIxMGEVFJwQ-259" value="更新数据库、泰山和redis" style="ellipse;whiteSpace=wrap;html=1;" vertex="1" parent="1">
          <mxGeometry x="1160" y="1220" width="141" height="50" as="geometry" />
        </mxCell>
        <mxCell id="WtjZ9ceoHeIxMGEVFJwQ-260" style="edgeStyle=orthogonalEdgeStyle;rounded=0;orthogonalLoop=1;jettySize=auto;html=1;entryX=0;entryY=0.5;entryDx=0;entryDy=0;" edge="1" parent="1" source="WtjZ9ceoHeIxMGEVFJwQ-234" target="WtjZ9ceoHeIxMGEVFJwQ-259">
          <mxGeometry relative="1" as="geometry" />
        </mxCell>
        <mxCell id="WtjZ9ceoHeIxMGEVFJwQ-268" value="" style="group" vertex="1" connectable="0" parent="1">
          <mxGeometry x="1660" y="550" width="200" height="370" as="geometry" />
        </mxCell>
        <mxCell id="WtjZ9ceoHeIxMGEVFJwQ-266" value="" style="rounded=0;whiteSpace=wrap;html=1;dashed=1;strokeColor=#FF0000;strokeWidth=3;" vertex="1" parent="WtjZ9ceoHeIxMGEVFJwQ-268">
          <mxGeometry y="30" width="200" height="340" as="geometry" />
        </mxCell>
        <mxCell id="WtjZ9ceoHeIxMGEVFJwQ-261" value="redis" style="rounded=1;whiteSpace=wrap;html=1;" vertex="1" parent="WtjZ9ceoHeIxMGEVFJwQ-268">
          <mxGeometry x="40" y="60" width="120" height="60" as="geometry" />
        </mxCell>
        <mxCell id="WtjZ9ceoHeIxMGEVFJwQ-262" value="泰山" style="shape=cylinder3;whiteSpace=wrap;html=1;boundedLbl=1;backgroundOutline=1;size=15;" vertex="1" parent="WtjZ9ceoHeIxMGEVFJwQ-268">
          <mxGeometry x="70" y="140" width="60" height="80" as="geometry" />
        </mxCell>
        <mxCell id="WtjZ9ceoHeIxMGEVFJwQ-264" value="mysql" style="shape=cylinder3;whiteSpace=wrap;html=1;boundedLbl=1;backgroundOutline=1;size=15;" vertex="1" parent="WtjZ9ceoHeIxMGEVFJwQ-268">
          <mxGeometry x="70" y="250" width="60" height="80" as="geometry" />
        </mxCell>
        <mxCell id="WtjZ9ceoHeIxMGEVFJwQ-267" value="&lt;font color=&quot;#ff0000&quot; style=&quot;font-size: 15px;&quot;&gt;&lt;b&gt;存储&lt;/b&gt;&lt;/font&gt;" style="text;strokeColor=none;align=center;fillColor=none;html=1;verticalAlign=middle;whiteSpace=wrap;rounded=0;" vertex="1" parent="WtjZ9ceoHeIxMGEVFJwQ-268">
          <mxGeometry x="70" width="60" height="30" as="geometry" />
        </mxCell>
        <mxCell id="WtjZ9ceoHeIxMGEVFJwQ-275" style="edgeStyle=orthogonalEdgeStyle;rounded=0;orthogonalLoop=1;jettySize=auto;html=1;entryX=0;entryY=0.5;entryDx=0;entryDy=0;" edge="1" parent="1" source="WtjZ9ceoHeIxMGEVFJwQ-100" target="WtjZ9ceoHeIxMGEVFJwQ-266">
          <mxGeometry relative="1" as="geometry">
            <Array as="points">
              <mxPoint x="1460" y="240" />
              <mxPoint x="1460" y="750" />
            </Array>
          </mxGeometry>
        </mxCell>
        <mxCell id="WtjZ9ceoHeIxMGEVFJwQ-276" style="edgeStyle=orthogonalEdgeStyle;rounded=0;orthogonalLoop=1;jettySize=auto;html=1;entryX=0;entryY=0.5;entryDx=0;entryDy=0;" edge="1" parent="1" source="WtjZ9ceoHeIxMGEVFJwQ-216" target="WtjZ9ceoHeIxMGEVFJwQ-266">
          <mxGeometry relative="1" as="geometry">
            <Array as="points">
              <mxPoint x="1460" y="370" />
              <mxPoint x="1460" y="750" />
            </Array>
          </mxGeometry>
        </mxCell>
        <mxCell id="WtjZ9ceoHeIxMGEVFJwQ-277" style="edgeStyle=orthogonalEdgeStyle;rounded=0;orthogonalLoop=1;jettySize=auto;html=1;entryX=0;entryY=0.5;entryDx=0;entryDy=0;" edge="1" parent="1" source="WtjZ9ceoHeIxMGEVFJwQ-151" target="WtjZ9ceoHeIxMGEVFJwQ-266">
          <mxGeometry relative="1" as="geometry">
            <Array as="points">
              <mxPoint x="1460" y="517" />
              <mxPoint x="1460" y="750" />
            </Array>
          </mxGeometry>
        </mxCell>
        <mxCell id="WtjZ9ceoHeIxMGEVFJwQ-284" style="edgeStyle=orthogonalEdgeStyle;rounded=0;orthogonalLoop=1;jettySize=auto;html=1;entryX=0;entryY=0.5;entryDx=0;entryDy=0;" edge="1" parent="1" source="WtjZ9ceoHeIxMGEVFJwQ-164" target="WtjZ9ceoHeIxMGEVFJwQ-266">
          <mxGeometry relative="1" as="geometry">
            <Array as="points">
              <mxPoint x="1460" y="1450" />
              <mxPoint x="1460" y="750" />
            </Array>
          </mxGeometry>
        </mxCell>
      </root>
    </mxGraphModel>
  </diagram>
</mxfile>
